%FSLAX24Y24*%
%MOIN*%
G04 EasyPC Gerber Version 16.0.6 Build 3249 *
%ADD75R,0.03756X0.06118*%
%ADD74R,0.06500X0.07000*%
%ADD77R,0.06906X0.06906*%
%ADD27R,0.07000X0.07000*%
%ADD73R,0.07000X0.07000*%
%ADD78C,0.06906*%
%ADD26C,0.07000*%
%ADD99C,0.08480*%
%ADD29C,0.10055*%
%ADD28C,0.13992*%
%ADD72R,0.07000X0.06500*%
X0Y0D02*
D02*
D26*
X871Y6077D03*
Y6786D03*
Y7495D03*
Y8203D03*
Y8912D03*
Y9621D03*
Y10329D03*
Y11038D03*
Y11747D03*
Y12455D03*
X1647Y13176D03*
X1655Y12467D03*
X1659Y6077D03*
Y6786D03*
Y7495D03*
Y8203D03*
Y8912D03*
Y9621D03*
Y10329D03*
Y11038D03*
Y11747D03*
X4789Y5782D03*
X5655Y5152D03*
Y5782D03*
X6521Y5152D03*
Y5782D03*
D02*
D27*
X871Y13164D03*
D02*
D28*
X13942Y6766D03*
Y12475D03*
D02*
D29*
X16275Y6766D03*
Y12475D03*
D02*
D72*
X6189Y12652D03*
X7089D03*
X7429Y8184D03*
Y8951D03*
X8329Y8184D03*
Y8951D03*
X9536Y7829D03*
X10436D03*
X13177Y8341D03*
Y9109D03*
Y9877D03*
X14077Y8341D03*
Y9109D03*
Y9877D03*
X16110Y11274D03*
X16150Y8282D03*
X17010Y11274D03*
X17050Y8282D03*
D02*
D73*
X12824Y13696D03*
X13824D03*
D02*
D74*
X11305Y11356D03*
Y12256D03*
D02*
D75*
X16305Y9188D03*
Y10329D03*
X16679Y9188D03*
X17053D03*
Y10329D03*
D02*
D77*
X4789Y5152D03*
X5793Y13676D03*
X11482Y5605D03*
D02*
D78*
X6580Y13676D03*
X7368D03*
X7545Y5605D03*
X8155Y13676D03*
X8332Y5605D03*
X8942Y13676D03*
X9119Y5605D03*
X9730Y13676D03*
X9907Y5605D03*
X10694D03*
D02*
D99*
X2997Y11751D03*
Y12751D03*
Y13751D03*
X0Y0D02*
M02*
