%FSLAX24Y24*%
%MOIN*%
G04 EasyPC Gerber Version 16.0.6 Build 3249 *
%ADD100C,0.00394*%
%ADD10C,0.00500*%
X0Y0D02*
D02*
D10*
X6556Y7908D02*
X6931D01*
Y8127*
X6900Y8189*
X6837Y8221*
X6775Y8189*
X6743Y8127*
Y7908*
Y8127D02*
X6556Y8221D01*
Y8658D02*
Y8408D01*
X6775Y8627*
X6837Y8658*
X6900Y8627*
X6931Y8564*
Y8471*
X6900Y8408*
X6701Y11903D02*
X6732Y11872D01*
X6794Y11841*
X6888*
X6951Y11872*
X6982Y11903*
X7013Y11966*
Y12091*
X6982Y12153*
X6951Y12184*
X6888Y12216*
X6794*
X6732Y12184*
X6701Y12153*
X6451Y11841D02*
X6326D01*
X6388D02*
Y12216D01*
X6451Y12153*
X7079Y8534D02*
X8679D01*
Y7834*
X7079*
Y8534*
Y9301D02*
X8679D01*
Y8601*
X7079*
Y9301*
X7439Y12302D02*
X5839D01*
Y13002*
X7439*
Y12302*
X9095Y8951D02*
X9470D01*
Y9170*
X9439Y9233*
X9376Y9264*
X9314Y9233*
X9283Y9170*
Y8951*
Y9170D02*
X9095Y9264D01*
X9126Y9483D02*
X9095Y9545D01*
Y9608*
X9126Y9670*
X9189Y9701*
X9251Y9670*
X9283Y9608*
Y9545*
Y9608D02*
X9314Y9670D01*
X9376Y9701*
X9439Y9670*
X9470Y9608*
Y9545*
X9439Y9483*
X10786Y7479D02*
X9186D01*
Y8179*
X10786*
Y7479*
X11655Y12606D02*
Y11006D01*
X10955*
Y12606*
X11655*
X11835Y11784D02*
X11804Y11752D01*
X11772Y11690*
Y11596*
X11804Y11534*
X11835Y11502*
X11897Y11471*
X12022*
X12085Y11502*
X12116Y11534*
X12147Y11596*
Y11690*
X12116Y11752*
X12085Y11784*
X11804Y12002D02*
X11772Y12065D01*
Y12127*
X11804Y12190*
X11866Y12221*
X11929Y12190*
X11960Y12127*
Y12065*
Y12127D02*
X11991Y12190D01*
X12054Y12221*
X12116Y12190*
X12147Y12127*
Y12065*
X12116Y12002*
X11484Y7474D02*
X11515Y7443D01*
X11578Y7411*
X11672*
X11734Y7443*
X11765Y7474*
X11797Y7536*
Y7661*
X11765Y7724*
X11734Y7755*
X11672Y7786*
X11578*
X11515Y7755*
X11484Y7724*
X11140Y7411D02*
Y7786D01*
X11297Y7536*
X11047*
X12827Y8691D02*
X14427D01*
Y7991*
X12827*
Y8691*
Y9459D02*
X14427D01*
Y8759*
X12827*
Y9459*
Y10227D02*
X14427D01*
Y9527*
X12827*
Y10227*
X13312Y7451D02*
Y7826D01*
X13094*
X13031Y7795*
X13000Y7732*
X13031Y7670*
X13094Y7638*
X13312*
X13094D02*
X13000Y7451D01*
X12812D02*
X12562Y7826D01*
X12812*
X14080Y10384D02*
Y10759D01*
X13861*
X13799Y10728*
X13768Y10665*
X13799Y10603*
X13861Y10571*
X14080*
X13861D02*
X13768Y10384D01*
X13580Y10478D02*
X13549Y10540D01*
X13486Y10571*
X13424*
X13361Y10540*
X13330Y10478*
X13361Y10415*
X13424Y10384*
X13486*
X13549Y10415*
X13580Y10478*
Y10571*
X13549Y10665*
X13486Y10728*
X13424Y10759*
X14100Y10935D02*
Y11310D01*
X13881*
X13819Y11279*
X13787Y11216*
X13819Y11154*
X13881Y11123*
X14100*
X13881D02*
X13787Y10935D01*
X13600Y10966D02*
X13537Y10935D01*
X13444*
X13381Y10966*
X13350Y11029*
Y11060*
X13381Y11123*
X13444Y11154*
X13600*
Y11310*
X13350*
X15868Y10034D02*
X15587D01*
X15524Y10065*
X15493Y10128*
Y10253*
X15524Y10315*
X15587Y10347*
X15868*
X15524Y10565D02*
X15493Y10628D01*
Y10690*
X15524Y10753*
X15587Y10784*
X15649Y10753*
X15680Y10690*
Y10628*
Y10690D02*
X15712Y10753D01*
X15774Y10784*
X15837Y10753*
X15868Y10690*
Y10628*
X15837Y10565*
X15760Y11624D02*
X17360D01*
Y10924*
X15760*
Y11624*
X15800Y8632D02*
X17400D01*
Y7932*
X15800*
Y8632*
X16779Y7474D02*
X16811Y7443D01*
X16873Y7411*
X16967*
X17029Y7443*
X17061Y7474*
X17092Y7536*
Y7661*
X17061Y7724*
X17029Y7755*
X16967Y7786*
X16873*
X16811Y7755*
X16779Y7724*
X16592Y7505D02*
X16561Y7568D01*
X16498Y7599*
X16436*
X16373Y7568*
X16342Y7505*
X16373Y7443*
X16436Y7411*
X16498*
X16561Y7443*
X16592Y7505*
Y7599*
X16561Y7693*
X16498Y7755*
X16436Y7786*
X17387Y10782D02*
X15970D01*
Y8735*
X17387*
Y9709*
X17338*
Y9808*
X17387*
Y10782*
X17193Y11785D02*
X17224Y11754D01*
X17287Y11722*
X17380*
X17443Y11754*
X17474Y11785*
X17505Y11847*
Y11972*
X17474Y12035*
X17443Y12066*
X17380Y12097*
X17287*
X17224Y12066*
X17193Y12035*
X17005Y11754D02*
X16943Y11722D01*
X16849*
X16787Y11754*
X16755Y11816*
Y11847*
X16787Y11910*
X16849Y11941*
X17005*
Y12097*
X16755*
D02*
D100*
X8337Y12903D02*
X8042D01*
Y13026D02*
Y12780D01*
X8337Y12633D02*
X8042D01*
Y12485*
X8066Y12436*
X8091Y12411*
X8140Y12387*
X8239*
X8288Y12411*
X8312Y12436*
X8337Y12485*
Y12633*
X8239Y12239D02*
X8140D01*
X8091Y12214*
X8066Y12190*
X8042Y12140*
Y12091*
X8066Y12042*
X8091Y12017*
X8140Y11993*
X8239*
X8288Y12017*
X8312Y12042*
X8337Y12091*
Y12140*
X8312Y12190*
X8288Y12214*
X8239Y12239*
X9124Y12903D02*
X8829D01*
Y13026D02*
Y12780D01*
X9124Y12633D02*
X8829D01*
Y12485*
X8854Y12436*
X8878Y12411*
X8928Y12387*
X9026*
X9075Y12411*
X9100Y12436*
X9124Y12485*
Y12633*
Y12165D02*
Y12067D01*
Y12116D02*
X8829D01*
Y12165D02*
Y12067D01*
X9931Y12923D02*
X9636D01*
Y13046D02*
Y12800D01*
X9931Y12652D02*
X9636D01*
X9784Y12529*
X9636Y12406*
X9931*
X9858Y12259D02*
X9907Y12234D01*
X9931Y12185*
Y12086*
X9907Y12037*
X9858Y12013*
X9808Y12037*
X9784Y12086*
Y12185*
X9759Y12234*
X9710Y12259*
X9661Y12234*
X9636Y12185*
Y12086*
X9661Y12037*
X9710Y12013*
X0Y0D02*
M02*
