%FSLAX24Y24*%
%MOIN*%
G04 EasyPC Gerber Version 16.0.6 Build 3249 *
%ADD19R,0.02756X0.05118*%
%ADD18R,0.05500X0.06000*%
%ADD71R,0.05906X0.05906*%
%ADD13R,0.06000X0.06000*%
%ADD17R,0.06000X0.06000*%
%ADD100C,0.00394*%
%ADD10C,0.00500*%
%ADD25C,0.00787*%
%ADD11C,0.01000*%
%ADD22C,0.01181*%
%ADD23C,0.01500*%
%ADD98C,0.03937*%
%ADD20C,0.05906*%
%ADD12C,0.06000*%
%ADD97C,0.07480*%
%ADD15C,0.09055*%
%ADD14C,0.12992*%
%ADD16R,0.06000X0.05500*%
X0Y0D02*
D02*
D10*
X555Y12739D02*
X446D01*
Y13589*
X1056*
X1233Y13767*
X1280Y13800*
X1334Y13818*
X1392Y13818*
X1446Y13801*
X1934*
X1997Y13788*
X2051Y13753*
X2396Y13407*
X2635*
X2566Y13500*
X2520Y13606*
X2499Y13721*
X2506Y13837*
X2539Y13948*
X2597Y14048*
X2676Y14133*
X2773Y14197*
X2882Y14236*
X2997Y14250*
X3113Y14236*
X3222Y14196*
X3319Y14133*
X3398Y14048*
X3456Y13948*
X3489Y13836*
X3496Y13721*
X3475Y13606*
X3429Y13500*
X3359Y13407*
X4143*
X4206Y13436*
X4275Y13442*
X4342Y13424*
X4399Y13384*
X4655Y13128*
X4783*
X4729Y13196*
X4695Y13275*
X4683Y13361*
X4696Y13452*
X4735Y13535*
X4795Y13604*
X4872Y13654*
X4959Y13680*
X5051*
X5139Y13654*
X5216Y13604*
X5276Y13535*
X5314Y13452*
X5327Y13361*
X5321Y13299*
X5372Y13319*
Y14096*
X6213*
Y13880*
X6276Y13966*
X6358Y14033*
X6454Y14077*
X6559Y14096*
X6664Y14088*
X6765Y14053*
X6853Y13995*
X6924Y13917*
X6974Y13823*
X7027Y13923*
X7105Y14004*
X7202Y14062*
X7311Y14092*
X7424*
X7533Y14062*
X7630Y14004*
X7708Y13923*
X7761Y13823*
X7815Y13923*
X7893Y14004*
X7990Y14062*
X8099Y14092*
X8211*
X8320Y14062*
X8458Y14200*
X8518Y14240*
X8588Y14254*
X8817*
X8797Y14308*
X8791Y14365*
Y14430*
X1594*
Y14148*
X1582Y14071*
X1546Y14001*
X1491Y13946*
X1421Y13911*
X1344Y13898*
X275*
Y5304*
X1344*
X1421Y5292*
X1491Y5256*
X1546Y5201*
X1582Y5131*
X1594Y5054*
Y4772*
X2130*
X2095Y4854*
X2085Y4943*
X2099Y5031*
X2137Y5111*
X2195Y5178*
X2270Y5227*
X2355Y5253*
X2444Y5255*
X2542Y5353*
Y5845*
X2476Y5915*
X2434Y6002*
X2420Y6097*
X2433Y6188*
X2471Y6271*
X2531Y6340*
X2608Y6390*
X2696Y6416*
X2787*
X2875Y6390*
X2952Y6340*
X3012Y6271*
X3050Y6188*
X3063Y6097*
X3049Y6002*
X3007Y5915*
X2942Y5845*
Y5270*
X2926Y5194*
X2883Y5129*
X2727Y4973*
X2727Y4903*
X2713Y4836*
X2684Y4772*
X3826*
X3710Y4888*
X3644Y4931*
X3600Y4996*
X3585Y5074*
Y6376*
X3524Y6440*
X3483Y6517*
X3464Y6602*
X3469Y6690*
X3497Y6773*
X3546Y6845*
X3614Y6901*
X2942*
X2082Y6041*
X2058Y5931*
X2005Y5831*
X1927Y5748*
X1831Y5689*
X1722Y5657*
X1609Y5655*
X1500Y5683*
X1401Y5739*
X1321Y5819*
X1265Y5917*
X1217Y5829*
X1149Y5755*
X1065Y5699*
X971Y5664*
X871Y5652*
X764Y5666*
X664Y5707*
X577Y5771*
X509Y5856*
X465Y5955*
X447Y6062*
X457Y6170*
X493Y6272*
X555Y6361*
X637Y6432*
X557Y6500*
X497Y6585*
X459Y6682*
X446Y6786*
X459Y6890*
X497Y6987*
X557Y7072*
X637Y7140*
X557Y7208*
X497Y7294*
X459Y7391*
X446Y7495*
X459Y7598*
X497Y7696*
X557Y7781*
X637Y7849*
X557Y7917*
X497Y8002*
X459Y8100*
X446Y8203*
X459Y8307*
X497Y8405*
X557Y8490*
X637Y8558*
X557Y8626*
X497Y8711*
X459Y8808*
X446Y8912*
X459Y9016*
X497Y9113*
X557Y9198*
X637Y9266*
X557Y9334*
X497Y9420*
X459Y9517*
X446Y9621*
X459Y9724*
X497Y9822*
X557Y9907*
X637Y9975*
X557Y10043*
X497Y10128*
X459Y10226*
X446Y10329*
X459Y10433*
X497Y10531*
X557Y10616*
X637Y10684*
X557Y10752*
X497Y10837*
X459Y10934*
X446Y11038*
X459Y11142*
X497Y11239*
X557Y11324*
X637Y11392*
X557Y11460*
X497Y11546*
X459Y11643*
X446Y11747*
X459Y11850*
X497Y11948*
X557Y12033*
X637Y12101*
X558Y12169*
X498Y12253*
X460Y12350*
X446Y12453*
X459Y12557*
X496Y12654*
X555Y12739*
X1594Y4814D02*
X2109D01*
X2705D02*
X3784D01*
X1594Y4862D02*
X2094D01*
X2720D02*
X3736D01*
X1594Y4910D02*
X2086D01*
X2728D02*
X3670D01*
X1594Y4958D02*
X2086D01*
X2728D02*
X3622D01*
X1594Y5006D02*
X2093D01*
X2760D02*
X3597D01*
X1594Y5054D02*
X2108D01*
X2808D02*
X3586D01*
X1589Y5102D02*
X2131D01*
X2856D02*
X3585D01*
X1575Y5150D02*
X2167D01*
X2901D02*
X3585D01*
X1548Y5198D02*
X2221D01*
X2928D02*
X3585D01*
X1504Y5246D02*
X2322D01*
X2940D02*
X3585D01*
X1413Y5294D02*
X2483D01*
X2942D02*
X3585D01*
X275Y5342D02*
X2531D01*
X2942D02*
X3585D01*
X275Y5390D02*
X2542D01*
X2942D02*
X3585D01*
X275Y5438D02*
X2542D01*
X2942D02*
X3585D01*
X275Y5486D02*
X2542D01*
X2942D02*
X3585D01*
X275Y5534D02*
X2542D01*
X2942D02*
X3585D01*
X275Y5582D02*
X2542D01*
X2942D02*
X3585D01*
X275Y5630D02*
X2542D01*
X2942D02*
X3585D01*
X275Y5678D02*
X725D01*
X1018D02*
X1513D01*
X1805D02*
X2542D01*
X2942D02*
X3585D01*
X275Y5726D02*
X632D01*
X1111D02*
X1419D01*
X1899D02*
X2542D01*
X2942D02*
X3585D01*
X275Y5775D02*
X573D01*
X1170D02*
X1361D01*
X1957D02*
X2542D01*
X2942D02*
X3585D01*
X275Y5823D02*
X531D01*
X1212D02*
X1319D01*
X1999D02*
X2542D01*
X2942D02*
X3585D01*
X275Y5871D02*
X500D01*
X1243D02*
X1288D01*
X2030D02*
X2513D01*
X2970D02*
X3585D01*
X275Y5919D02*
X477D01*
X2053D02*
X2474D01*
X3009D02*
X3585D01*
X275Y5967D02*
X461D01*
X2069D02*
X2447D01*
X3036D02*
X3585D01*
X275Y6015D02*
X451D01*
X2079D02*
X2430D01*
X3053D02*
X3585D01*
X275Y6063D02*
X447D01*
X2104D02*
X2422D01*
X3062D02*
X3585D01*
X275Y6111D02*
X448D01*
X2152D02*
X2420D01*
X3063D02*
X3585D01*
X275Y6159D02*
X454D01*
X2200D02*
X2426D01*
X3057D02*
X3585D01*
X275Y6207D02*
X467D01*
X2248D02*
X2439D01*
X3044D02*
X3585D01*
X275Y6255D02*
X485D01*
X2296D02*
X2461D01*
X3022D02*
X3585D01*
X275Y6303D02*
X511D01*
X2344D02*
X2494D01*
X2989D02*
X3585D01*
X275Y6351D02*
X546D01*
X2392D02*
X2544D01*
X2940D02*
X3585D01*
X275Y6399D02*
X593D01*
X2440D02*
X2630D01*
X2853D02*
X3559D01*
X275Y6447D02*
X615D01*
X2488D02*
X3519D01*
X275Y6495D02*
X562D01*
X2536D02*
X3492D01*
X275Y6543D02*
X523D01*
X2584D02*
X3475D01*
X275Y6591D02*
X494D01*
X2632D02*
X3465D01*
X275Y6639D02*
X473D01*
X2680D02*
X3463D01*
X275Y6687D02*
X458D01*
X2729D02*
X3468D01*
X275Y6735D02*
X450D01*
X2777D02*
X3481D01*
X275Y6783D02*
X446D01*
X2825D02*
X3503D01*
X275Y6831D02*
X449D01*
X2873D02*
X3535D01*
X275Y6879D02*
X457D01*
X2921D02*
X3583D01*
X275Y6927D02*
X471D01*
X275Y6975D02*
X491D01*
X275Y7023D02*
X519D01*
X275Y7071D02*
X556D01*
X275Y7119D02*
X608D01*
X275Y7167D02*
X600D01*
X275Y7215D02*
X551D01*
X275Y7264D02*
X515D01*
X275Y7312D02*
X488D01*
X275Y7360D02*
X469D01*
X275Y7408D02*
X456D01*
X275Y7456D02*
X448D01*
X275Y7504D02*
X446D01*
X275Y7552D02*
X450D01*
X275Y7600D02*
X460D01*
X275Y7648D02*
X475D01*
X275Y7696D02*
X497D01*
X275Y7744D02*
X527D01*
X275Y7792D02*
X568D01*
X275Y7840D02*
X623D01*
X275Y7888D02*
X587D01*
X275Y7936D02*
X541D01*
X275Y7984D02*
X508D01*
X275Y8032D02*
X483D01*
X275Y8080D02*
X465D01*
X275Y8128D02*
X453D01*
X275Y8176D02*
X447D01*
X275Y8224D02*
X447D01*
X275Y8272D02*
X452D01*
X275Y8320D02*
X463D01*
X275Y8368D02*
X480D01*
X275Y8416D02*
X504D01*
X275Y8464D02*
X536D01*
X275Y8512D02*
X580D01*
X275Y8560D02*
X633D01*
X275Y8608D02*
X574D01*
X275Y8656D02*
X532D01*
X275Y8704D02*
X501D01*
X275Y8752D02*
X478D01*
X275Y8801D02*
X461D01*
X275Y8849D02*
X451D01*
X275Y8897D02*
X447D01*
X275Y8945D02*
X448D01*
X275Y8993D02*
X454D01*
X275Y9041D02*
X466D01*
X275Y9089D02*
X485D01*
X275Y9137D02*
X511D01*
X275Y9185D02*
X545D01*
X275Y9233D02*
X593D01*
X275Y9281D02*
X616D01*
X275Y9329D02*
X563D01*
X275Y9377D02*
X523D01*
X275Y9425D02*
X494D01*
X275Y9473D02*
X473D01*
X275Y9521D02*
X458D01*
X275Y9569D02*
X450D01*
X275Y9617D02*
X446D01*
X275Y9665D02*
X449D01*
X275Y9713D02*
X457D01*
X275Y9761D02*
X470D01*
X275Y9809D02*
X490D01*
X275Y9857D02*
X518D01*
X275Y9905D02*
X556D01*
X275Y9953D02*
X607D01*
X275Y10001D02*
X601D01*
X275Y10049D02*
X552D01*
X275Y10097D02*
X515D01*
X275Y10145D02*
X488D01*
X275Y10193D02*
X469D01*
X275Y10241D02*
X456D01*
X275Y10289D02*
X448D01*
X275Y10338D02*
X446D01*
X275Y10386D02*
X450D01*
X275Y10434D02*
X459D01*
X275Y10482D02*
X475D01*
X275Y10530D02*
X497D01*
X275Y10578D02*
X526D01*
X275Y10626D02*
X567D01*
X275Y10674D02*
X622D01*
X275Y10722D02*
X588D01*
X275Y10770D02*
X542D01*
X275Y10818D02*
X508D01*
X275Y10866D02*
X483D01*
X275Y10914D02*
X465D01*
X275Y10962D02*
X453D01*
X275Y11010D02*
X447D01*
X275Y11058D02*
X447D01*
X275Y11106D02*
X452D01*
X275Y11154D02*
X463D01*
X275Y11202D02*
X479D01*
X275Y11250D02*
X503D01*
X275Y11298D02*
X535D01*
X275Y11346D02*
X579D01*
X275Y11394D02*
X634D01*
X275Y11442D02*
X575D01*
X275Y11490D02*
X533D01*
X275Y11538D02*
X501D01*
X275Y11586D02*
X478D01*
X275Y11634D02*
X462D01*
X275Y11682D02*
X451D01*
X275Y11730D02*
X447D01*
X275Y11778D02*
X448D01*
X275Y11826D02*
X454D01*
X275Y11875D02*
X466D01*
X275Y11923D02*
X485D01*
X275Y11971D02*
X510D01*
X275Y12019D02*
X545D01*
X275Y12067D02*
X592D01*
X275Y12115D02*
X617D01*
X275Y12163D02*
X563D01*
X275Y12211D02*
X524D01*
X275Y12259D02*
X495D01*
X275Y12307D02*
X473D01*
X275Y12355D02*
X459D01*
X275Y12403D02*
X450D01*
X275Y12451D02*
X446D01*
X275Y12499D02*
X449D01*
X275Y12547D02*
X456D01*
X275Y12595D02*
X470D01*
X275Y12643D02*
X490D01*
X275Y12691D02*
X518D01*
X275Y12739D02*
X446D01*
X275Y12787D02*
X446D01*
X275Y12835D02*
X446D01*
X275Y12883D02*
X446D01*
X275Y12931D02*
X446D01*
X275Y12979D02*
X446D01*
X275Y13027D02*
X446D01*
X275Y13075D02*
X446D01*
X275Y13123D02*
X446D01*
X275Y13171D02*
X446D01*
X4612D02*
X4745D01*
X275Y13219D02*
X446D01*
X4564D02*
X4716D01*
X275Y13267D02*
X446D01*
X4516D02*
X4697D01*
X275Y13315D02*
X446D01*
X4467D02*
X4687D01*
X5324D02*
X5359D01*
X275Y13364D02*
X446D01*
X4419D02*
X4683D01*
X5327D02*
X5372D01*
X275Y13412D02*
X446D01*
X2392D02*
X2631D01*
X3363D02*
X4150D01*
X4365D02*
X4687D01*
X5323D02*
X5372D01*
X275Y13460D02*
X446D01*
X2344D02*
X2592D01*
X3403D02*
X4699D01*
X5312D02*
X5372D01*
X275Y13508D02*
X446D01*
X2296D02*
X2562D01*
X3433D02*
X4719D01*
X5292D02*
X5372D01*
X275Y13556D02*
X446D01*
X2248D02*
X2538D01*
X3457D02*
X4749D01*
X5262D02*
X5372D01*
X275Y13604D02*
X1070D01*
X2200D02*
X2521D01*
X3474D02*
X4794D01*
X5217D02*
X5372D01*
X275Y13652D02*
X1118D01*
X2152D02*
X2508D01*
X3487D02*
X4867D01*
X5143D02*
X5372D01*
X275Y13700D02*
X1166D01*
X2104D02*
X2501D01*
X3494D02*
X5372D01*
X275Y13748D02*
X1214D01*
X2056D02*
X2498D01*
X3496D02*
X5372D01*
X275Y13796D02*
X1271D01*
X1975D02*
X2500D01*
X3494D02*
X5372D01*
X275Y13844D02*
X2507D01*
X3488D02*
X5372D01*
X6965D02*
X6982D01*
X7753D02*
X7770D01*
X275Y13892D02*
X2519D01*
X3476D02*
X5372D01*
X6213D02*
X6220D01*
X6941D02*
X7007D01*
X7728D02*
X7794D01*
X1482Y13940D02*
X2536D01*
X3459D02*
X5372D01*
X6213D02*
X6253D01*
X6907D02*
X7040D01*
X7695D02*
X7828D01*
X1536Y13988D02*
X2558D01*
X3436D02*
X5372D01*
X6213D02*
X6299D01*
X6862D02*
X7086D01*
X7649D02*
X7873D01*
X1567Y14036D02*
X2588D01*
X3407D02*
X5372D01*
X6213D02*
X6363D01*
X6797D02*
X7151D01*
X7584D02*
X7938D01*
X1585Y14084D02*
X2626D01*
X3369D02*
X5372D01*
X6213D02*
X6480D01*
X6681D02*
X7267D01*
X7468D02*
X8054D01*
X8255D02*
X8342D01*
X1593Y14132D02*
X2676D01*
X3319D02*
X8390D01*
X1594Y14180D02*
X2743D01*
X3252D02*
X8438D01*
X1594Y14228D02*
X2852D01*
X3143D02*
X8494D01*
X1594Y14276D02*
X8807D01*
X1594Y14324D02*
X8794D01*
X1594Y14372D02*
X8791D01*
X1594Y14420D02*
X8791D01*
X1886Y12824D02*
X1969Y12754D01*
X2032Y12664*
X2069Y12562*
X2080Y12453*
X2062Y12345*
X2018Y12246*
X2437*
X2566Y12375*
X2595Y12398*
X2629Y12414*
X2559Y12512*
X2515Y12625*
X2498Y12745*
X2512Y12865*
X2553Y12978*
X2621Y13078*
X2328*
X2265Y13091*
X2212Y13127*
X2059Y13279*
X2072Y13177*
X2060Y13074*
X2023Y12977*
X1964Y12892*
X1886Y12824*
X2019Y12248D02*
X2439D01*
X2044Y12296D02*
X2487D01*
X2062Y12344D02*
X2535D01*
X2073Y12392D02*
X2586D01*
X2079Y12440D02*
X2607D01*
X2079Y12488D02*
X2573D01*
X2074Y12536D02*
X2547D01*
X2064Y12584D02*
X2527D01*
X2047Y12632D02*
X2513D01*
X2023Y12680D02*
X2503D01*
X1990Y12728D02*
X2499D01*
X1947Y12776D02*
X2499D01*
X1886Y12824D02*
X2504D01*
X1944Y12872D02*
X2513D01*
X1987Y12920D02*
X2528D01*
X2018Y12968D02*
X2548D01*
X2041Y13016D02*
X2575D01*
X2057Y13064D02*
X2609D01*
X2067Y13112D02*
X2228D01*
X2072Y13160D02*
X2178D01*
X2071Y13208D02*
X2130D01*
X2064Y13256D02*
X2082D01*
X2029Y11956D02*
X2066Y11869D01*
X2083Y11775*
X2079Y11680*
X2053Y11588*
X2108Y11569*
X2155Y11534*
X2488Y11200*
X2586Y11197*
X2678Y11164*
X2756Y11105*
X2813Y11025*
X2843Y10932*
X2844Y10834*
X2815Y10741*
X3279*
X4293Y11754*
X4250Y11772*
X4212Y11800*
X4185Y11828*
X3549*
X3489Y11838*
X3495Y11714*
X3471Y11592*
X3417Y11480*
X3337Y11385*
X3236Y11313*
X3121Y11267*
X2997Y11252*
X2877Y11266*
X2763Y11310*
X2664Y11380*
X2584Y11471*
X2529Y11580*
X2501Y11698*
X2503Y11820*
X2534Y11937*
X2489Y11941*
X2447Y11956*
X2029*
X2822Y10756D02*
X3294D01*
X2838Y10804D02*
X3342D01*
X2846Y10852D02*
X3390D01*
X2846Y10900D02*
X3438D01*
X2840Y10948D02*
X3486D01*
X2826Y10996D02*
X3534D01*
X2802Y11044D02*
X3582D01*
X2768Y11092D02*
X3630D01*
X2716Y11140D02*
X3679D01*
X2621Y11188D02*
X3727D01*
X2453Y11236D02*
X3775D01*
X2404Y11284D02*
X2821D01*
X3174D02*
X3823D01*
X2356Y11332D02*
X2726D01*
X3269D02*
X3871D01*
X2308Y11380D02*
X2663D01*
X3331D02*
X3919D01*
X2260Y11428D02*
X2617D01*
X3378D02*
X3967D01*
X2212Y11476D02*
X2581D01*
X3414D02*
X4015D01*
X2164Y11524D02*
X2553D01*
X3442D02*
X4063D01*
X2101Y11572D02*
X2531D01*
X3463D02*
X4111D01*
X2065Y11620D02*
X2516D01*
X3479D02*
X4159D01*
X2077Y11668D02*
X2505D01*
X3490D02*
X4207D01*
X2083Y11716D02*
X2500D01*
X3495D02*
X4255D01*
X2083Y11764D02*
X2499D01*
X3496D02*
X4264D01*
X2079Y11812D02*
X2502D01*
X3493D02*
X4200D01*
X2068Y11860D02*
X2511D01*
X2052Y11908D02*
X2524D01*
X2871Y7620D02*
X4394D01*
X4450Y7690*
X4523Y7741*
X4607Y7771*
X4696Y7776*
X4783Y7757*
X4862Y7714*
X4926Y7652*
X4970Y7574*
X4991Y7488*
X5258Y7755*
Y8493*
X5186Y8437*
X5101Y8403*
X5010Y8394*
X4921Y8411*
X4839Y8452*
X4773Y8515*
X4494*
X4438Y8523*
X4441Y8479*
X4426Y8381*
X4515Y8418*
X4612Y8426*
X4706Y8406*
X4791Y8358*
X4857Y8288*
X4899Y8201*
X4914Y8105*
X4901Y8016*
X4864Y7933*
X4806Y7864*
X4731Y7815*
X4644Y7787*
X4554Y7785*
X4467Y7808*
X4389Y7855*
X4328Y7921*
X4078*
X3994Y7837*
X3934Y7797*
X3864Y7783*
X3034*
X2871Y7620*
X4985Y7524D02*
X5027D01*
X4971Y7572D02*
X5075D01*
X2871Y7620D02*
X4394D01*
X4947D02*
X5123D01*
X2919Y7668D02*
X4429D01*
X4912D02*
X5171D01*
X2967Y7716D02*
X4482D01*
X4860D02*
X5219D01*
X3015Y7764D02*
X4579D01*
X4763D02*
X5258D01*
X3962Y7812D02*
X4459D01*
X4725D02*
X5258D01*
X4017Y7860D02*
X4383D01*
X4801D02*
X5258D01*
X4065Y7908D02*
X4337D01*
X4846D02*
X5258D01*
X4877Y7956D02*
X5258D01*
X4898Y8004D02*
X5258D01*
X4909Y8052D02*
X5258D01*
X4914Y8100D02*
X5258D01*
X4911Y8148D02*
X5258D01*
X4901Y8196D02*
X5258D01*
X4882Y8244D02*
X5258D01*
X4854Y8292D02*
X5258D01*
X4812Y8340D02*
X5258D01*
X4428Y8388D02*
X4439D01*
X4745D02*
X5258D01*
X4439Y8436D02*
X4864D01*
X5186D02*
X5258D01*
X4441Y8484D02*
X4801D01*
X5249D02*
X5258D01*
X3360Y12408D02*
X3409Y12375D01*
X3606Y12178*
X4257*
X4324Y12164*
X4381Y12126*
X4409Y12099*
X8732*
X8799Y12166*
X8856Y12204*
X8923Y12217*
X9710*
X9777Y12204*
X9834Y12166*
X10260Y11739*
X10350Y11781*
X10448Y11793*
X10545Y11775*
X10632Y11728*
X10701Y11657*
X10745Y11569*
X10760Y11471*
X10748Y11382*
X10711Y11300*
X10654Y11232*
X10579Y11182*
X10494Y11154*
X10404Y11151*
X10317Y11173*
X10343Y11085*
X10344Y10993*
X10318Y10905*
X10268Y10828*
X10199Y10767*
X10285Y10745*
X10362Y10700*
X10424Y10636*
X10465Y10557*
X10484Y10470*
X10478Y10382*
X10553Y10418*
X10635Y10434*
X10718Y10428*
X10797Y10402*
X10786Y10499*
X10804Y10595*
X10851Y10681*
X10921Y10749*
X11008Y10793*
X11105Y10809*
Y10931*
X10905*
Y11781*
X11705*
Y10931*
X11505*
Y10684*
X11489Y10607*
X11446Y10542*
X11427Y10524*
X11424Y10426*
X11391Y10333*
X11331Y10255*
X11251Y10199*
X11157Y10169*
X11059Y10169*
X10965Y10198*
X10977Y10119*
X10968Y10039*
X10940Y9963*
X10894Y9897*
X10833Y9845*
X10796Y9794*
X10697Y9695*
Y9519*
X10763Y9448*
X10805Y9362*
X10819Y9266*
X10806Y9176*
X10768Y9092*
X10708Y9023*
X10631Y8974*
X10543Y8948*
X10452*
X10364Y8974*
X10287Y9023*
X10227Y9092*
X10189Y9176*
X10176Y9266*
X10190Y9362*
X10232Y9448*
X10297Y9519*
Y9709*
X10068Y9479*
Y9125*
X10133Y9055*
X10175Y8968*
X10189Y8873*
X10176Y8782*
X10138Y8699*
X10078Y8630*
X10001Y8580*
X9913Y8554*
X9822*
X9734Y8580*
X9657Y8629*
X9597Y8699*
X9559Y8782*
X9546Y8873*
X9560Y8968*
X9602Y9055*
X9668Y9125*
Y9562*
X9683Y9638*
X9726Y9703*
X9963Y9940*
Y10195*
X9901Y10261*
X9859Y10340*
X9841Y10429*
X9780Y10359*
X9700Y10310*
X9610Y10285*
X9517Y10288*
X9428Y10317*
X9352Y10371*
X9294Y10444*
X9259Y10530*
X9187Y10461*
X9098Y10416*
X8999Y10401*
X8900Y10418*
X8811Y10464*
X8740Y10535*
X8695Y10624*
X8680Y10723*
X8685Y10780*
X8650Y10815*
X8488*
X8513Y10729*
X8513Y10639*
X8489Y10553*
X8441Y10478*
X8375Y10418*
X8295Y10378*
X8207Y10362*
X8118Y10371*
X8035Y10404*
X8043Y10313*
X8025Y10223*
X7983Y10141*
X7919Y10075*
X7839Y10030*
X7750Y10009*
X7659Y10014*
X7572Y10045*
X7590Y9958*
X7584Y9870*
X7670Y9910*
X7765Y9923*
X7859Y9908*
X7944Y9866*
X8013Y9801*
X8434*
X8507Y9868*
X8597Y9910*
X8695Y9923*
X8792Y9905*
X8880Y9858*
X8949Y9788*
X8993Y9699*
X9008Y9601*
X8996Y9515*
X8962Y9435*
X8907Y9367*
X8836Y9316*
X8754Y9286*
Y8378*
X8805Y8358*
X8848Y8325*
X9111Y8062*
Y8229*
X9127*
X9051Y8263*
X8987Y8314*
X8938Y8380*
X8907Y8456*
X8896Y8538*
X8909Y8629*
X8947Y8712*
X9007Y8781*
X9084Y8831*
X9172Y8857*
X9264*
X9352Y8831*
X9429Y8781*
X9489Y8712*
X9527Y8629*
X9540Y8538*
X9539Y8522*
X10856*
X10928Y8589*
X11018Y8631*
X11116Y8643*
X11214Y8626*
X11301Y8579*
X11370Y8508*
X11414Y8419*
X11430Y8322*
X11415Y8225*
X11371Y8137*
X11303Y8066*
X11217Y8019*
X11121Y8000*
X11024Y8011*
X10934Y8051*
X10861Y8115*
Y7429*
X10300*
X10360Y7378*
X10407Y7313*
X10435Y7239*
X10445Y7160*
X10432Y7068*
X10393Y6984*
X10332Y6915*
X10253Y6866*
X10164Y6841*
X10071Y6843*
X9983Y6870*
X9906Y6922*
X9848Y6994*
X9812Y7080*
X9762Y6995*
X9688Y6930*
X9599Y6889*
X9501Y6878*
X9405Y6897*
X9318Y6943*
X9250Y7014*
X9206Y7102*
X9191Y7200*
X9203Y7284*
X9236Y7362*
X9288Y7429*
X9111*
Y7629*
X9060*
X8984Y7645*
X8919Y7688*
X8754Y7853*
Y7784*
X8529*
Y7768*
X8514Y7691*
X8471Y7626*
X8376Y7532*
X8374Y7440*
X8345Y7353*
X8422Y7407*
X8510Y7437*
X8604Y7441*
X8694Y7417*
X8774Y7368*
X8837Y7298*
X8876Y7213*
X8890Y7121*
X8877Y7030*
X8839Y6947*
X8779Y6878*
X8702Y6828*
X8614Y6802*
X8523*
X8435Y6828*
X8358Y6878*
X8298Y6947*
X8259Y7030*
X8246Y7121*
X8255Y7194*
X8279Y7263*
X8213Y7214*
X8137Y7183*
X8055Y7173*
X7973Y7184*
X7897Y7215*
X7906Y7140*
X7893Y7050*
X7855Y6966*
X7795Y6897*
X7718Y6848*
X7630Y6822*
X7538*
X7450Y6848*
X7373Y6897*
X7313Y6966*
X7275Y7050*
X7262Y7140*
X7276Y7235*
X7318Y7321*
X7383Y7392*
X7465Y7440*
X7559Y7461*
X7654Y7455*
X7743Y7420*
X7735Y7506*
X7750Y7592*
X7786Y7670*
X7843Y7736*
X7915Y7784*
X7904*
Y9313*
X7854Y9293*
Y7784*
X7095*
Y7688*
X7161Y7618*
X7203Y7531*
X7217Y7436*
X7204Y7345*
X7166Y7262*
X7106Y7193*
X7029Y7143*
X6941Y7117*
X6849*
X6761Y7143*
X6684Y7192*
X6624Y7262*
X6586Y7345*
X6573Y7436*
X6574Y7462*
X6465Y7352*
X6414Y7268*
X6340Y7204*
X6250Y7164*
X6153Y7153*
X6057Y7172*
X5971Y7219*
X5903Y7290*
X5859Y7378*
X5845Y7475*
X5856Y7559*
X5888Y7636*
X5939Y7703*
X6006Y7754*
X5915Y7794*
X5840Y7860*
X5789Y7945*
X5767Y8042*
X5775Y8141*
X5813Y8233*
X5878Y8309*
X5962Y8362*
X6059Y8386*
X5977Y8422*
X5909Y8479*
X5858Y8553*
X5830Y8638*
X5827Y8727*
X5848Y8813*
X5891Y8891*
X5955Y8954*
X5932Y8965*
X5658Y8691*
Y7672*
X5643Y7595*
X5599Y7531*
X5289Y7220*
X5320Y7222*
X5793*
X5869Y7207*
X5934Y7164*
X6053Y7045*
X6482*
X6558Y7030*
X6623Y6987*
X7175Y6435*
X11189*
X11167Y6501*
X11160Y6570*
X11173Y6660*
X11211Y6744*
X11271Y6813*
X11348Y6862*
X11436Y6888*
X11527*
X11615Y6862*
X11692Y6813*
X11752Y6744*
X11791Y6660*
X11804Y6570*
X11796Y6501*
X11774Y6435*
X12308*
X12385Y6420*
X12450Y6376*
X12893Y5933*
X12982Y5962*
X13075Y5964*
X13165Y5940*
X13244Y5891*
X13306Y5821*
X13345Y5737*
X13359Y5644*
X13344Y5547*
X13301Y5460*
X13233Y5389*
X13147Y5342*
X13051Y5323*
X12953Y5333*
X12863Y5373*
X12790Y5438*
X12739Y5522*
X12226Y6035*
X7092*
X7015Y6050*
X6951Y6094*
X6399Y6645*
X5970*
X5911Y6654*
X5917Y6562*
X5896Y6472*
X5850Y6392*
X5784Y6328*
X5702Y6285*
X5612Y6268*
X5520Y6276*
X5434Y6311*
X5362Y6368*
X5083Y6089*
X5153Y6001*
X5198Y5899*
X5214Y5788*
X5200Y5676*
X5158Y5573*
X5209*
Y4943*
X5285*
X5243Y5049*
X5230Y5163*
X5248Y5276*
X5296Y5380*
X5370Y5467*
X5311Y5533*
X5266Y5610*
X5239Y5694*
X5230Y5782*
X5244Y5892*
X5287Y5995*
X5354Y6083*
X5442Y6150*
X5545Y6193*
X5655Y6207*
X5765Y6193*
X5867Y6150*
X5955Y6083*
X6023Y5995*
X6065Y5892*
X6080Y5782*
X6071Y5694*
X6043Y5610*
X5999Y5533*
X5940Y5467*
X6008Y5389*
X6054Y5298*
X6077Y5198*
X6076Y5095*
X6050Y4995*
X6001Y4905*
X5931Y4829*
X5845Y4772*
X6331*
X6245Y4829*
X6175Y4905*
X6126Y4995*
X6100Y5095*
X6099Y5198*
X6122Y5298*
X6168Y5389*
X6236Y5467*
X6177Y5533*
X6133Y5610*
X6105Y5694*
X6096Y5782*
X6111Y5892*
X6153Y5995*
X6221Y6083*
X6309Y6150*
X6411Y6193*
X6521Y6207*
X6631Y6193*
X6734Y6150*
X6822Y6083*
X6889Y5995*
X6932Y5892*
X6946Y5782*
X6937Y5694*
X6910Y5610*
X6866Y5533*
X6806Y5467*
X6874Y5389*
X6920Y5298*
X6944Y5198*
X6942Y5095*
X6916Y4995*
X6867Y4905*
X6797Y4829*
X6712Y4772*
X8810*
Y4857*
X8823Y4934*
X8858Y5004*
X8914Y5059*
X8983Y5095*
X9060Y5107*
X17511*
Y14115*
X14249*
Y13271*
X13820*
X13782Y13233*
X13928Y13250*
X14073Y13239*
X14215Y13200*
X14346Y13136*
X14463Y13049*
X14562Y12940*
X14638Y12816*
X14690Y12679*
X14715Y12535*
X14712Y12389*
X14682Y12245*
X14626Y12110*
X14545Y11989*
X14443Y11884*
X15447*
X15561Y11998*
X15606Y12032*
X15658Y12054*
X15714Y12061*
X15872*
X15793Y12157*
X15736Y12267*
X15704Y12387*
X15698Y12511*
X15719Y12634*
X15766Y12749*
X15836Y12851*
X15927Y12936*
X16034Y13000*
X16151Y13040*
X16275Y13053*
X16399Y13040*
X16516Y13000*
X16623Y12936*
X16714Y12851*
X16784Y12749*
X16831Y12634*
X16852Y12511*
X16846Y12387*
X16814Y12267*
X16757Y12157*
X16678Y12061*
X16915*
X16971Y12054*
X17023Y12032*
X17067Y11998*
X17166Y11899*
X17200Y11855*
X17222Y11803*
X17229Y11747*
Y11674*
X17435*
Y10874*
X17268*
Y10710*
X17315*
Y9949*
X17047*
X17174Y9821*
X17218Y9756*
X17233Y9680*
Y9569*
X17315*
Y8807*
X17268*
Y8682*
X17475*
Y7882*
X17288*
Y6294*
X17281Y6238*
X17259Y6186*
X17225Y6141*
X16744Y5661*
X16744Y5644*
X16731Y5554*
X16693Y5470*
X16633Y5401*
X16556Y5352*
X16468Y5326*
X16377*
X16289Y5352*
X16212Y5401*
X16152Y5470*
X16114Y5554*
X16101Y5644*
X16112Y5730*
X16147Y5810*
X16201Y5878*
X16271Y5928*
X16353Y5959*
X16439Y5966*
X16856Y6383*
Y7882*
X16625*
Y8682*
X16837*
Y8807*
X16042*
Y9569*
X16833*
Y9597*
X16773Y9657*
X16679*
X16602Y9672*
X16537Y9716*
X16304Y9949*
X16042*
Y10710*
X16567*
Y10251*
X16761Y10057*
X16790*
Y10710*
X16837*
Y10871*
X16834Y10874*
X16585*
Y11629*
X16535*
Y10874*
X15685*
Y11512*
X15617Y11468*
X15537Y11452*
X15298*
X15365Y11384*
X15409Y11299*
X15425Y11205*
X15414Y11110*
X15375Y11023*
X15313Y10951*
X15232Y10900*
X15309Y10853*
X15370Y10786*
X15410Y10705*
X15425Y10616*
X15416Y10527*
X15382Y10443*
X15326Y10372*
X15252Y10320*
X15324Y10268*
X15380Y10200*
X15414Y10118*
X15426Y10031*
X15412Y9943*
X15376Y9863*
X15319Y9795*
X15246Y9745*
X15332Y9738*
X15413Y9708*
X15483Y9657*
X15537Y9589*
X15571Y9510*
X15583Y9424*
X15570Y9332*
X15530Y9248*
X15469Y9178*
X15390Y9129*
X15300Y9104*
X15207Y9107*
X15119Y9135*
X15130Y9053*
X15120Y8971*
X15090Y8894*
X15041Y8827*
X15133Y8856*
X15230Y8856*
X15323Y8828*
X15403Y8773*
X15463Y8696*
X15497Y8606*
X15503Y8509*
X15480Y8415*
X15429Y8332*
X15356Y8267*
X15447Y8243*
X15527Y8195*
X15589Y8125*
X15629Y8040*
X15642Y7948*
X15629Y7857*
X15591Y7774*
X15531Y7705*
X15455Y7655*
X15367Y7629*
X15276Y7629*
X15188Y7654*
X15111Y7703*
X15093Y7605*
X15045Y7517*
X14973Y7448*
X14884Y7404*
X14785Y7389*
X14686Y7406*
X14598Y7452*
X14527Y7523*
X14482Y7613*
X14467Y7711*
X14481Y7806*
X14523Y7893*
X14589Y7964*
Y7983*
X14502Y8069*
Y7941*
X13652*
Y10277*
X14502*
Y10077*
X14592*
X14668Y10061*
X14733Y10018*
X14790Y9961*
X14782Y10045*
X14796Y10129*
X14832Y10206*
X14886Y10271*
X14955Y10320*
X14882Y10372*
X14826Y10443*
X14792Y10527*
X14782Y10616*
X14798Y10705*
X14838Y10786*
X14899Y10853*
X14976Y10900*
X14895Y10951*
X14832Y11023*
X14793Y11110*
X14782Y11205*
X14799Y11299*
X14843Y11384*
X14910Y11452*
X13481*
X13393Y11365*
Y10277*
X13602*
Y7941*
X12752*
Y10277*
X12962*
Y11454*
X12969Y11510*
X12991Y11562*
X13025Y11607*
X13239Y11821*
X13283Y11855*
X13335Y11876*
X13391Y11884*
X13442*
X13344Y11983*
X13266Y12097*
X13210Y12224*
X13176Y12359*
X13168Y12497*
X13184Y12635*
X12922Y12373*
X12857Y12330*
X12781Y12314*
X12674*
X12610Y12245*
X12703Y12223*
X12785Y12175*
X12850Y12105*
X12892Y12019*
X12906Y11924*
X12893Y11833*
X12855Y11750*
X12795Y11681*
X12718Y11631*
X12630Y11605*
X12538*
X12450Y11631*
X12373Y11681*
X12313Y11750*
X12275Y11833*
X12262Y11924*
X12276Y12018*
X12317Y12104*
X12381Y12174*
X12288Y12196*
X12206Y12244*
X12141Y12314*
X12099Y12400*
X12085Y12495*
X12099Y12590*
X12141Y12676*
X12206Y12746*
X12289Y12794*
X12382Y12816*
X12478Y12809*
X12567Y12774*
X12642Y12714*
X12698*
X13399Y13416*
Y14115*
X13249*
Y13271*
X12399*
Y14115*
X11008*
X11201Y13922*
X11288Y13938*
X11376Y13931*
X11459Y13899*
X11530Y13847*
X11584Y13776*
X11617Y13694*
X11626Y13606*
X11611Y13519*
X11699Y13543*
X11789Y13541*
X11875Y13514*
X11951Y13464*
X12010Y13395*
X12047Y13313*
X12059Y13223*
X12047Y13134*
X12010Y13051*
X11951Y12983*
X11876Y12933*
X11790Y12906*
X11700Y12904*
X11613Y12927*
X11535Y12973*
X11474Y13039*
X11108*
X11037Y13053*
X10978Y13093*
X10953Y13118*
X10649*
X10686Y13075*
X10709Y13023*
X10717Y12967*
Y12452*
X10783Y12381*
X10825Y12295*
X10839Y12200*
X10826Y12109*
X10788Y12026*
X10728Y11956*
X10651Y11907*
X10563Y11881*
X10471*
X10383Y11907*
X10306Y11956*
X10246Y12026*
X10208Y12109*
X10195Y12200*
X10210Y12295*
X10252Y12381*
X10317Y12452*
Y12907*
X10283Y12941*
X7514*
Y12252*
X6664*
Y12941*
X6614*
Y12252*
X5764*
Y12446*
X5693Y12383*
X5606Y12343*
X5511Y12330*
X5417Y12346*
X5331Y12389*
X5262Y12456*
X5216Y12539*
X5196Y12633*
X5204Y12728*
X5006*
X5042Y12669*
X5064Y12603*
X5071Y12534*
X5058Y12444*
X5020Y12360*
X4960Y12291*
X4883Y12241*
X4795Y12216*
X4704*
X4616Y12241*
X4539Y12291*
X4479Y12360*
X4441Y12444*
X4428Y12534*
X4436Y12608*
X4462Y12678*
X4502Y12740*
X4464Y12760*
X4431Y12786*
X4139Y13078*
X3374*
X3442Y12977*
X3484Y12862*
X3496Y12741*
X3479Y12620*
X3433Y12507*
X3360Y12408*
X7938Y5458D02*
X7889Y5364D01*
X7818Y5286*
X7729Y5227*
X7629Y5193*
X7523Y5185*
X7418Y5204*
X7322Y5249*
X7240Y5316*
X7177Y5401*
X7138Y5500*
X7124Y5605*
X7138Y5710*
X7177Y5809*
X7240Y5894*
X7322Y5961*
X7418Y6006*
X7523Y6025*
X7629Y6017*
X7729Y5983*
X7818Y5925*
X7889Y5846*
X7938Y5752*
X7992Y5852*
X8070Y5933*
X8167Y5991*
X8276Y6021*
X8389*
X8497Y5991*
X8594Y5933*
X8672Y5852*
X8726Y5752*
X8779Y5852*
X8857Y5933*
X8954Y5991*
X9063Y6021*
X9176*
X9285Y5991*
X9382Y5933*
X9460Y5852*
X9513Y5752*
X9567Y5852*
X9645Y5933*
X9741Y5991*
X9850Y6021*
X9963*
X10072Y5991*
X10169Y5933*
X10247Y5852*
X10301Y5752*
X10350Y5846*
X10421Y5924*
X10510Y5983*
X10610Y6017*
X10716Y6025*
X10820Y6006*
X10916Y5962*
X10999Y5895*
X11061Y5810*
Y6025*
X11902*
Y5185*
X11061*
Y5400*
X10999Y5315*
X10916Y5248*
X10820Y5204*
X10716Y5185*
X10610Y5193*
X10510Y5227*
X10421Y5286*
X10350Y5364*
X10301Y5458*
X10247Y5358*
X10169Y5277*
X10072Y5219*
X9963Y5189*
X9850*
X9742Y5219*
X9645Y5277*
X9567Y5358*
X9513Y5458*
X9460Y5358*
X9382Y5277*
X9285Y5219*
X9176Y5189*
X9063*
X8954Y5219*
X8857Y5277*
X8779Y5358*
X8726Y5458*
X8672Y5358*
X8594Y5277*
X8497Y5219*
X8389Y5189*
X8276*
X8167Y5219*
X8070Y5277*
X7992Y5358*
X7938Y5458*
X11705Y12681D02*
Y11831D01*
X10905*
Y12681*
X11705*
X11928Y8243D02*
X11941Y8334D01*
X11979Y8417*
X12039Y8486*
X12116Y8536*
X12204Y8561*
X12295*
X12383Y8536*
X12460Y8486*
X12520Y8417*
X12558Y8334*
X12571Y8243*
X12558Y8152*
X12520Y8069*
X12460Y8000*
X12383Y7950*
X12295Y7924*
X12204*
X12116Y7950*
X12039Y8000*
X11979Y8069*
X11941Y8152*
X11928Y8243*
Y9326D02*
X11941Y9416D01*
X11979Y9500*
X12039Y9569*
X12116Y9618*
X12204Y9644*
X12295*
X12383Y9618*
X12460Y9569*
X12520Y9500*
X12558Y9416*
X12571Y9326*
X12558Y9235*
X12520Y9151*
X12460Y9082*
X12383Y9033*
X12295Y9007*
X12204*
X12116Y9033*
X12039Y9082*
X11979Y9151*
X11941Y9235*
X11928Y9326*
Y10290D02*
X11941Y10381D01*
X11979Y10464*
X12039Y10533*
X12116Y10583*
X12204Y10609*
X12295*
X12383Y10583*
X12460Y10533*
X12520Y10464*
X12558Y10381*
X12571Y10290*
X12558Y10199*
X12520Y10116*
X12460Y10047*
X12383Y9997*
X12295Y9971*
X12204*
X12116Y9997*
X12039Y10047*
X11979Y10116*
X11941Y10199*
X11928Y10290*
X12065Y11215D02*
X12078Y11306D01*
X12116Y11389*
X12176Y11459*
X12254Y11508*
X12341Y11534*
X12433*
X12521Y11508*
X12598Y11459*
X12658Y11389*
X12696Y11306*
X12709Y11215*
X12696Y11125*
X12658Y11041*
X12598Y10972*
X12521Y10923*
X12433Y10897*
X12341*
X12254Y10922*
X12176Y10972*
X12116Y11041*
X12078Y11125*
X12065Y11215*
X13942Y5992D02*
X13791Y6007D01*
X13646Y6051*
X13512Y6122*
X13395Y6219*
X13298Y6336*
X13227Y6470*
X13183Y6615*
X13168Y6766*
X13183Y6918*
X13227Y7063*
X13298Y7197*
X13395Y7314*
X13512Y7410*
X13646Y7482*
X13791Y7526*
X13942Y7541*
X14093Y7526*
X14239Y7482*
X14373Y7411*
X14490Y7314*
X14586Y7197*
X14658Y7063*
X14702Y6918*
X14717Y6766*
X14702Y6615*
X14658Y6470*
X14586Y6336*
X14490Y6219*
X14373Y6122*
X14239Y6051*
X14093Y6007*
X13942Y5992*
X15725Y8682D02*
X16575D01*
Y7882*
X15725*
Y8682*
X16275Y6189D02*
X16146Y6203D01*
X16024Y6246*
X15915Y6315*
X15823Y6406*
X15754Y6516*
X15712Y6638*
X15697Y6766*
X15712Y6895*
X15754Y7017*
X15823Y7127*
X15915Y7218*
X16024Y7287*
X16146Y7330*
X16275Y7344*
X16404Y7330*
X16526Y7287*
X16635Y7218*
X16727Y7127*
X16796Y7017*
X16838Y6895*
X16853Y6766*
X16838Y6638*
X16796Y6516*
X16727Y6406*
X16635Y6315*
X16526Y6246*
X16404Y6203*
X16275Y6189*
X5919Y4819D02*
X6257D01*
X6785D02*
X8810D01*
X5970Y4867D02*
X6206D01*
X6836D02*
X8811D01*
X6008Y4915D02*
X6168D01*
X6874D02*
X8817D01*
X5209Y4963D02*
X5274D01*
X6036D02*
X6140D01*
X6902D02*
X8834D01*
X5209Y5011D02*
X5254D01*
X6056D02*
X6120D01*
X6922D02*
X8864D01*
X5209Y5060D02*
X5240D01*
X6070D02*
X6106D01*
X6936D02*
X8914D01*
X5209Y5108D02*
X5232D01*
X6078D02*
X6098D01*
X6944D02*
X17511D01*
X5209Y5156D02*
X5230D01*
X6080D02*
X6096D01*
X6946D02*
X17511D01*
X5209Y5204D02*
X5233D01*
X6077D02*
X6099D01*
X6943D02*
X7420D01*
X7669D02*
X8208D01*
X8457D02*
X8995D01*
X9244D02*
X9782D01*
X10031D02*
X10570D01*
X10819D02*
X11061D01*
X11902D02*
X17511D01*
X5209Y5252D02*
X5242D01*
X6068D02*
X6108D01*
X6934D02*
X7317D01*
X7772D02*
X8105D01*
X8560D02*
X8892D01*
X9347D02*
X9679D01*
X10134D02*
X10467D01*
X10922D02*
X11061D01*
X11902D02*
X17511D01*
X5209Y5300D02*
X5256D01*
X6054D02*
X6122D01*
X6920D02*
X7256D01*
X7833D02*
X8043D01*
X8621D02*
X8831D01*
X9408D02*
X9618D01*
X10196D02*
X10406D01*
X10983D02*
X11061D01*
X11902D02*
X17511D01*
X5209Y5348D02*
X5278D01*
X6032D02*
X6144D01*
X6898D02*
X7212D01*
X7877D02*
X8000D01*
X8664D02*
X8787D01*
X9452D02*
X9575D01*
X10239D02*
X10362D01*
X11027D02*
X11061D01*
X11902D02*
X12911D01*
X13162D02*
X16298D01*
X16547D02*
X17511D01*
X5209Y5396D02*
X5307D01*
X6003D02*
X6173D01*
X6869D02*
X7180D01*
X7909D02*
X7968D01*
X8697D02*
X8755D01*
X9484D02*
X9542D01*
X10271D02*
X10330D01*
X11059D02*
X11061D01*
X11902D02*
X12832D01*
X13242D02*
X16218D01*
X16627D02*
X17511D01*
X5209Y5444D02*
X5346D01*
X5964D02*
X6212D01*
X6830D02*
X7157D01*
X7933D02*
X7944D01*
X8720D02*
X8731D01*
X9508D02*
X9519D01*
X10295D02*
X10306D01*
X11902D02*
X12785D01*
X13289D02*
X16171D01*
X16674D02*
X17511D01*
X5209Y5492D02*
X5345D01*
X5965D02*
X6211D01*
X6831D02*
X7140D01*
X11902D02*
X12753D01*
X13321D02*
X16139D01*
X16706D02*
X17511D01*
X5209Y5540D02*
X5306D01*
X6004D02*
X6172D01*
X6870D02*
X7129D01*
X11902D02*
X12721D01*
X13342D02*
X16118D01*
X16727D02*
X17511D01*
X5167Y5588D02*
X5277D01*
X6033D02*
X6143D01*
X6899D02*
X7125D01*
X11902D02*
X12673D01*
X13354D02*
X16106D01*
X16739D02*
X17511D01*
X5188Y5636D02*
X5256D01*
X6054D02*
X6122D01*
X6920D02*
X7126D01*
X11902D02*
X12625D01*
X13359D02*
X16101D01*
X16744D02*
X17511D01*
X5202Y5684D02*
X5241D01*
X6068D02*
X6108D01*
X6935D02*
X7132D01*
X11902D02*
X12577D01*
X13357D02*
X16103D01*
X16767D02*
X17511D01*
X5211Y5732D02*
X5233D01*
X6077D02*
X6099D01*
X6943D02*
X7144D01*
X11902D02*
X12529D01*
X13347D02*
X16113D01*
X16815D02*
X17511D01*
X5214Y5780D02*
X5230D01*
X6080D02*
X6096D01*
X6946D02*
X7163D01*
X7927D02*
X7950D01*
X8714D02*
X8737D01*
X9502D02*
X9525D01*
X10289D02*
X10312D01*
X11902D02*
X12481D01*
X13329D02*
X16131D01*
X16863D02*
X17511D01*
X5211Y5828D02*
X5232D01*
X6077D02*
X6099D01*
X6944D02*
X7188D01*
X7901D02*
X7976D01*
X8688D02*
X8763D01*
X9476D02*
X9551D01*
X10263D02*
X10338D01*
X11051D02*
X11061D01*
X11902D02*
X12433D01*
X13301D02*
X16158D01*
X16911D02*
X17511D01*
X5203Y5876D02*
X5240D01*
X6069D02*
X6107D01*
X6936D02*
X7223D01*
X7866D02*
X8011D01*
X8653D02*
X8798D01*
X9441D02*
X9586D01*
X10228D02*
X10373D01*
X11016D02*
X11061D01*
X11902D02*
X12385D01*
X13261D02*
X16199D01*
X16959D02*
X17511D01*
X5189Y5924D02*
X5254D01*
X6056D02*
X6120D01*
X6922D02*
X7271D01*
X7818D02*
X8059D01*
X8606D02*
X8846D01*
X9393D02*
X9633D01*
X10180D02*
X10421D01*
X10968D02*
X11061D01*
X11902D02*
X12336D01*
X13197D02*
X16263D01*
X17007D02*
X17511D01*
X5169Y5972D02*
X5275D01*
X6035D02*
X6141D01*
X6901D02*
X7340D01*
X7749D02*
X8127D01*
X8537D02*
X8915D01*
X9324D02*
X9702D01*
X10112D02*
X10490D01*
X10899D02*
X11061D01*
X11902D02*
X12288D01*
X12854D02*
X16445D01*
X17055D02*
X17511D01*
X5141Y6020D02*
X5303D01*
X6007D02*
X6169D01*
X6873D02*
X7479D01*
X7610D02*
X8266D01*
X8398D02*
X9054D01*
X9185D02*
X9841D01*
X9973D02*
X10629D01*
X10760D02*
X11061D01*
X11902D02*
X12240D01*
X12806D02*
X13735D01*
X14150D02*
X16493D01*
X17104D02*
X17511D01*
X5103Y6068D02*
X5341D01*
X5969D02*
X6207D01*
X6835D02*
X6982D01*
X12758D02*
X13607D01*
X14278D02*
X16541D01*
X17152D02*
X17511D01*
X5110Y6116D02*
X5392D01*
X5918D02*
X6258D01*
X6784D02*
X6928D01*
X12710D02*
X13521D01*
X14363D02*
X16589D01*
X17200D02*
X17511D01*
X5158Y6164D02*
X5469D01*
X5841D02*
X6335D01*
X6707D02*
X6880D01*
X12662D02*
X13455D01*
X14430D02*
X16637D01*
X17245D02*
X17511D01*
X5206Y6212D02*
X6832D01*
X12614D02*
X13401D01*
X14484D02*
X16112D01*
X16438D02*
X16685D01*
X17272D02*
X17511D01*
X5254Y6260D02*
X6784D01*
X12566D02*
X13356D01*
X14529D02*
X15996D01*
X16554D02*
X16733D01*
X17285D02*
X17511D01*
X5303Y6308D02*
X5439D01*
X5753D02*
X6736D01*
X12518D02*
X13318D01*
X14567D02*
X15923D01*
X16627D02*
X16781D01*
X17288D02*
X17511D01*
X5351Y6356D02*
X5374D01*
X5818D02*
X6688D01*
X12470D02*
X13285D01*
X14599D02*
X15868D01*
X16682D02*
X16829D01*
X17288D02*
X17511D01*
X5859Y6404D02*
X6640D01*
X12415D02*
X13258D01*
X14627D02*
X15825D01*
X16725D02*
X16856D01*
X17288D02*
X17511D01*
X5887Y6452D02*
X6592D01*
X7157D02*
X11182D01*
X11781D02*
X13234D01*
X14650D02*
X15790D01*
X16760D02*
X16856D01*
X17288D02*
X17511D01*
X5905Y6500D02*
X6544D01*
X7109D02*
X11167D01*
X11796D02*
X13215D01*
X14670D02*
X15762D01*
X16788D02*
X16856D01*
X17288D02*
X17511D01*
X5915Y6549D02*
X6496D01*
X7061D02*
X11161D01*
X11803D02*
X13199D01*
X14686D02*
X15740D01*
X16810D02*
X16856D01*
X17288D02*
X17511D01*
X5918Y6597D02*
X6448D01*
X7013D02*
X11161D01*
X11802D02*
X13187D01*
X14698D02*
X15723D01*
X16827D02*
X16856D01*
X17288D02*
X17511D01*
X5913Y6645D02*
X6399D01*
X6965D02*
X11169D01*
X11795D02*
X13177D01*
X14707D02*
X15710D01*
X16840D02*
X16856D01*
X17288D02*
X17511D01*
X6917Y6693D02*
X11184D01*
X11779D02*
X13171D01*
X14713D02*
X15702D01*
X16848D02*
X16856D01*
X17288D02*
X17511D01*
X6869Y6741D02*
X11209D01*
X11754D02*
X13168D01*
X14716D02*
X15698D01*
X16852D02*
X16856D01*
X17288D02*
X17511D01*
X6821Y6789D02*
X11246D01*
X11717D02*
X13168D01*
X14717D02*
X15698D01*
X16852D02*
X16856D01*
X17288D02*
X17511D01*
X6773Y6837D02*
X7478D01*
X7690D02*
X8417D01*
X8720D02*
X11302D01*
X11661D02*
X13171D01*
X14714D02*
X15702D01*
X16848D02*
X16856D01*
X17288D02*
X17511D01*
X6725Y6885D02*
X7389D01*
X7779D02*
X8350D01*
X8787D02*
X9446D01*
X9580D02*
X9957D01*
X10290D02*
X11416D01*
X11547D02*
X13177D01*
X14708D02*
X15709D01*
X16841D02*
X16856D01*
X17288D02*
X17511D01*
X6677Y6933D02*
X7338D01*
X7830D02*
X8307D01*
X8830D02*
X9333D01*
X9693D02*
X9896D01*
X10351D02*
X13186D01*
X14699D02*
X15722D01*
X16828D02*
X16856D01*
X17288D02*
X17511D01*
X6629Y6981D02*
X7305D01*
X7864D02*
X8279D01*
X8858D02*
X9277D01*
X9749D02*
X9856D01*
X10391D02*
X13198D01*
X14687D02*
X15738D01*
X16812D02*
X16856D01*
X17288D02*
X17511D01*
X6561Y7029D02*
X7282D01*
X7886D02*
X8260D01*
X8877D02*
X9240D01*
X9786D02*
X9830D01*
X10417D02*
X13214D01*
X14671D02*
X15760D01*
X16790D02*
X16856D01*
X17288D02*
X17511D01*
X6021Y7077D02*
X7269D01*
X7900D02*
X8249D01*
X8887D02*
X9216D01*
X9811D02*
X9813D01*
X10434D02*
X13233D01*
X14652D02*
X15788D01*
X16762D02*
X16856D01*
X17288D02*
X17511D01*
X5973Y7125D02*
X6812D01*
X6978D02*
X7263D01*
X7906D02*
X8246D01*
X8890D02*
X9200D01*
X10443D02*
X13256D01*
X14629D02*
X15822D01*
X16728D02*
X16856D01*
X17288D02*
X17511D01*
X5924Y7173D02*
X6055D01*
X6278D02*
X6709D01*
X7081D02*
X7264D01*
X7904D02*
X8251D01*
X8886D02*
X9192D01*
X10445D02*
X13283D01*
X14602D02*
X15864D01*
X16686D02*
X16856D01*
X17288D02*
X17511D01*
X5290Y7221D02*
X5296D01*
X5816D02*
X5969D01*
X6365D02*
X6655D01*
X7135D02*
X7272D01*
X8226D02*
X8262D01*
X8874D02*
X9192D01*
X10439D02*
X13315D01*
X14570D02*
X15918D01*
X16632D02*
X16856D01*
X17288D02*
X17511D01*
X5338Y7269D02*
X5919D01*
X6414D02*
X6620D01*
X7170D02*
X7289D01*
X8854D02*
X9199D01*
X10426D02*
X13353D01*
X14532D02*
X15990D01*
X16560D02*
X16856D01*
X17288D02*
X17511D01*
X5386Y7317D02*
X5886D01*
X6447D02*
X6596D01*
X7194D02*
X7315D01*
X8823D02*
X9214D01*
X10404D02*
X13397D01*
X14487D02*
X16100D01*
X16450D02*
X16856D01*
X17288D02*
X17511D01*
X5434Y7365D02*
X5864D01*
X6477D02*
X6581D01*
X7209D02*
X7354D01*
X8351D02*
X8359D01*
X8778D02*
X9237D01*
X10372D02*
X13451D01*
X14434D02*
X16856D01*
X17288D02*
X17511D01*
X5482Y7413D02*
X5851D01*
X6525D02*
X6574D01*
X7216D02*
X7413D01*
X8368D02*
X8434D01*
X8703D02*
X9272D01*
X10322D02*
X13516D01*
X14369D02*
X14668D01*
X14910D02*
X16856D01*
X17288D02*
X17511D01*
X5530Y7461D02*
X5845D01*
X6573D02*
X6574D01*
X7216D02*
X7556D01*
X7612D02*
X7736D01*
X8377D02*
X9111D01*
X10861D02*
X13600D01*
X14285D02*
X14586D01*
X14991D02*
X16856D01*
X17288D02*
X17511D01*
X5578Y7509D02*
X5846D01*
X7208D02*
X7735D01*
X8378D02*
X9111D01*
X10861D02*
X13722D01*
X14162D02*
X14538D01*
X15039D02*
X16856D01*
X17288D02*
X17511D01*
X5622Y7557D02*
X5855D01*
X7193D02*
X7741D01*
X8402D02*
X9111D01*
X10861D02*
X14506D01*
X15071D02*
X16856D01*
X17288D02*
X17511D01*
X5647Y7605D02*
X5872D01*
X7169D02*
X7754D01*
X8450D02*
X9111D01*
X10861D02*
X14485D01*
X15093D02*
X16856D01*
X17288D02*
X17511D01*
X5657Y7653D02*
X5898D01*
X7132D02*
X7776D01*
X8493D02*
X8966D01*
X10861D02*
X14472D01*
X15105D02*
X15190D01*
X15451D02*
X16856D01*
X17288D02*
X17511D01*
X5658Y7701D02*
X5937D01*
X7095D02*
X7810D01*
X8518D02*
X8906D01*
X10861D02*
X14467D01*
X15110D02*
X15113D01*
X15527D02*
X16856D01*
X17288D02*
X17511D01*
X5658Y7749D02*
X5998D01*
X7095D02*
X7859D01*
X8528D02*
X8858D01*
X10861D02*
X14469D01*
X15574D02*
X16856D01*
X17288D02*
X17511D01*
X5658Y7797D02*
X5910D01*
X7854D02*
X7904D01*
X8754D02*
X8810D01*
X10861D02*
X14479D01*
X15605D02*
X16856D01*
X17288D02*
X17511D01*
X5658Y7845D02*
X5853D01*
X7854D02*
X7904D01*
X8754D02*
X8762D01*
X10861D02*
X14496D01*
X15625D02*
X16856D01*
X17288D02*
X17511D01*
X5658Y7893D02*
X5816D01*
X7854D02*
X7904D01*
X10861D02*
X14523D01*
X15638D02*
X15725D01*
X16575D02*
X16625D01*
X17475D02*
X17511D01*
X5658Y7941D02*
X5791D01*
X7854D02*
X7904D01*
X10861D02*
X12137D01*
X12362D02*
X12752D01*
X13602D02*
X13652D01*
X14502D02*
X14564D01*
X15642D02*
X15725D01*
X16575D02*
X16625D01*
X17475D02*
X17511D01*
X5658Y7989D02*
X5775D01*
X7854D02*
X7904D01*
X10861D02*
X12051D01*
X12448D02*
X12752D01*
X13602D02*
X13652D01*
X14502D02*
X14582D01*
X15639D02*
X15725D01*
X16575D02*
X16625D01*
X17475D02*
X17511D01*
X5658Y8037D02*
X5767D01*
X7854D02*
X7904D01*
X10861D02*
X10956D01*
X11259D02*
X12002D01*
X12497D02*
X12752D01*
X13602D02*
X13652D01*
X14502D02*
X14534D01*
X15629D02*
X15725D01*
X16575D02*
X16625D01*
X17475D02*
X17511D01*
X5658Y8086D02*
X5767D01*
X7854D02*
X7904D01*
X9087D02*
X9111D01*
X10861D02*
X10889D01*
X11326D02*
X11969D01*
X12530D02*
X12752D01*
X13602D02*
X13652D01*
X15611D02*
X15725D01*
X16575D02*
X16625D01*
X17475D02*
X17511D01*
X5658Y8134D02*
X5773D01*
X7854D02*
X7904D01*
X9039D02*
X9111D01*
X11369D02*
X11947D01*
X12552D02*
X12752D01*
X13602D02*
X13652D01*
X15583D02*
X15725D01*
X16575D02*
X16625D01*
X17475D02*
X17511D01*
X5658Y8182D02*
X5788D01*
X7854D02*
X7904D01*
X8991D02*
X9111D01*
X11397D02*
X11933D01*
X12565D02*
X12752D01*
X13602D02*
X13652D01*
X15541D02*
X15725D01*
X16575D02*
X16625D01*
X17475D02*
X17511D01*
X5658Y8230D02*
X5811D01*
X7854D02*
X7904D01*
X8943D02*
X9126D01*
X11416D02*
X11928D01*
X12571D02*
X12752D01*
X13602D02*
X13652D01*
X15475D02*
X15725D01*
X16575D02*
X16625D01*
X17475D02*
X17511D01*
X5658Y8278D02*
X5846D01*
X7854D02*
X7904D01*
X8895D02*
X9029D01*
X11427D02*
X11929D01*
X12569D02*
X12752D01*
X13602D02*
X13652D01*
X15372D02*
X15725D01*
X16575D02*
X16625D01*
X17475D02*
X17511D01*
X5658Y8326D02*
X5898D01*
X7854D02*
X7904D01*
X8847D02*
X8976D01*
X11430D02*
X11938D01*
X12560D02*
X12752D01*
X13602D02*
X13652D01*
X15424D02*
X15725D01*
X16575D02*
X16625D01*
X17475D02*
X17511D01*
X5658Y8374D02*
X5995D01*
X7854D02*
X7904D01*
X8769D02*
X8941D01*
X11425D02*
X11955D01*
X12543D02*
X12752D01*
X13602D02*
X13652D01*
X15459D02*
X15725D01*
X16575D02*
X16625D01*
X17475D02*
X17511D01*
X5658Y8422D02*
X5978D01*
X7854D02*
X7904D01*
X8754D02*
X8918D01*
X11414D02*
X11982D01*
X12517D02*
X12752D01*
X13602D02*
X13652D01*
X15483D02*
X15725D01*
X16575D02*
X16625D01*
X17475D02*
X17511D01*
X5658Y8470D02*
X5918D01*
X7854D02*
X7904D01*
X8754D02*
X8903D01*
X11393D02*
X12021D01*
X12478D02*
X12752D01*
X13602D02*
X13652D01*
X15497D02*
X15725D01*
X16575D02*
X16625D01*
X17475D02*
X17511D01*
X5658Y8518D02*
X5879D01*
X7854D02*
X7904D01*
X8754D02*
X8897D01*
X11363D02*
X12082D01*
X12417D02*
X12752D01*
X13602D02*
X13652D01*
X15504D02*
X15725D01*
X16575D02*
X16625D01*
X17475D02*
X17511D01*
X5658Y8566D02*
X5853D01*
X7854D02*
X7904D01*
X8754D02*
X8897D01*
X9539D02*
X9771D01*
X9964D02*
X10898D01*
X11317D02*
X12752D01*
X13602D02*
X13652D01*
X15503D02*
X15725D01*
X16575D02*
X16625D01*
X17475D02*
X17511D01*
X5658Y8614D02*
X5836D01*
X7854D02*
X7904D01*
X8754D02*
X8905D01*
X9531D02*
X9676D01*
X10059D02*
X10973D01*
X11242D02*
X12752D01*
X13602D02*
X13652D01*
X15495D02*
X15725D01*
X16575D02*
X16625D01*
X17475D02*
X17511D01*
X5658Y8662D02*
X5827D01*
X7854D02*
X7904D01*
X8754D02*
X8921D01*
X9515D02*
X9624D01*
X10111D02*
X12752D01*
X13602D02*
X13652D01*
X15480D02*
X15725D01*
X16575D02*
X16625D01*
X17475D02*
X17511D01*
X5676Y8710D02*
X5826D01*
X7854D02*
X7904D01*
X8754D02*
X8946D01*
X9490D02*
X9590D01*
X10145D02*
X12752D01*
X13602D02*
X13652D01*
X15455D02*
X16837D01*
X17268D02*
X17511D01*
X5725Y8758D02*
X5831D01*
X7854D02*
X7904D01*
X8754D02*
X8983D01*
X9453D02*
X9567D01*
X10168D02*
X12752D01*
X13602D02*
X13652D01*
X15418D02*
X16837D01*
X17268D02*
X17511D01*
X5773Y8806D02*
X5845D01*
X7854D02*
X7904D01*
X8754D02*
X9039D01*
X9396D02*
X9553D01*
X10182D02*
X12752D01*
X13602D02*
X13652D01*
X15361D02*
X16837D01*
X17268D02*
X17511D01*
X5821Y8854D02*
X5867D01*
X7854D02*
X7904D01*
X8754D02*
X9156D01*
X9279D02*
X9546D01*
X10189D02*
X12752D01*
X13602D02*
X13652D01*
X15064D02*
X15121D01*
X15244D02*
X16042D01*
X17315D02*
X17511D01*
X5869Y8902D02*
X5900D01*
X7854D02*
X7904D01*
X8754D02*
X9547D01*
X10188D02*
X12752D01*
X13602D02*
X13652D01*
X15094D02*
X16042D01*
X17315D02*
X17511D01*
X5917Y8950D02*
X5950D01*
X7854D02*
X7904D01*
X8754D02*
X9555D01*
X10180D02*
X10438D01*
X10557D02*
X12752D01*
X13602D02*
X13652D01*
X15114D02*
X16042D01*
X17315D02*
X17511D01*
X7854Y8998D02*
X7904D01*
X8754D02*
X9571D01*
X10164D02*
X10320D01*
X10675D02*
X12752D01*
X13602D02*
X13652D01*
X15126D02*
X16042D01*
X17315D02*
X17511D01*
X7854Y9046D02*
X7904D01*
X8754D02*
X9596D01*
X10139D02*
X10263D01*
X10732D02*
X12090D01*
X12409D02*
X12752D01*
X13602D02*
X13652D01*
X15130D02*
X16042D01*
X17315D02*
X17511D01*
X7854Y9094D02*
X7904D01*
X8754D02*
X9634D01*
X10101D02*
X10226D01*
X10769D02*
X12026D01*
X12473D02*
X12752D01*
X13602D02*
X13652D01*
X15127D02*
X16042D01*
X17315D02*
X17511D01*
X7854Y9142D02*
X7904D01*
X8754D02*
X9668D01*
X10068D02*
X10201D01*
X10794D02*
X11985D01*
X12514D02*
X12752D01*
X13602D02*
X13652D01*
X15417D02*
X16042D01*
X17315D02*
X17511D01*
X7854Y9190D02*
X7904D01*
X8754D02*
X9668D01*
X10068D02*
X10185D01*
X10810D02*
X11957D01*
X12541D02*
X12752D01*
X13602D02*
X13652D01*
X15483D02*
X16042D01*
X17315D02*
X17511D01*
X7854Y9238D02*
X7904D01*
X8754D02*
X9668D01*
X10068D02*
X10177D01*
X10818D02*
X11940D01*
X12559D02*
X12752D01*
X13602D02*
X13652D01*
X15524D02*
X16042D01*
X17315D02*
X17511D01*
X7854Y9286D02*
X7904D01*
X8754D02*
X9668D01*
X10068D02*
X10176D01*
X10819D02*
X11930D01*
X12569D02*
X12752D01*
X13602D02*
X13652D01*
X15552D02*
X16042D01*
X17315D02*
X17511D01*
X8866Y9334D02*
X9668D01*
X10068D02*
X10183D01*
X10812D02*
X11928D01*
X12571D02*
X12752D01*
X13602D02*
X13652D01*
X15570D02*
X16042D01*
X17315D02*
X17511D01*
X8923Y9382D02*
X9668D01*
X10068D02*
X10197D01*
X10798D02*
X11933D01*
X12566D02*
X12752D01*
X13602D02*
X13652D01*
X15580D02*
X16042D01*
X17315D02*
X17511D01*
X8959Y9430D02*
X9668D01*
X10068D02*
X10220D01*
X10774D02*
X11945D01*
X12554D02*
X12752D01*
X13602D02*
X13652D01*
X15583D02*
X16042D01*
X17315D02*
X17511D01*
X8984Y9478D02*
X9668D01*
X10068D02*
X10255D01*
X10740D02*
X11966D01*
X12533D02*
X12752D01*
X13602D02*
X13652D01*
X15578D02*
X16042D01*
X17315D02*
X17511D01*
X8999Y9526D02*
X9668D01*
X10115D02*
X10297D01*
X10697D02*
X11998D01*
X12501D02*
X12752D01*
X13602D02*
X13652D01*
X15566D02*
X16042D01*
X17315D02*
X17511D01*
X9007Y9574D02*
X9668D01*
X10163D02*
X10297D01*
X10697D02*
X12045D01*
X12453D02*
X12752D01*
X13602D02*
X13652D01*
X15546D02*
X16833D01*
X17233D02*
X17511D01*
X9008Y9623D02*
X9677D01*
X10211D02*
X10297D01*
X10697D02*
X12125D01*
X12373D02*
X12752D01*
X13602D02*
X13652D01*
X15515D02*
X16807D01*
X17233D02*
X17511D01*
X9001Y9671D02*
X9700D01*
X10259D02*
X10297D01*
X10697D02*
X12752D01*
X13602D02*
X13652D01*
X15468D02*
X16606D01*
X17233D02*
X17511D01*
X8986Y9719D02*
X9742D01*
X10721D02*
X12752D01*
X13602D02*
X13652D01*
X15391D02*
X16534D01*
X17229D02*
X17511D01*
X8962Y9767D02*
X9790D01*
X10769D02*
X12752D01*
X13602D02*
X13652D01*
X15283D02*
X16486D01*
X17213D02*
X17511D01*
X8002Y9815D02*
X8446D01*
X8927D02*
X9838D01*
X10814D02*
X12752D01*
X13602D02*
X13652D01*
X15339D02*
X16438D01*
X17181D02*
X17511D01*
X7949Y9863D02*
X8499D01*
X8874D02*
X9886D01*
X10857D02*
X12752D01*
X13602D02*
X13652D01*
X15376D02*
X16390D01*
X17133D02*
X17511D01*
X7590Y9911D02*
X7673D01*
X7849D02*
X8599D01*
X8774D02*
X9934D01*
X10905D02*
X12752D01*
X13602D02*
X13652D01*
X15401D02*
X16342D01*
X17085D02*
X17511D01*
X7590Y9959D02*
X9963D01*
X10937D02*
X12752D01*
X13602D02*
X13652D01*
X15417D02*
X16042D01*
X17315D02*
X17511D01*
X7583Y10007D02*
X9963D01*
X10959D02*
X12097D01*
X12402D02*
X12752D01*
X13602D02*
X13652D01*
X14745D02*
X14783D01*
X15424D02*
X16042D01*
X17315D02*
X17511D01*
X7890Y10055D02*
X9963D01*
X10971D02*
X12030D01*
X12469D02*
X12752D01*
X13602D02*
X13652D01*
X14683D02*
X14783D01*
X15425D02*
X16042D01*
X17315D02*
X17511D01*
X7950Y10103D02*
X9963D01*
X10977D02*
X11988D01*
X12511D02*
X12752D01*
X13602D02*
X13652D01*
X14502D02*
X14789D01*
X15418D02*
X16042D01*
X16716D02*
X16790D01*
X17315D02*
X17511D01*
X7990Y10151D02*
X9963D01*
X10975D02*
X11959D01*
X12540D02*
X12752D01*
X13602D02*
X13652D01*
X14502D02*
X14804D01*
X15404D02*
X16042D01*
X16668D02*
X16790D01*
X17315D02*
X17511D01*
X8016Y10199D02*
X9958D01*
X11251D02*
X11941D01*
X12558D02*
X12752D01*
X13602D02*
X13652D01*
X14502D02*
X14827D01*
X15380D02*
X16042D01*
X16619D02*
X16790D01*
X17315D02*
X17511D01*
X8033Y10247D02*
X9911D01*
X11322D02*
X11930D01*
X12568D02*
X12752D01*
X13602D02*
X13652D01*
X14502D02*
X14862D01*
X15345D02*
X16042D01*
X16571D02*
X16790D01*
X17315D02*
X17511D01*
X8042Y10295D02*
X9486D01*
X9659D02*
X9879D01*
X11366D02*
X11928D01*
X12571D02*
X12962D01*
X13393D02*
X14915D01*
X15292D02*
X16042D01*
X16567D02*
X16790D01*
X17315D02*
X17511D01*
X8043Y10343D02*
X9385D01*
X9759D02*
X9858D01*
X11396D02*
X11932D01*
X12567D02*
X12962D01*
X13393D02*
X14917D01*
X15291D02*
X16042D01*
X16567D02*
X16790D01*
X17315D02*
X17511D01*
X8038Y10391D02*
X8061D01*
X8328D02*
X9332D01*
X9813D02*
X9846D01*
X10480D02*
X10493D01*
X11415D02*
X11944D01*
X12555D02*
X12962D01*
X13393D02*
X14863D01*
X15344D02*
X16042D01*
X16567D02*
X16790D01*
X17315D02*
X17511D01*
X8403Y10439D02*
X8850D01*
X9153D02*
X9296D01*
X10485D02*
X10789D01*
X11426D02*
X11964D01*
X12535D02*
X12962D01*
X13393D02*
X14828D01*
X15379D02*
X16042D01*
X16567D02*
X16790D01*
X17315D02*
X17511D01*
X8449Y10487D02*
X8783D01*
X9220D02*
X9273D01*
X10482D02*
X10786D01*
X11430D02*
X11995D01*
X12504D02*
X12962D01*
X13393D02*
X14804D01*
X15403D02*
X16042D01*
X16567D02*
X16790D01*
X17315D02*
X17511D01*
X8480Y10535D02*
X8740D01*
X10472D02*
X10789D01*
X11439D02*
X12041D01*
X12458D02*
X12962D01*
X13393D02*
X14790D01*
X15418D02*
X16042D01*
X16567D02*
X16790D01*
X17315D02*
X17511D01*
X8500Y10583D02*
X8712D01*
X10455D02*
X10801D01*
X11477D02*
X12116D01*
X12382D02*
X12962D01*
X13393D02*
X14783D01*
X15425D02*
X16042D01*
X16567D02*
X16790D01*
X17315D02*
X17511D01*
X8512Y10631D02*
X8693D01*
X10427D02*
X10820D01*
X11497D02*
X12962D01*
X13393D02*
X14783D01*
X15425D02*
X16042D01*
X16567D02*
X16790D01*
X17315D02*
X17511D01*
X8516Y10679D02*
X8683D01*
X10386D02*
X10850D01*
X11505D02*
X12962D01*
X13393D02*
X14791D01*
X15417D02*
X16042D01*
X16567D02*
X16790D01*
X17315D02*
X17511D01*
X8513Y10727D02*
X8680D01*
X10322D02*
X10894D01*
X11505D02*
X12962D01*
X13393D02*
X14806D01*
X15401D02*
X16837D01*
X17268D02*
X17511D01*
X8503Y10775D02*
X8684D01*
X10211D02*
X10965D01*
X11505D02*
X12962D01*
X13393D02*
X14831D01*
X15377D02*
X16837D01*
X17268D02*
X17511D01*
X10265Y10823D02*
X11105D01*
X11505D02*
X12962D01*
X13393D02*
X14867D01*
X15340D02*
X16837D01*
X17268D02*
X17511D01*
X10300Y10871D02*
X11105D01*
X11505D02*
X12962D01*
X13393D02*
X14923D01*
X15284D02*
X16836D01*
X17268D02*
X17511D01*
X10324Y10919D02*
X11105D01*
X11505D02*
X12261D01*
X12514D02*
X12962D01*
X13393D02*
X14939D01*
X15269D02*
X15685D01*
X16535D02*
X16585D01*
X17435D02*
X17511D01*
X10339Y10967D02*
X10905D01*
X11705D02*
X12182D01*
X12592D02*
X12962D01*
X13393D02*
X14877D01*
X15331D02*
X15685D01*
X16535D02*
X16585D01*
X17435D02*
X17511D01*
X10346Y11015D02*
X10905D01*
X11705D02*
X12135D01*
X12639D02*
X12962D01*
X13393D02*
X14837D01*
X15370D02*
X15685D01*
X16535D02*
X16585D01*
X17435D02*
X17511D01*
X10346Y11063D02*
X10905D01*
X11705D02*
X12103D01*
X12671D02*
X12962D01*
X13393D02*
X14810D01*
X15397D02*
X15685D01*
X16535D02*
X16585D01*
X17435D02*
X17511D01*
X10338Y11111D02*
X10905D01*
X11705D02*
X12083D01*
X12692D02*
X12962D01*
X13393D02*
X14793D01*
X15414D02*
X15685D01*
X16535D02*
X16585D01*
X17435D02*
X17511D01*
X10323Y11160D02*
X10358D01*
X10519D02*
X10905D01*
X11705D02*
X12070D01*
X12704D02*
X12962D01*
X13393D02*
X14784D01*
X15424D02*
X15685D01*
X16535D02*
X16585D01*
X17435D02*
X17511D01*
X10623Y11208D02*
X10905D01*
X11705D02*
X12065D01*
X12709D02*
X12962D01*
X13393D02*
X14782D01*
X15425D02*
X15685D01*
X16535D02*
X16585D01*
X17435D02*
X17511D01*
X10677Y11256D02*
X10905D01*
X11705D02*
X12068D01*
X12707D02*
X12962D01*
X13393D02*
X14788D01*
X15420D02*
X15685D01*
X16535D02*
X16585D01*
X17435D02*
X17511D01*
X10713Y11304D02*
X10905D01*
X11705D02*
X12078D01*
X12697D02*
X12962D01*
X13393D02*
X14801D01*
X15407D02*
X15685D01*
X16535D02*
X16585D01*
X17435D02*
X17511D01*
X10737Y11352D02*
X10905D01*
X11705D02*
X12096D01*
X12679D02*
X12962D01*
X13393D02*
X14822D01*
X15385D02*
X15685D01*
X16535D02*
X16585D01*
X17435D02*
X17511D01*
X10752Y11400D02*
X10905D01*
X11705D02*
X12123D01*
X12651D02*
X12962D01*
X13428D02*
X14855D01*
X15353D02*
X15685D01*
X16535D02*
X16585D01*
X17435D02*
X17511D01*
X10759Y11448D02*
X10905D01*
X11705D02*
X12165D01*
X12610D02*
X12962D01*
X13476D02*
X14904D01*
X15304D02*
X15685D01*
X16535D02*
X16585D01*
X17435D02*
X17511D01*
X10759Y11496D02*
X10905D01*
X11705D02*
X12229D01*
X12545D02*
X12966D01*
X15667D02*
X15685D01*
X16535D02*
X16585D01*
X17435D02*
X17511D01*
X10752Y11544D02*
X10905D01*
X11705D02*
X12981D01*
X16535D02*
X16585D01*
X17435D02*
X17511D01*
X10737Y11592D02*
X10905D01*
X11705D02*
X13011D01*
X16535D02*
X16585D01*
X17435D02*
X17511D01*
X10713Y11640D02*
X10905D01*
X11705D02*
X12433D01*
X12735D02*
X13058D01*
X17435D02*
X17511D01*
X10676Y11688D02*
X10905D01*
X11705D02*
X12365D01*
X12803D02*
X13106D01*
X17229D02*
X17511D01*
X10621Y11736D02*
X10905D01*
X11705D02*
X12323D01*
X12845D02*
X13154D01*
X17229D02*
X17511D01*
X10216Y11784D02*
X10362D01*
X10514D02*
X12294D01*
X12874D02*
X13202D01*
X17226D02*
X17511D01*
X10168Y11832D02*
X10905D01*
X11705D02*
X12276D01*
X12892D02*
X13251D01*
X17211D02*
X17511D01*
X10120Y11880D02*
X10479D01*
X10556D02*
X10905D01*
X11705D02*
X12265D01*
X12903D02*
X13351D01*
X17183D02*
X17511D01*
X10072Y11928D02*
X10344D01*
X10690D02*
X10905D01*
X11705D02*
X12262D01*
X12906D02*
X13394D01*
X14491D02*
X15492D01*
X17137D02*
X17511D01*
X10024Y11976D02*
X10286D01*
X10749D02*
X10905D01*
X11705D02*
X12266D01*
X12902D02*
X13350D01*
X14535D02*
X15540D01*
X17089D02*
X17511D01*
X9975Y12024D02*
X10247D01*
X10787D02*
X10905D01*
X11705D02*
X12278D01*
X12890D02*
X13313D01*
X14572D02*
X15593D01*
X17035D02*
X17511D01*
X9927Y12072D02*
X10222D01*
X10813D02*
X10905D01*
X11705D02*
X12298D01*
X12870D02*
X13281D01*
X14604D02*
X15861D01*
X16689D02*
X17511D01*
X4387Y12120D02*
X8753D01*
X9879D02*
X10205D01*
X10829D02*
X10905D01*
X11705D02*
X12329D01*
X12839D02*
X13254D01*
X14631D02*
X15819D01*
X16731D02*
X17511D01*
X4314Y12168D02*
X8801D01*
X9831D02*
X10197D01*
X10837D02*
X10905D01*
X11705D02*
X12374D01*
X12794D02*
X13231D01*
X14654D02*
X15786D01*
X16764D02*
X17511D01*
X3568Y12216D02*
X4699D01*
X4799D02*
X8906D01*
X9727D02*
X10196D01*
X10839D02*
X10905D01*
X11705D02*
X12246D01*
X12719D02*
X13212D01*
X14672D02*
X15759D01*
X16791D02*
X17511D01*
X3519Y12264D02*
X4574D01*
X4925D02*
X5764D01*
X6614D02*
X6664D01*
X7514D02*
X10202D01*
X10832D02*
X10905D01*
X11705D02*
X12182D01*
X12631D02*
X13197D01*
X14688D02*
X15737D01*
X16813D02*
X17511D01*
X3471Y12312D02*
X4516D01*
X4983D02*
X5764D01*
X6614D02*
X6664D01*
X7514D02*
X10216D01*
X10819D02*
X10905D01*
X11705D02*
X12142D01*
X12672D02*
X13185D01*
X14700D02*
X15721D01*
X16829D02*
X17511D01*
X3423Y12360D02*
X4479D01*
X5020D02*
X5382D01*
X5653D02*
X5764D01*
X6614D02*
X6664D01*
X7514D02*
X10238D01*
X10796D02*
X10905D01*
X11705D02*
X12114D01*
X12908D02*
X13176D01*
X14708D02*
X15709D01*
X16841D02*
X17511D01*
X3360Y12408D02*
X4453D01*
X5046D02*
X5307D01*
X5727D02*
X5764D01*
X6614D02*
X6664D01*
X7514D02*
X10272D01*
X10762D02*
X10905D01*
X11705D02*
X12097D01*
X12958D02*
X13171D01*
X14714D02*
X15701D01*
X16849D02*
X17511D01*
X3400Y12456D02*
X4437D01*
X5062D02*
X5262D01*
X6614D02*
X6664D01*
X7514D02*
X10317D01*
X10717D02*
X10905D01*
X11705D02*
X12087D01*
X13006D02*
X13168D01*
X14717D02*
X15698D01*
X16852D02*
X17511D01*
X3431Y12504D02*
X4429D01*
X5070D02*
X5231D01*
X6614D02*
X6664D01*
X7514D02*
X10317D01*
X10717D02*
X10905D01*
X11705D02*
X12085D01*
X13054D02*
X13168D01*
X14716D02*
X15698D01*
X16852D02*
X17511D01*
X3455Y12552D02*
X4428D01*
X5071D02*
X5211D01*
X6614D02*
X6664D01*
X7514D02*
X10317D01*
X10717D02*
X10905D01*
X11705D02*
X12090D01*
X13102D02*
X13172D01*
X14713D02*
X15702D01*
X16848D02*
X17511D01*
X3473Y12600D02*
X4434D01*
X5064D02*
X5199D01*
X6614D02*
X6664D01*
X7514D02*
X10317D01*
X10717D02*
X10905D01*
X11705D02*
X12103D01*
X13150D02*
X13178D01*
X14707D02*
X15711D01*
X16839D02*
X17511D01*
X3486Y12649D02*
X4449D01*
X5050D02*
X5195D01*
X6614D02*
X6664D01*
X7514D02*
X10317D01*
X10717D02*
X10905D01*
X11705D02*
X12124D01*
X14697D02*
X15724D01*
X16826D02*
X17511D01*
X3494Y12697D02*
X4472D01*
X5027D02*
X5198D01*
X6614D02*
X6664D01*
X7514D02*
X10317D01*
X10717D02*
X12156D01*
X14685D02*
X15741D01*
X16809D02*
X17511D01*
X3496Y12745D02*
X4492D01*
X6614D02*
X6664D01*
X7514D02*
X10317D01*
X10717D02*
X12204D01*
X12610D02*
X12728D01*
X14669D02*
X15764D01*
X16786D02*
X17511D01*
X3495Y12793D02*
X4425D01*
X6614D02*
X6664D01*
X7514D02*
X10317D01*
X10717D02*
X12285D01*
X12529D02*
X12776D01*
X14649D02*
X15792D01*
X16758D02*
X17511D01*
X3488Y12841D02*
X4377D01*
X6614D02*
X6664D01*
X7514D02*
X10317D01*
X10717D02*
X12824D01*
X14625D02*
X15828D01*
X16722D02*
X17511D01*
X3477Y12889D02*
X4329D01*
X6614D02*
X6664D01*
X7514D02*
X10317D01*
X10717D02*
X12872D01*
X14597D02*
X15872D01*
X16678D02*
X17511D01*
X3461Y12937D02*
X4281D01*
X6614D02*
X6664D01*
X7514D02*
X10287D01*
X10717D02*
X11591D01*
X11884D02*
X12920D01*
X14564D02*
X15928D01*
X16622D02*
X17511D01*
X3438Y12985D02*
X4233D01*
X10716D02*
X11521D01*
X11954D02*
X12968D01*
X14526D02*
X16003D01*
X16547D02*
X17511D01*
X3409Y13033D02*
X4185D01*
X10706D02*
X11478D01*
X11997D02*
X13016D01*
X14480D02*
X16124D01*
X16426D02*
X17511D01*
X10682Y13081D02*
X10991D01*
X12026D02*
X13064D01*
X14425D02*
X17511D01*
X12045Y13129D02*
X13112D01*
X14358D02*
X17511D01*
X12056Y13177D02*
X13160D01*
X14270D02*
X17511D01*
X12059Y13225D02*
X13208D01*
X14137D02*
X17511D01*
X12056Y13273D02*
X12399D01*
X13249D02*
X13256D01*
X14249D02*
X17511D01*
X12044Y13321D02*
X12399D01*
X13249D02*
X13305D01*
X14249D02*
X17511D01*
X12025Y13369D02*
X12399D01*
X13249D02*
X13353D01*
X14249D02*
X17511D01*
X11995Y13417D02*
X12399D01*
X13249D02*
X13399D01*
X14249D02*
X17511D01*
X11950Y13465D02*
X12399D01*
X13249D02*
X13399D01*
X14249D02*
X17511D01*
X11877Y13513D02*
X12399D01*
X13249D02*
X13399D01*
X14249D02*
X17511D01*
X11622Y13561D02*
X12399D01*
X13249D02*
X13399D01*
X14249D02*
X17511D01*
X11626Y13609D02*
X12399D01*
X13249D02*
X13399D01*
X14249D02*
X17511D01*
X11624Y13657D02*
X12399D01*
X13249D02*
X13399D01*
X14249D02*
X17511D01*
X11614Y13705D02*
X12399D01*
X13249D02*
X13399D01*
X14249D02*
X17511D01*
X11596Y13753D02*
X12399D01*
X13249D02*
X13399D01*
X14249D02*
X17511D01*
X11568Y13801D02*
X12399D01*
X13249D02*
X13399D01*
X14249D02*
X17511D01*
X11527Y13849D02*
X12399D01*
X13249D02*
X13399D01*
X14249D02*
X17511D01*
X11462Y13897D02*
X12399D01*
X13249D02*
X13399D01*
X14249D02*
X17511D01*
X11177Y13945D02*
X12399D01*
X13249D02*
X13399D01*
X14249D02*
X17511D01*
X11129Y13993D02*
X12399D01*
X13249D02*
X13399D01*
X14249D02*
X17511D01*
X11081Y14041D02*
X12399D01*
X13249D02*
X13399D01*
X14249D02*
X17511D01*
X11033Y14089D02*
X12399D01*
X13249D02*
X13399D01*
X14249D02*
X17511D01*
X3956Y6901D02*
X4023Y6845D01*
X4073Y6773*
X4101Y6690*
X4106Y6602*
X4087Y6517*
X4045Y6440*
X3985Y6376*
Y5134*
X4176Y4943*
X4369*
Y5573*
X4419*
X4380Y5667*
X4364Y5768*
X4373Y5870*
X4406Y5967*
X4461Y6053*
X4535Y6123*
X4624Y6174*
X4667Y6239*
X4975Y6547*
X4726*
X4656Y6482*
X4571Y6440*
X4477Y6425*
X4382Y6438*
X4296Y6478*
X4225Y6542*
X4176Y6624*
X4153Y6716*
X4159Y6812*
X4191Y6901*
X3956*
X4139Y4980D02*
X4369D01*
X4091Y5028D02*
X4369D01*
X4043Y5076D02*
X4369D01*
X3995Y5124D02*
X4369D01*
X3985Y5172D02*
X4369D01*
X3985Y5220D02*
X4369D01*
X3985Y5268D02*
X4369D01*
X3985Y5316D02*
X4369D01*
X3985Y5364D02*
X4369D01*
X3985Y5412D02*
X4369D01*
X3985Y5460D02*
X4369D01*
X3985Y5508D02*
X4369D01*
X3985Y5556D02*
X4369D01*
X3985Y5604D02*
X4403D01*
X3985Y5652D02*
X4384D01*
X3985Y5700D02*
X4372D01*
X3985Y5748D02*
X4365D01*
X3985Y5796D02*
X4364D01*
X3985Y5844D02*
X4368D01*
X3985Y5892D02*
X4378D01*
X3985Y5940D02*
X4394D01*
X3985Y5989D02*
X4417D01*
X3985Y6037D02*
X4448D01*
X3985Y6085D02*
X4490D01*
X3985Y6133D02*
X4548D01*
X3985Y6181D02*
X4627D01*
X3985Y6229D02*
X4658D01*
X3985Y6277D02*
X4705D01*
X3985Y6325D02*
X4753D01*
X3985Y6373D02*
X4801D01*
X4031Y6421D02*
X4849D01*
X4064Y6469D02*
X4312D01*
X4636D02*
X4897D01*
X4087Y6517D02*
X4249D01*
X4699D02*
X4945D01*
X4100Y6565D02*
X4208D01*
X4106Y6613D02*
X4181D01*
X4105Y6661D02*
X4164D01*
X4097Y6709D02*
X4154D01*
X4080Y6757D02*
X4152D01*
X4054Y6805D02*
X4157D01*
X4016Y6853D02*
X4170D01*
X4728Y9510D02*
X5224D01*
X5781Y10066*
X5840Y10106*
X5911Y10120*
X7005*
X7012Y10129*
X5458*
X5382Y10145*
X5317Y10188*
X5261Y10244*
X5231*
X5263Y10150*
X5265Y10050*
X5237Y9955*
X5181Y9873*
X5102Y9812*
X5009Y9778*
X4909Y9774*
X4756Y9620*
X4747Y9563*
X4728Y9510*
X5224*
X4745Y9558D02*
X5272D01*
X4754Y9606D02*
X5320D01*
X4790Y9654D02*
X5368D01*
X4838Y9702D02*
X5416D01*
X4886Y9750D02*
X5465D01*
X5074Y9798D02*
X5513D01*
X5152Y9846D02*
X5561D01*
X5199Y9894D02*
X5609D01*
X5230Y9942D02*
X5657D01*
X5251Y9990D02*
X5705D01*
X5263Y10038D02*
X5753D01*
X5268Y10086D02*
X5804D01*
X5266Y10134D02*
X5416D01*
X5256Y10182D02*
X5323D01*
X5238Y10230D02*
X5275D01*
X10094Y13886D02*
X10134Y13790D01*
X10150Y13687*
X10140Y13584*
X10105Y13486*
X11011*
X10990Y13550*
X10983Y13617*
Y13619*
X10716Y13886*
X10094*
X10112Y13501D02*
X11004D01*
X10130Y13549D02*
X10990D01*
X10143Y13597D02*
X10983D01*
X10149Y13645D02*
X10957D01*
X10150Y13693D02*
X10909D01*
X10145Y13741D02*
X10861D01*
X10134Y13789D02*
X10813D01*
X10118Y13838D02*
X10765D01*
D02*
D11*
X695Y9444D02*
X553Y9303D01*
X695Y9798D02*
X553Y9939D01*
X871Y10270D02*
Y10329D01*
Y11038D02*
Y10940D01*
X1905Y12467D02*
X2105D01*
X1934Y10684D02*
X2053Y10566D01*
X3352*
X4494Y11707*
X8942*
X9060Y11826*
X9592*
X10025Y11392*
Y11038*
X2673Y12751D02*
X2473D01*
X3321D02*
X3521D01*
X3549Y12003D02*
X4257D01*
X4336Y11924*
X8805*
X8923Y12042*
X9710*
X10281Y11471*
X4603Y12534D02*
X4403D01*
X4749Y12387D02*
Y12187D01*
X4858Y13361D02*
X4658D01*
X4896Y12534D02*
X5096D01*
X5005Y13508D02*
Y13708D01*
X5984Y7962D02*
X5843Y7820D01*
X5984Y8170D02*
X5843Y8311D01*
X6000Y8696D02*
X5800D01*
X6344Y4976D02*
X6203Y4834D01*
X6407Y13849D02*
X6265Y13991D01*
X6698Y4976D02*
X6839Y4834D01*
X6754Y13849D02*
X6895Y13991D01*
X6839Y12652D02*
X6639D01*
X6856Y9581D02*
Y9562D01*
X7089Y12427D02*
Y12227D01*
X7339Y12652D02*
X7539D01*
X7371Y5432D02*
X7230Y5290D01*
X7371Y5778D02*
X7230Y5920D01*
X7437Y7140D02*
X7237D01*
X7584Y6994D02*
Y6794D01*
Y7287D02*
Y7487D01*
X7718Y5432D02*
X7860Y5290D01*
X7718Y5778D02*
X7860Y5920D01*
X7731Y7140D02*
X7931D01*
X8421Y7121D02*
X8221D01*
X8568Y6974D02*
Y6774D01*
Y7268D02*
Y7468D01*
X8715Y7121D02*
X8915D01*
X9336Y11511D02*
Y11491D01*
X4592*
X3431Y10329*
X1659*
X9572Y10605D02*
Y10782D01*
X9139Y11215*
X4671*
X3608Y10152*
X2289*
X2112Y9975*
X10123Y7013D02*
Y6813D01*
X10270Y7160D02*
X10470D01*
X10436Y7604D02*
Y7404D01*
X10686Y7829D02*
X10886D01*
X11080Y12256D02*
X10880D01*
X11305Y12006D02*
Y11806D01*
Y12506D02*
Y12706D01*
X11335Y6570D02*
X11135D01*
X11482Y6716D02*
Y6916D01*
X11530Y12256D02*
X11730D01*
X11629Y6570D02*
X11829D01*
X12103Y8243D02*
X11903D01*
X12103Y9326D02*
X11903D01*
X12103Y10290D02*
X11903D01*
X12240Y11215D02*
X12040D01*
X12249Y8096D02*
Y7896D01*
Y8390D02*
Y8590D01*
Y9179D02*
Y8979D01*
Y9472D02*
Y9672D01*
Y10143D02*
Y9943D01*
Y10437D02*
Y10637D01*
X12387Y11068D02*
Y10868D01*
Y11362D02*
Y11562D01*
X12396Y8243D02*
X12596D01*
X12396Y9326D02*
X12596D01*
X12396Y10290D02*
X12596D01*
X12437Y11924D02*
X12237D01*
X12534Y11215D02*
X12734D01*
X12574Y13696D02*
X12374D01*
X12584Y11777D02*
Y11577D01*
X12731Y11924D02*
X12931D01*
X12824Y13446D02*
Y13246D01*
X13074Y13696D02*
X13274D01*
X14277Y9109D02*
X14808Y8577D01*
X15143*
X15182Y8538*
X14957Y11196D02*
X14757D01*
X15000Y10138D02*
X14858Y10279D01*
X15000Y10501D02*
X14858Y10360D01*
X15000Y10709D02*
X14858Y10850D01*
X15104Y10034D02*
Y10605D01*
Y11196*
X15208Y9930D02*
X15349Y9789D01*
X15208Y10138D02*
X15349Y10279D01*
X15208Y10501D02*
X15349Y10360D01*
X15208Y10709D02*
X15349Y10850D01*
X15251Y11196D02*
X15451D01*
X15261Y9277D02*
Y9077D01*
X15320Y7801D02*
Y7601D01*
X15408Y9424D02*
X15608D01*
X15467Y7948D02*
X15667D01*
X15860Y11274D02*
X15660D01*
X15900Y8282D02*
X15700D01*
X16110Y11049D02*
Y10849D01*
X16150Y8057D02*
Y7857D01*
Y8507D02*
Y8707D01*
X16360Y11274D02*
X16560D01*
X16400Y8282D02*
X16600D01*
X16679Y8982D02*
Y8782D01*
Y9394D02*
Y9594D01*
D02*
D12*
X871Y6077D03*
Y6786D03*
Y7495D03*
Y8203D03*
Y8912D03*
Y9621D03*
Y10329D03*
Y11038D03*
Y11747D03*
Y12455D03*
X1647Y13176D03*
X1655Y12467D03*
X1659Y6077D03*
Y6786D03*
Y7495D03*
Y8203D03*
Y8912D03*
Y9621D03*
Y10329D03*
Y11038D03*
Y11747D03*
X4789Y5782D03*
X5655Y5152D03*
Y5782D03*
X6521Y5152D03*
Y5782D03*
D02*
D13*
X871Y13164D03*
D02*
D14*
X13942Y6766D03*
Y12475D03*
D02*
D15*
X16275Y6766D03*
Y12475D03*
D02*
D16*
X6189Y12652D03*
X7089D03*
X7429Y8184D03*
Y8951D03*
X8329Y8184D03*
Y8951D03*
X9536Y7829D03*
X10436D03*
X13177Y8341D03*
Y9109D03*
Y9877D03*
X14077Y8341D03*
Y9109D03*
Y9877D03*
X16110Y11274D03*
X16150Y8282D03*
X17010Y11274D03*
X17050Y8282D03*
D02*
D17*
X12824Y13696D03*
X13824D03*
D02*
D18*
X11305Y11356D03*
Y12256D03*
D02*
D19*
X16305Y9188D03*
Y10329D03*
X16679Y9188D03*
X17053D03*
Y10329D03*
D02*
D71*
X4789Y5152D03*
X5793Y13676D03*
X11482Y5605D03*
D02*
D20*
X6580Y13676D03*
X7368D03*
X7545Y5605D03*
X8155Y13676D03*
X8332Y5605D03*
X8942Y13676D03*
X9119Y5605D03*
X9730Y13676D03*
X9907Y5605D03*
X10694D03*
D02*
D22*
X871Y8263D02*
X1167Y8558D01*
X871Y10940D02*
X1127Y10684D01*
X891Y6077D02*
X1245Y6432D01*
X891Y12436D02*
X1226Y12101D01*
X911Y11747D02*
X1265Y11392D01*
X931Y8912D02*
X1285Y9266D01*
X1009Y6786D02*
X1364Y7140D01*
X1167Y9975D02*
X871Y10270D01*
X1364Y13637D02*
X891Y13164D01*
X871*
X2092Y9266D02*
X2564Y9739D01*
X3765*
X4710Y10684*
X8194*
X2131Y7140D02*
X2958Y7967D01*
X3864*
X4001Y8105*
X4592*
X2348Y8144D02*
Y8381D01*
X3076Y9109*
X5438*
X5891Y9562*
X6856*
X2860Y7436D02*
X4671D01*
X2860Y9522D02*
X3864D01*
X4769Y10428*
X5360*
X3785Y5074D02*
X4100Y4759D01*
X5419*
X5655Y4995*
X7269Y9936D02*
X5911D01*
X5301Y9326*
X2958*
X1836Y8203*
X1659*
X8194Y13676D02*
X8588Y14070D01*
X10793*
X11245Y13617*
X11305*
X9001Y10723D02*
X8726Y10999D01*
X4730*
X3686Y9955*
X2407*
X2072Y9621*
X10281Y11471D02*
X10438D01*
X10517Y12967D02*
X10360Y13125D01*
X5419*
X11738Y13223D02*
X11108D01*
X11029Y13302*
X7702*
X7368Y13637*
X15261Y9424D02*
Y9581D01*
X15104Y9739*
Y10034*
D02*
D23*
X694Y13243D02*
X773Y13164D01*
X871*
Y6077D02*
X891D01*
X871Y6786D02*
X1009D01*
X871Y8203D02*
Y8263D01*
Y8912D02*
X931D01*
X871Y11038D02*
Y11058D01*
Y11747D02*
X911D01*
X871Y12455D02*
X891Y12436D01*
X1659Y6077D02*
X1836D01*
X2860Y7101*
X4887*
X5458Y7672*
Y8774*
X5871Y9188*
X6108*
X6127Y9207*
Y9247*
X6088*
X1659Y7495D02*
X1698D01*
X2348Y8144*
X1659Y10329D02*
Y10310D01*
X2013Y11392D02*
X2525Y10881D01*
X2072Y9621D02*
X1659D01*
X2742Y6097D02*
Y5270D01*
X2407Y4936*
X2781Y8302D02*
X3312Y8833D01*
X4375*
X4494Y8715*
X5025*
X3411Y8400D02*
X3726D01*
X3785Y8459*
Y8479*
X4119*
X3785Y6629D02*
Y5074D01*
X4434Y9640D02*
X4494D01*
X4946Y10093*
X4671Y7436D02*
Y7455D01*
X4749Y12534D02*
X4690D01*
X5360Y10428D02*
X5458Y10329D01*
X7722*
X5419Y13125D02*
X5222Y12928D01*
X4572*
X4257Y13243*
X5596Y6589D02*
X5301D01*
X4808Y6097*
Y5802*
X4789Y5782*
X5655Y4995D02*
Y5152D01*
X6167Y7475D02*
X6305D01*
X6521Y7692*
Y8637*
X6836Y8951*
X7429*
X6189Y12652D02*
X5517D01*
X6895Y7436D02*
Y8026D01*
X7053Y8184*
X7429*
X7368Y13637D02*
Y13676D01*
X7761Y9601D02*
X8686D01*
X8155Y13676D02*
X8194D01*
X8329Y8184D02*
Y7768D01*
X8056Y7495*
X8329Y8184D02*
X8706D01*
X9060Y7829*
X9536*
X8329Y8951D02*
Y8184D01*
X9513Y7200D02*
Y7807D01*
X9536Y7829*
X10163Y10448D02*
Y9857D01*
X9868Y9562*
Y8873*
X10517Y12200D02*
Y12967D01*
X10655Y10113D02*
Y9936D01*
X10497Y9778*
Y9266*
X11108Y8322D02*
X9395D01*
X9218Y8499*
Y8538*
X11305Y11356D02*
Y10684D01*
X11108Y10487*
X13037Y5644D02*
X12899D01*
X12308Y6235*
X7092*
X6482Y6845*
X5970*
X5793Y7022*
X5320*
X5045Y6747*
X4474*
X13177Y8341D02*
Y9877D01*
Y11454*
X13391Y11668*
X15537*
X15714Y11845*
X16915*
X17013Y11747*
Y11435*
X17010Y11432*
Y11274*
X13824Y13696D02*
Y13558D01*
X12781Y12514*
X12427*
X12407Y12495*
X14077Y8341D02*
X14513D01*
X14789Y8066*
Y7711*
X14077Y9109D02*
X14277D01*
X14077Y9877D02*
X14592D01*
X14808Y9660*
Y9050*
X16305Y10329D02*
Y10231D01*
X16679Y9857*
X16856*
X17033Y9680*
Y9207*
X17053Y9188*
X17010Y11274D02*
X17013D01*
Y10999*
X17053Y10959*
Y10329*
X17050Y8282D02*
X17053D01*
X17072Y8263*
Y6294*
X16423Y5644*
X17053Y9188D02*
Y8285D01*
X17050Y8282*
D02*
D25*
X1895Y8558D02*
X2860Y9522D01*
X2525Y12101D02*
X2682Y12259D01*
X3293*
X3549Y12003*
X4257Y13243D02*
X2328D01*
X1934Y13637*
X1364*
D02*
D97*
X2997Y11751D03*
Y12751D03*
Y13751D03*
D02*
D98*
X2407Y4936D03*
X2525Y10881D03*
X2742Y6097D03*
X2781Y8302D03*
X3411Y8400D03*
X3785Y6629D03*
X4119Y8479D03*
X4434Y9640D03*
X4474Y6747D03*
X4592Y8105D03*
X4671Y7455D03*
X4749Y12534D03*
X4946Y10093D03*
X5005Y13361D03*
X5025Y8715D03*
X5517Y12652D03*
X5596Y6589D03*
X6088Y8066D03*
Y9247D03*
X6147Y8696D03*
X6167Y7475D03*
X6856Y9562D03*
X6895Y7436D03*
X7269Y9936D03*
X7584Y7140D03*
X7722Y10329D03*
X7761Y9601D03*
X8056Y7495D03*
X8194Y10684D03*
X8568Y7121D03*
X8686Y9601D03*
X9001Y10723D03*
X9218Y8538D03*
X9336Y11511D03*
X9513Y7200D03*
X9572Y10605D03*
X9868Y8873D03*
X10025Y11038D03*
X10123Y7160D03*
X10163Y10448D03*
X10438Y11471D03*
X10497Y9266D03*
X10517Y12200D03*
X10655Y10113D03*
X11108Y8322D03*
Y10487D03*
X11305Y13617D03*
X11482Y6570D03*
X11738Y13223D03*
X12249Y8243D03*
Y9326D03*
Y10290D03*
X12387Y11215D03*
X12407Y12495D03*
X12584Y11924D03*
X13037Y5644D03*
X14789Y7711D03*
X14808Y9050D03*
X15104Y10034D03*
Y10605D03*
Y11196D03*
X15182Y8538D03*
X15261Y9424D03*
X15320Y7948D03*
X16423Y5644D03*
D02*
D100*
X1127Y10684D02*
X1934D01*
X1167Y8558D02*
X1895D01*
X1226Y12101D02*
X2525D01*
X1245Y6432D02*
X1856D01*
X2860Y7436*
X1265Y11392D02*
X2013D01*
X1285Y9266D02*
X2092D01*
X1364Y7140D02*
X2131D01*
X2112Y9975D02*
X1167D01*
X0Y0D02*
M02*
