%FSLAX23Y23*%
%MOMM*%
G04 EasyPC Gerber Version 16.0.6 Build 3249 *
%ADD10C,0.12700*%
%ADD82C,2.54000*%
X0Y0D02*
D02*
D10*
X5309Y17421D02*
X5468Y17342D01*
X5547Y17183*
X5468Y17024*
X5309Y16945*
X4754*
Y17897*
X5309*
X5468Y17818*
X5547Y17659*
X5468Y17501*
X5309Y17421*
X4754*
X5309Y19221D02*
X5468Y19142D01*
X5547Y18983*
X5468Y18824*
X5309Y18745*
X4754*
Y19697*
X5309*
X5468Y19618*
X5547Y19459*
X5468Y19301*
X5309Y19221*
X4754*
X5309Y21021D02*
X5468Y20942D01*
X5547Y20783*
X5468Y20624*
X5309Y20545*
X4754*
Y21497*
X5309*
X5468Y21418*
X5547Y21259*
X5468Y21101*
X5309Y21021*
X4754*
X5309Y22821D02*
X5468Y22742D01*
X5547Y22583*
X5468Y22424*
X5309Y22345*
X4754*
Y23297*
X5309*
X5468Y23218*
X5547Y23059*
X5468Y22901*
X5309Y22821*
X4754*
X5309Y24621D02*
X5468Y24542D01*
X5547Y24383*
X5468Y24224*
X5309Y24145*
X4754*
Y25097*
X5309*
X5468Y25018*
X5547Y24859*
X5468Y24701*
X5309Y24621*
X4754*
X5309Y26421D02*
X5468Y26342D01*
X5547Y26183*
X5468Y26024*
X5309Y25945*
X4754*
Y26897*
X5309*
X5468Y26818*
X5547Y26659*
X5468Y26501*
X5309Y26421*
X4754*
X5309Y28221D02*
X5468Y28142D01*
X5547Y27983*
X5468Y27824*
X5309Y27745*
X4754*
Y28697*
X5309*
X5468Y28618*
X5547Y28459*
X5468Y28301*
X5309Y28221*
X4754*
X5309Y30021D02*
X5468Y29942D01*
X5547Y29783*
X5468Y29624*
X5309Y29545*
X4754*
Y30497*
X5309*
X5468Y30418*
X5547Y30259*
X5468Y30101*
X5309Y30021*
X4754*
X5309Y31821D02*
X5468Y31742D01*
X5547Y31583*
X5468Y31424*
X5309Y31345*
X4754*
Y32297*
X5309*
X5468Y32218*
X5547Y32059*
X5468Y31901*
X5309Y31821*
X4754*
X5309Y33621D02*
X5468Y33542D01*
X5547Y33383*
X5468Y33224*
X5309Y33145*
X4754*
Y34097*
X5309*
X5468Y34018*
X5547Y33859*
X5468Y33701*
X5309Y33621*
X4754*
X5309Y35421D02*
X5468Y35342D01*
X5547Y35183*
X5468Y35024*
X5309Y34945*
X4754*
Y35897*
X5309*
X5468Y35818*
X5547Y35659*
X5468Y35501*
X5309Y35421*
X4754*
X7279Y35451D02*
X7438Y35372D01*
X7517Y35213*
X7438Y35054*
X7279Y34975*
X6724*
Y35927*
X7279*
X7438Y35848*
X7517Y35689*
X7438Y35531*
X7279Y35451*
X6724*
X7299Y33651D02*
X7458Y33572D01*
X7537Y33413*
X7458Y33254*
X7299Y33175*
X6744*
Y34127*
X7299*
X7458Y34048*
X7537Y33889*
X7458Y33731*
X7299Y33651*
X6744*
X7309Y17421D02*
X7468Y17342D01*
X7547Y17183*
X7468Y17024*
X7309Y16945*
X6753*
Y17897*
X7309*
X7468Y17818*
X7547Y17659*
X7468Y17501*
X7309Y17421*
X6753*
X7309Y19221D02*
X7468Y19142D01*
X7547Y18983*
X7468Y18824*
X7309Y18745*
X6753*
Y19697*
X7309*
X7468Y19618*
X7547Y19459*
X7468Y19301*
X7309Y19221*
X6753*
X7309Y21021D02*
X7468Y20942D01*
X7547Y20783*
X7468Y20624*
X7309Y20545*
X6753*
Y21497*
X7309*
X7468Y21418*
X7547Y21259*
X7468Y21101*
X7309Y21021*
X6753*
X7309Y22821D02*
X7468Y22742D01*
X7547Y22583*
X7468Y22424*
X7309Y22345*
X6753*
Y23297*
X7309*
X7468Y23218*
X7547Y23059*
X7468Y22901*
X7309Y22821*
X6753*
X7309Y24621D02*
X7468Y24542D01*
X7547Y24383*
X7468Y24224*
X7309Y24145*
X6753*
Y25097*
X7309*
X7468Y25018*
X7547Y24859*
X7468Y24701*
X7309Y24621*
X6753*
X7309Y26421D02*
X7468Y26342D01*
X7547Y26183*
X7468Y26024*
X7309Y25945*
X6753*
Y26897*
X7309*
X7468Y26818*
X7547Y26659*
X7468Y26501*
X7309Y26421*
X6753*
X7309Y28221D02*
X7468Y28142D01*
X7547Y27983*
X7468Y27824*
X7309Y27745*
X6753*
Y28697*
X7309*
X7468Y28618*
X7547Y28459*
X7468Y28301*
X7309Y28221*
X6753*
X7309Y30021D02*
X7468Y29942D01*
X7547Y29783*
X7468Y29624*
X7309Y29545*
X6753*
Y30497*
X7309*
X7468Y30418*
X7547Y30259*
X7468Y30101*
X7309Y30021*
X6753*
X7309Y31821D02*
X7468Y31742D01*
X7547Y31583*
X7468Y31424*
X7309Y31345*
X6753*
Y32297*
X7309*
X7468Y32218*
X7547Y32059*
X7468Y31901*
X7309Y31821*
X6753*
X8654Y14045D02*
Y14997D01*
Y14521D02*
X8892D01*
X9447Y14997*
X8892Y14521D02*
X9447Y14045D01*
X8954Y29145D02*
Y30097D01*
Y29621D02*
X9192D01*
X9747Y30097*
X9192Y29621D02*
X9747Y29145D01*
X9504Y16995D02*
Y17947D01*
Y17471D02*
X9742D01*
X10297Y17947*
X9742Y17471D02*
X10297Y16995D01*
X9604Y22595D02*
Y23547D01*
Y23071D02*
X9842D01*
X10397Y23547*
X9842Y23071D02*
X10397Y22595D01*
X10154Y31514D02*
X10233Y31434D01*
X10392Y31355*
X10550Y31434*
X10630Y31514*
Y32307*
X10789*
X10630D02*
X10312D01*
X10154Y34054D02*
X10233Y33974D01*
X10392Y33895*
X10550Y33974*
X10630Y34054*
Y34847*
X10789*
X10630D02*
X10312D01*
X10154Y36594D02*
X10233Y36514D01*
X10392Y36435*
X10550Y36514*
X10630Y36594*
Y37387*
X10789*
X10630D02*
X10312D01*
X11204Y22845D02*
Y23797D01*
Y23321D02*
X11442D01*
X11997Y23797*
X11442Y23321D02*
X11997Y22845D01*
X12154Y18345D02*
Y19297D01*
Y18821D02*
X12392D01*
X12947Y19297*
X12392Y18821D02*
X12947Y18345D01*
X13004Y23045D02*
Y23997D01*
Y23521D02*
X13242D01*
X13797Y23997*
X13242Y23521D02*
X13797Y23045D01*
X13804Y25995D02*
Y26947D01*
Y26471D02*
X14042D01*
X14597Y26947*
X14042Y26471D02*
X14597Y25995D01*
X13904Y18645D02*
Y19597D01*
Y19121D02*
X14142D01*
X14697Y19597*
X14142Y19121D02*
X14697Y18645D01*
X14204Y22095D02*
Y23047D01*
Y22571D02*
X14442D01*
X14997Y23047*
X14442Y22571D02*
X14997Y22095D01*
X14404Y20445D02*
Y21397D01*
Y20921D02*
X14642D01*
X15197Y21397*
X14642Y20921D02*
X15197Y20445D01*
X14604Y33345D02*
Y34297D01*
Y33821D02*
X14842D01*
X15397Y34297*
X14842Y33821D02*
X15397Y33345D01*
X14704Y14595D02*
Y15547D01*
X15180*
X15339Y15468*
X15418Y15389*
X15497Y15230*
Y14912*
X15418Y14754*
X15339Y14674*
X15180Y14595*
X14704*
X15259Y16671D02*
X15418Y16592D01*
X15497Y16433*
X15418Y16274*
X15259Y16195*
X14704*
Y17147*
X15259*
X15418Y17068*
X15497Y16909*
X15418Y16751*
X15259Y16671*
X14704*
X15104Y27145D02*
Y28097D01*
Y27621D02*
X15342D01*
X15897Y28097*
X15342Y27621D02*
X15897Y27145D01*
X15254Y35445D02*
Y36397D01*
Y35921D02*
X15492D01*
X16047Y36397*
X15492Y35921D02*
X16047Y35445D01*
X15304Y23645D02*
Y24597D01*
Y24121D02*
X15542D01*
X16097Y24597*
X15542Y24121D02*
X16097Y23645D01*
X16554Y33645D02*
Y34597D01*
Y34121D02*
X16792D01*
X17347Y34597*
X16792Y34121D02*
X17347Y33645D01*
X16754Y18245D02*
Y19197D01*
Y18721D02*
X16992D01*
X17547Y19197*
X16992Y18721D02*
X17547Y18245D01*
X17459Y15071D02*
X17618Y14992D01*
X17697Y14833*
X17618Y14674*
X17459Y14595*
X16904*
Y15547*
X17459*
X17618Y15468*
X17697Y15309*
X17618Y15151*
X17459Y15071*
X16904*
X17459Y16671D02*
X17618Y16592D01*
X17697Y16433*
X17618Y16274*
X17459Y16195*
X16904*
Y17147*
X17459*
X17618Y17068*
X17697Y16909*
X17618Y16751*
X17459Y16671*
X16904*
X17254Y36245D02*
Y37197D01*
X17730*
X17889Y37118*
X17968Y37039*
X18047Y36880*
Y36562*
X17968Y36404*
X17889Y36324*
X17730Y36245*
X17254*
X18004Y21995D02*
Y22947D01*
Y22471D02*
X18242D01*
X18797Y22947*
X18242Y22471D02*
X18797Y21995D01*
X18004Y24995D02*
Y25947D01*
Y25471D02*
X18242D01*
X18797Y25947*
X18242Y25471D02*
X18797Y24995D01*
X18154Y23595D02*
Y24547D01*
Y24071D02*
X18392D01*
X18947Y24547*
X18392Y24071D02*
X18947Y23595D01*
X18203Y20495D02*
Y21447D01*
Y20971D02*
X18442D01*
X18997Y21447*
X18442Y20971D02*
X18997Y20495D01*
X19659Y15071D02*
X19818Y14992D01*
X19897Y14833*
X19818Y14674*
X19659Y14595*
X19104*
Y15547*
X19659*
X19818Y15468*
X19897Y15309*
X19818Y15151*
X19659Y15071*
X19104*
X19659Y16671D02*
X19818Y16592D01*
X19897Y16433*
X19818Y16274*
X19659Y16195*
X19104*
Y17147*
X19659*
X19818Y17068*
X19897Y16909*
X19818Y16751*
X19659Y16671*
X19104*
X19254Y36245D02*
Y37197D01*
X19730*
X19889Y37118*
X19968Y37039*
X20047Y36880*
Y36562*
X19968Y36404*
X19889Y36324*
X19730Y36245*
X19254*
X19953Y25795D02*
Y26747D01*
Y26271D02*
X20192D01*
X20747Y26747*
X20192Y26271D02*
X20747Y25795D01*
X20054Y20395D02*
Y21347D01*
Y20871D02*
X20292D01*
X20847Y21347*
X20292Y20871D02*
X20847Y20395D01*
X21004Y26745D02*
Y27697D01*
Y27221D02*
X21242D01*
X21797Y27697*
X21242Y27221D02*
X21797Y26745D01*
X21254Y36245D02*
Y37197D01*
X21730*
X21889Y37118*
X21968Y37039*
X22047Y36880*
Y36562*
X21968Y36404*
X21889Y36324*
X21730Y36245*
X21254*
X21703Y15745D02*
Y16697D01*
X22180*
X22339Y16618*
X22418Y16539*
X22497Y16380*
Y16062*
X22418Y15904*
X22339Y15824*
X22180Y15745*
X21703*
X21804Y19645D02*
Y20597D01*
Y20121D02*
X22042D01*
X22597Y20597*
X22042Y20121D02*
X22597Y19645D01*
X22154Y27745D02*
Y28697D01*
Y28221D02*
X22392D01*
X22947Y28697*
X22392Y28221D02*
X22947Y27745D01*
X22254Y25895D02*
Y26847D01*
Y26371D02*
X22492D01*
X23047Y26847*
X22492Y26371D02*
X23047Y25895D01*
X23004Y20545D02*
Y21497D01*
Y21021D02*
X23242D01*
X23797Y21497*
X23242Y21021D02*
X23797Y20545D01*
X23254Y36245D02*
Y37197D01*
X23730*
X23889Y37118*
X23968Y37039*
X24047Y36880*
Y36562*
X23968Y36404*
X23889Y36324*
X23730Y36245*
X23254*
X23354Y28645D02*
Y29597D01*
Y29121D02*
X23592D01*
X24147Y29597*
X23592Y29121D02*
X24147Y28645D01*
X23703Y15745D02*
Y16697D01*
X24180*
X24339Y16618*
X24418Y16539*
X24497Y16380*
Y16062*
X24418Y15904*
X24339Y15824*
X24180Y15745*
X23703*
X24304Y19595D02*
Y20547D01*
Y20071D02*
X24542D01*
X25097Y20547*
X24542Y20071D02*
X25097Y19595D01*
X24604Y25895D02*
Y26847D01*
Y26371D02*
X24842D01*
X25397Y26847*
X24842Y26371D02*
X25397Y25895D01*
X25254Y36245D02*
Y37197D01*
X25730*
X25889Y37118*
X25968Y37039*
X26047Y36880*
Y36562*
X25968Y36404*
X25889Y36324*
X25730Y36245*
X25254*
X25404Y28745D02*
Y29697D01*
Y29221D02*
X25642D01*
X26197Y29697*
X25642Y29221D02*
X26197Y28745D01*
X25703Y15745D02*
Y16697D01*
X26180*
X26339Y16618*
X26418Y16539*
X26497Y16380*
Y16062*
X26418Y15904*
X26339Y15824*
X26180Y15745*
X25703*
X25953Y23195D02*
Y24147D01*
Y23671D02*
X26192D01*
X26747Y24147*
X26192Y23671D02*
X26747Y23195D01*
X26253Y30745D02*
Y31697D01*
Y31221D02*
X26492D01*
X27047Y31697*
X26492Y31221D02*
X27047Y30745D01*
X26703Y19795D02*
Y20747D01*
Y20271D02*
X26942D01*
X27497Y20747*
X26942Y20271D02*
X27497Y19795D01*
X26854Y28445D02*
Y29397D01*
Y28921D02*
X27092D01*
X27647Y29397*
X27092Y28921D02*
X27647Y28445D01*
X27253Y36245D02*
Y37197D01*
X27730*
X27889Y37118*
X27968Y37039*
X28047Y36880*
Y36562*
X27968Y36404*
X27889Y36324*
X27730Y36245*
X27253*
X27604Y24045D02*
Y24997D01*
Y24521D02*
X27842D01*
X28397Y24997*
X27842Y24521D02*
X28397Y24045D01*
X27703Y15745D02*
Y16697D01*
X28180*
X28339Y16618*
X28418Y16539*
X28497Y16380*
Y16062*
X28418Y15904*
X28339Y15824*
X28180Y15745*
X27703*
X28003Y29545D02*
Y30497D01*
Y30021D02*
X28242D01*
X28797Y30497*
X28242Y30021D02*
X28797Y29545D01*
X28253Y19695D02*
Y20647D01*
Y20171D02*
X28492D01*
X29047Y20647*
X28492Y20171D02*
X29047Y19695D01*
X28354Y28045D02*
Y28997D01*
Y28521D02*
X28592D01*
X29147Y28997*
X28592Y28521D02*
X29147Y28045D01*
X29053Y30645D02*
Y31597D01*
Y31121D02*
X29292D01*
X29847Y31597*
X29292Y31121D02*
X29847Y30645D01*
X29203Y25045D02*
Y25997D01*
Y25521D02*
X29442D01*
X29997Y25997*
X29442Y25521D02*
X29997Y25045D01*
X29253Y32495D02*
Y33447D01*
Y32971D02*
X29492D01*
X30047Y33447*
X29492Y32971D02*
X30047Y32495D01*
X29604Y27195D02*
Y28147D01*
Y27671D02*
X29842D01*
X30397Y28147*
X29842Y27671D02*
X30397Y27195D01*
X29703Y15745D02*
Y16697D01*
X30180*
X30339Y16618*
X30418Y16539*
X30497Y16380*
Y16062*
X30418Y15904*
X30339Y15824*
X30180Y15745*
X29703*
X30753Y22645D02*
Y23597D01*
Y23121D02*
X30992D01*
X31547Y23597*
X30992Y23121D02*
X31547Y22645D01*
X30753Y28145D02*
Y29097D01*
Y28621D02*
X30992D01*
X31547Y29097*
X30992Y28621D02*
X31547Y28145D01*
X31253Y36095D02*
Y37047D01*
Y36571D02*
X31492D01*
X32047Y37047*
X31492Y36571D02*
X32047Y36095D01*
X31703Y15745D02*
Y16697D01*
X32180*
X32339Y16618*
X32418Y16539*
X32497Y16380*
Y16062*
X32418Y15904*
X32339Y15824*
X32180Y15745*
X31703*
Y18195D02*
Y19147D01*
Y18671D02*
X31942D01*
X32497Y19147*
X31942Y18671D02*
X32497Y18195D01*
X32353Y35095D02*
Y36047D01*
Y35571D02*
X32592D01*
X33147Y36047*
X32592Y35571D02*
X33147Y35095D01*
X33654Y22445D02*
Y23397D01*
Y22921D02*
X33892D01*
X34447Y23397*
X33892Y22921D02*
X34447Y22445D01*
X33654Y25195D02*
Y26147D01*
Y25671D02*
X33892D01*
X34447Y26147*
X33892Y25671D02*
X34447Y25195D01*
X33654Y27645D02*
Y28597D01*
Y28121D02*
X33892D01*
X34447Y28597*
X33892Y28121D02*
X34447Y27645D01*
X34004Y29995D02*
Y30947D01*
Y30471D02*
X34242D01*
X34797Y30947*
X34242Y30471D02*
X34797Y29995D01*
X34053Y33245D02*
Y34197D01*
Y33721D02*
X34292D01*
X34847Y34197*
X34292Y33721D02*
X34847Y33245D01*
X34504Y31795D02*
Y32747D01*
Y32271D02*
X34742D01*
X35297Y32747*
X34742Y32271D02*
X35297Y31795D01*
X35669Y36771D02*
X35828Y36692D01*
X35907Y36533*
X35828Y36374*
X35669Y36295*
X35114*
Y37247*
X35669*
X35828Y37168*
X35907Y37009*
X35828Y36851*
X35669Y36771*
X35114*
X35654Y15845D02*
Y16797D01*
Y16321D02*
X35892D01*
X36447Y16797*
X35892Y16321D02*
X36447Y15845D01*
X38209Y36771D02*
X38368Y36692D01*
X38447Y36533*
X38368Y36374*
X38209Y36295*
X37654*
Y37247*
X38209*
X38368Y37168*
X38447Y37009*
X38368Y36851*
X38209Y36771*
X37654*
X37953Y18695D02*
Y19647D01*
X38747*
X38589Y19171D02*
X37953D01*
Y18695D02*
X38747D01*
X37953Y33195D02*
Y34147D01*
X38747*
X38589Y33671D02*
X37953D01*
Y33195D02*
X38747D01*
X40103Y21095D02*
Y22047D01*
Y21571D02*
X40342D01*
X40897Y22047*
X40342Y21571D02*
X40897Y21095D01*
X40154Y24495D02*
Y25447D01*
Y24971D02*
X40392D01*
X40947Y25447*
X40392Y24971D02*
X40947Y24495D01*
X40904Y26995D02*
Y27947D01*
Y27471D02*
X41142D01*
X41697Y27947*
X41142Y27471D02*
X41697Y26995D01*
X40904Y28445D02*
Y29397D01*
Y28921D02*
X41142D01*
X41697Y29397*
X41142Y28921D02*
X41697Y28445D01*
X40904Y29945D02*
Y30897D01*
Y30421D02*
X41142D01*
X41697Y30897*
X41142Y30421D02*
X41697Y29945D01*
X41103Y23195D02*
Y24147D01*
Y23671D02*
X41342D01*
X41897Y24147*
X41342Y23671D02*
X41897Y23195D01*
X41303Y25445D02*
Y26397D01*
Y25921D02*
X41542D01*
X42097Y26397*
X41542Y25921D02*
X42097Y25445D01*
X41453Y21695D02*
Y22647D01*
Y22171D02*
X41692D01*
X42247Y22647*
X41692Y22171D02*
X42247Y21695D01*
X43879Y18695D02*
Y19647D01*
X44672*
X44514Y19171D02*
X43879D01*
Y33195D02*
Y34147D01*
X44672*
X44514Y33671D02*
X43879D01*
X44254Y15845D02*
Y16797D01*
Y16321D02*
X44492D01*
X45047Y16797*
X44492Y16321D02*
X45047Y15845D01*
D02*
D82*
X2213Y15437D03*
Y17237D03*
Y19037D03*
Y20837D03*
Y22637D03*
Y24437D03*
Y26237D03*
Y28037D03*
Y29837D03*
Y31637D03*
Y33437D03*
X4184Y33467D03*
X4204Y31667D03*
X4214Y15437D03*
Y17237D03*
Y19037D03*
Y20837D03*
Y22637D03*
Y24437D03*
Y26237D03*
Y28037D03*
Y29837D03*
X6114Y12537D03*
X6414Y27637D03*
X6963Y15487D03*
X7064Y21087D03*
X7614Y29847D03*
Y32387D03*
Y34927D03*
X8664Y21337D03*
X9614Y16837D03*
X10464Y21537D03*
X11264Y24487D03*
X11364Y17137D03*
X11664Y20587D03*
X11864Y18937D03*
X12064Y31837D03*
X12164Y13087D03*
Y14687D03*
X12564Y25637D03*
X12714Y33937D03*
X12764Y22137D03*
X14014Y32137D03*
X14214Y16737D03*
X14364Y13087D03*
Y14687D03*
X14714Y34737D03*
X15464Y20487D03*
Y23487D03*
X15614Y22087D03*
X15664Y18987D03*
X16564Y13087D03*
Y14687D03*
X16714Y34737D03*
X17414Y24287D03*
X17514Y18887D03*
X18464Y25237D03*
X18714Y34737D03*
X19164Y14237D03*
X19264Y18137D03*
X19614Y26237D03*
X19714Y24387D03*
X20464Y19037D03*
X20714Y34737D03*
X20814Y27137D03*
X21164Y14237D03*
X21764Y18087D03*
X22064Y24387D03*
X22714Y34737D03*
X22864Y27237D03*
X23164Y14237D03*
X23414Y21687D03*
X23714Y29237D03*
X24164Y18287D03*
X24314Y26937D03*
X24714Y34737D03*
X25064Y22537D03*
X25164Y14237D03*
X25464Y28037D03*
X25714Y18187D03*
X25814Y26537D03*
X26514Y29137D03*
X26664Y23537D03*
X26714Y30987D03*
X27064Y25687D03*
X27164Y14237D03*
X28214Y21137D03*
Y26637D03*
X28714Y34587D03*
X29164Y14237D03*
Y16687D03*
X29814Y33587D03*
X31114Y20937D03*
Y23687D03*
Y26137D03*
X31464Y28487D03*
X31514Y31737D03*
X31964Y30287D03*
X32574Y34787D03*
X33114Y14337D03*
X35114Y34787D03*
X35414Y17187D03*
Y31687D03*
X37564Y19587D03*
X37614Y22987D03*
X38364Y25487D03*
Y26937D03*
Y28437D03*
X38564Y21687D03*
X38764Y23937D03*
X38914Y20187D03*
X41339Y17187D03*
Y31687D03*
X41714Y14337D03*
X0Y0D02*
M02*
