%FSLAX23Y23*%
%MOMM*%
G04 EasyPC Gerber Version 16.0.6 Build 3249 *
%ADD95R,0.21840X0.69840*%
%ADD137R,0.44840X0.89840*%
%ADD80R,1.29540X1.42240*%
%ADD94R,0.69840X0.21840*%
%ADD96R,2.49840X0.24840*%
%ADD79R,1.42240X1.29540*%
X0Y0D02*
D02*
D79*
X37721Y34887D03*
X40007D03*
D02*
D80*
X10414Y28494D03*
Y30780D03*
Y32844D03*
Y35130D03*
D02*
D94*
X14014Y18637D03*
Y19137D03*
Y19637D03*
Y20137D03*
Y20637D03*
Y21137D03*
Y21637D03*
Y22137D03*
Y22637D03*
Y23137D03*
Y23637D03*
Y24137D03*
Y24637D03*
Y25137D03*
Y25637D03*
Y26137D03*
Y26637D03*
Y27137D03*
Y27637D03*
Y28137D03*
Y28637D03*
Y29137D03*
Y29637D03*
Y30137D03*
Y30637D03*
X29514Y18637D03*
Y19137D03*
Y19637D03*
Y20137D03*
Y20637D03*
Y21137D03*
Y21637D03*
Y22137D03*
Y22637D03*
Y23137D03*
Y23637D03*
Y24137D03*
Y24637D03*
Y25137D03*
Y25637D03*
Y26137D03*
Y26637D03*
Y27137D03*
Y27637D03*
Y28137D03*
Y28637D03*
Y29137D03*
Y29637D03*
Y30137D03*
Y30637D03*
D02*
D95*
X15764Y16887D03*
Y32387D03*
X16264Y16887D03*
Y32387D03*
X16764Y16887D03*
Y32387D03*
X17264Y16887D03*
Y32387D03*
X17764Y16887D03*
Y32387D03*
X18264Y16887D03*
Y32387D03*
X18764Y16887D03*
Y32387D03*
X19264Y16887D03*
Y32387D03*
X19764Y16887D03*
Y32387D03*
X20264Y16887D03*
Y32387D03*
X20764Y16887D03*
Y32387D03*
X21264Y16887D03*
Y32387D03*
X21764Y16887D03*
Y32387D03*
X22264Y16887D03*
Y32387D03*
X22764Y16887D03*
Y32387D03*
X23264Y16887D03*
Y32387D03*
X23764Y16887D03*
Y32387D03*
X24264Y16887D03*
Y32387D03*
X24764Y16887D03*
Y32387D03*
X25264Y16887D03*
Y32387D03*
X25764Y16887D03*
Y32387D03*
X26264Y16887D03*
Y32387D03*
X26764Y16887D03*
Y32387D03*
X27264Y16887D03*
Y32387D03*
X27764Y16887D03*
Y32387D03*
D02*
D96*
X34714Y19937D03*
Y20437D03*
Y20937D03*
Y21437D03*
Y21937D03*
Y22437D03*
Y22937D03*
Y23437D03*
Y23937D03*
Y24437D03*
Y24937D03*
Y25437D03*
Y25937D03*
Y26437D03*
Y26937D03*
Y27437D03*
Y27937D03*
Y28437D03*
Y28937D03*
D02*
D137*
X6209Y14187D03*
Y19487D03*
X7478Y14187D03*
Y19487D03*
X8749Y14187D03*
Y19487D03*
X10019Y14187D03*
Y19487D03*
X0Y0D02*
M02*
