%FSLAX23Y23*%
%MOMM*%
G04 EasyPC Gerber Version 16.0.6 Build 3249 *
%ADD19R,0.70000X1.30000*%
%ADD18R,1.39700X1.52400*%
%ADD71R,1.50000X1.50000*%
%ADD13R,1.52400X1.52400*%
%ADD17R,1.52400X1.52400*%
%ADD10C,0.12700*%
%ADD25C,0.20000*%
%ADD11C,0.25400*%
%ADD22C,0.30000*%
%ADD23C,0.38100*%
%ADD24C,0.40000*%
%ADD98C,1.00000*%
%ADD20C,1.50000*%
%ADD12C,1.52400*%
%ADD97C,1.90000*%
%ADD15C,2.30000*%
%ADD14C,3.30000*%
%ADD16R,1.52400X1.39700*%
X0Y0D02*
D02*
D10*
X1410Y32357D02*
X1134D01*
Y34516*
X2682*
X3133Y34967*
G75*
G02X3463Y35104I331J-331*
G01*
X4914*
G75*
G02X5244Y34967J-468*
G01*
X6157Y34054*
X6694*
G75*
G02X7614Y36194I919J873*
G01*
G75*
G02X8533Y34054J-1268*
G01*
X10524*
G75*
G02X11173Y33996I289J-418*
G01*
X11824Y33345*
X12150*
G75*
G02X11896Y33937I564J592*
G01*
G75*
G02X13531I818*
G01*
G75*
G02X13516Y33780I-817*
G01*
G75*
G02X13646Y33831I247J-444*
G01*
Y35804*
X15781*
Y35256*
G75*
G02X17714Y35110I933J-520*
G01*
G75*
G02X19714I1000J-374*
G01*
G75*
G02X21134Y35718I1000J-374*
G01*
X21483Y36067*
G75*
G02X21814Y36204I331J-331*
G01*
X22395*
G75*
G02X22328Y36487I569J282*
G01*
Y36652*
X4049*
Y35937*
G75*
G02X3413Y35302I-635*
G01*
X699*
Y13472*
X3413*
G75*
G02X4049Y12837J-635*
G01*
Y12122*
X5409*
G75*
G02X6207Y13349I704J415*
G01*
X6456Y13597*
Y14846*
G75*
G02X6146Y15487I508J641*
G01*
G75*
G02X7781I818*
G01*
G75*
G02X7472Y14846I-818*
G01*
Y13387*
G75*
G02X7323Y13028I-508*
G01*
X6926Y12631*
G75*
G02X6818Y12122I-812J-94*
G01*
X9660*
X9254Y12528*
G75*
G02X9106Y12887I359J359*
G01*
Y16196*
G75*
G02X9178Y17529I508J641*
G01*
X7474*
X5289Y15344*
G75*
G02X3213Y15030I-1075J93*
G01*
G75*
G02X2213Y14357I-1000J407*
G01*
G75*
G02X1617Y16337J1080*
G01*
G75*
G02Y18137I596J900*
G01*
G75*
G02Y19937I596J900*
G01*
G75*
G02Y21737I596J900*
G01*
G75*
G02Y23537I596J900*
G01*
G75*
G02Y25337I596J900*
G01*
G75*
G02Y27137I596J900*
G01*
G75*
G02Y28937I596J900*
G01*
G75*
G02Y30737I596J900*
G01*
G75*
G02X1410Y32357I596J900*
G01*
G36*
X1134*
Y34516*
X2682*
X3133Y34967*
G75*
G02X3463Y35104I331J-331*
G01*
X4914*
G75*
G02X5244Y34967J-468*
G01*
X6157Y34054*
X6694*
G75*
G02X7614Y36194I919J873*
G01*
G75*
G02X8533Y34054J-1268*
G01*
X10524*
G75*
G02X11173Y33996I289J-418*
G01*
X11824Y33345*
X12150*
G75*
G02X11896Y33937I564J592*
G01*
G75*
G02X13531I818*
G01*
G75*
G02X13516Y33780I-817*
G01*
G75*
G02X13646Y33831I247J-444*
G01*
Y35804*
X15781*
Y35256*
G75*
G02X17714Y35110I933J-520*
G01*
G75*
G02X19714I1000J-374*
G01*
G75*
G02X21134Y35718I1000J-374*
G01*
X21483Y36067*
G75*
G02X21814Y36204I331J-331*
G01*
X22395*
G75*
G02X22328Y36487I569J282*
G01*
Y36652*
X4049*
Y35937*
G75*
G02X3413Y35302I-635*
G01*
X699*
Y13472*
X3413*
G75*
G02X4049Y12837J-635*
G01*
Y12122*
X5409*
G75*
G02X6207Y13349I704J415*
G01*
X6456Y13597*
Y14846*
G75*
G02X6146Y15487I508J641*
G01*
G75*
G02X7781I818*
G01*
G75*
G02X7472Y14846I-818*
G01*
Y13387*
G75*
G02X7323Y13028I-508*
G01*
X6926Y12631*
G75*
G02X6818Y12122I-812J-94*
G01*
X9660*
X9254Y12528*
G75*
G02X9106Y12887I359J359*
G01*
Y16196*
G75*
G02X9178Y17529I508J641*
G01*
X7474*
X5289Y15344*
G75*
G02X3213Y15030I-1075J93*
G01*
G75*
G02X2213Y14357I-1000J407*
G01*
G75*
G02X1617Y16337J1080*
G01*
G75*
G02Y18137I596J900*
G01*
G75*
G02Y19937I596J900*
G01*
G75*
G02Y21737I596J900*
G01*
G75*
G02Y23537I596J900*
G01*
G75*
G02Y25337I596J900*
G01*
G75*
G02Y27137I596J900*
G01*
G75*
G02Y28937I596J900*
G01*
G75*
G02Y30737I596J900*
G01*
G75*
G02X1410Y32357I596J900*
G01*
G37*
X4790Y32573D02*
G75*
G02X5154Y31154I-586J-907D01*
G01*
X6241*
X6518Y31432*
G75*
G02X6678Y31532I295J-295*
G01*
G75*
G02X6658Y33219I936J855*
G01*
X6124*
G75*
G02X5583Y33306I-210J418*
G01*
X5249Y33640*
G75*
G02X4790Y32573I-1066J-173*
G01*
G36*
G75*
G02X5154Y31154I-586J-907*
G01*
X6241*
X6518Y31432*
G75*
G02X6678Y31532I295J-295*
G01*
G75*
G02X6658Y33219I936J855*
G01*
X6124*
G75*
G02X5583Y33306I-210J418*
G01*
X5249Y33640*
G75*
G02X4790Y32573I-1066J-173*
G01*
G37*
X5179Y30319D02*
G75*
G02X5215Y29435I-966J-482D01*
G01*
G75*
G02X5473Y29296I-102J-498*
G01*
X6320Y28449*
G75*
G02X7150Y27281I94J-812*
G01*
X8329*
X10904Y29856*
G75*
G02X10699Y29973I109J431*
G01*
X10629Y30042*
X9014*
G75*
G02X8861Y30069I0J445*
G01*
G75*
G02X7614Y28579I-1248J-222*
G01*
G75*
G02X6438Y30320J1268*
G01*
G75*
G02X6414Y30319I-24J416*
G01*
X5179*
G36*
G75*
G02X5215Y29435I-966J-482*
G01*
G75*
G02X5473Y29296I-102J-498*
G01*
X6320Y28449*
G75*
G02X7150Y27281I94J-812*
G01*
X8329*
X10904Y29856*
G75*
G02X10699Y29973I109J431*
G01*
X10629Y30042*
X9014*
G75*
G02X8861Y30069I0J445*
G01*
G75*
G02X7614Y28579I-1248J-222*
G01*
G75*
G02X6438Y30320J1268*
G01*
G75*
G02X6414Y30319I-24J416*
G01*
X5179*
G37*
X7333Y19395D02*
X11186D01*
G75*
G02X12677Y19019I677J-458*
G01*
X13356Y19697*
Y21573*
G75*
G02X12123Y21629I-592J564*
G01*
X11414*
G75*
G02X11273Y21649I0J508*
G01*
G75*
G02X11281Y21537I-810J-112*
G01*
G75*
G02X11242Y21287I-818J0*
G01*
G75*
G02X12481Y20587I422J-700*
G01*
G75*
G02X10993Y20119I-818*
G01*
X10357*
X10144Y19906*
G75*
G02X9814Y19769I-331J331*
G01*
X7707*
X7333Y19395*
G36*
X11186*
G75*
G02X12677Y19019I677J-458*
G01*
X13356Y19697*
Y21573*
G75*
G02X12123Y21629I-592J564*
G01*
X11414*
G75*
G02X11273Y21649I0J508*
G01*
G75*
G02X11281Y21537I-810J-112*
G01*
G75*
G02X11242Y21287I-818J0*
G01*
G75*
G02X12481Y20587I422J-700*
G01*
G75*
G02X10993Y20119I-818*
G01*
X10357*
X10144Y19906*
G75*
G02X9814Y19769I-331J331*
G01*
X7707*
X7333Y19395*
G37*
X8536Y31517D02*
G75*
G02X8659Y31432I-172J-380D01*
G01*
X9159Y30931*
X10814*
G75*
G02X11128Y30801J-445*
G01*
X11198Y30731*
X22179*
X22349Y30901*
G75*
G02X22664Y31031I314J-314*
G01*
X24664*
G75*
G02X24978Y30901J-445*
G01*
X26061Y29818*
G75*
G02X27331Y29137I452J-681*
G01*
G75*
G02X26206Y28379I-818*
G01*
G75*
G02X25906Y27349I-742J-343*
G01*
G75*
G02X26614Y26369I-92J-812*
G01*
G75*
G02X27425Y26420I450J-683*
G01*
G75*
G02X28206Y27454I788J217*
G01*
Y27764*
X27698*
Y29923*
X29730*
Y27764*
X29221*
Y27137*
G75*
G02X29073Y26778I-508*
G01*
X29026Y26731*
G75*
G02X27852Y25904I-812J-94*
G01*
G75*
G02X27516Y25006I-788J-217*
G01*
G75*
G02X27423Y24878I-453J231*
G01*
X27172Y24626*
Y24177*
G75*
G02X27481Y23537I-508J-641*
G01*
G75*
G02X25846I-818*
G01*
G75*
G02X26156Y24177I818*
G01*
Y24660*
X25572Y24076*
Y23177*
G75*
G02X25881Y22537I-508J-641*
G01*
G75*
G02X24246I-818*
G01*
G75*
G02X24555Y23177I818*
G01*
Y24287*
G75*
G02X24704Y24646I508*
G01*
X25305Y25247*
Y25896*
G75*
G02X24997Y26489I508J641*
G01*
G75*
G02X23518Y26747I-684J448*
G01*
G75*
G02X22046Y27237I-655J489*
G01*
G75*
G02X22059Y27380I817J0*
G01*
X21970Y27469*
X21560*
G75*
G02X20409Y26427I-747J-333*
G01*
G75*
G02X19233Y25513I-795J-190*
G01*
G75*
G02X19264Y25069I-769J-277*
G01*
G75*
G02X20354Y24895I450J-683*
G01*
X21423*
G75*
G02X22881Y24387I641J-508*
G01*
G75*
G02X22236Y23588I-818*
G01*
Y21280*
G75*
G02X22473Y21146I-123J-493*
G01*
X23141Y20478*
Y20903*
X23182*
G75*
G02X22596Y21687I232J784*
G01*
G75*
G02X24231I818*
G01*
G75*
G02X24230Y21645I-818J0*
G01*
X27573*
G75*
G02X29031Y21137I641J-508*
G01*
G75*
G02X27586Y20613I-818*
G01*
Y18871*
X26161*
G75*
G02X26531Y18187I-448J-684*
G01*
G75*
G02X24922Y17982I-818*
G01*
G75*
G02X23346Y18287I-759J305*
G01*
G75*
G02X23591Y18871I818J0*
G01*
X23141*
Y19379*
X23014*
G75*
G02X22654Y19528J508*
G01*
X22236Y19946*
Y19771*
X21665*
Y19730*
G75*
G02X21516Y19371I-508*
G01*
X21276Y19131*
G75*
G02X21197Y18677I-812J-94*
G01*
G75*
G02X22581Y18087I566J-590*
G01*
G75*
G02X20946I-818*
G01*
G75*
G02X21030Y18447I818*
G01*
G75*
G02X20059Y18327I-566J590*
G01*
G75*
G02X20081Y18137I-795J-190*
G01*
G75*
G02X18446I-818*
G01*
G75*
G02X19668Y18847I818*
G01*
G75*
G02X20104Y19771I795J190*
G01*
X20077*
Y23655*
G75*
G02X19950Y23604I-363J732*
G01*
Y19771*
X18022*
Y19527*
G75*
G02X18331Y18887I-508J-641*
G01*
G75*
G02X16696I-818*
G01*
G75*
G02X16699Y18954I817J0*
G01*
X16420Y18675*
G75*
G02X14845Y18987I-756J312*
G01*
G75*
G02X15256Y19696I818*
G01*
G75*
G02X15389Y21301I208J791*
G01*
G75*
G02X15125Y22743I225J786*
G01*
G75*
G02X15067Y22772I339J744*
G01*
X14372Y22076*
Y19487*
G75*
G02X14223Y19128I-508*
G01*
X13434Y18339*
G75*
G02X13514Y18345I80J-502*
G01*
X14714*
G75*
G02X15073Y18196J-508*
G01*
X15374Y17895*
X16464*
G75*
G02X16823Y17746J-508*
G01*
X18224Y16345*
X28421*
G75*
G02X28346Y16687I743J342*
G01*
G75*
G02X29981I818*
G01*
G75*
G02X29906Y16345I-818J0*
G01*
X31264*
G75*
G02X31623Y16196J-508*
G01*
X32749Y15069*
G75*
G02X33932Y14337I364J-733*
G01*
G75*
G02X32357Y14025I-818*
G01*
X31053Y15329*
X18014*
G75*
G02X17654Y15478J508*
G01*
X16253Y16879*
X15164*
G75*
G02X15014Y16901J508*
G01*
G75*
G02X13620Y16175I-801J-164*
G01*
X12911Y15466*
G75*
G02X13102Y14154I-747J-779*
G01*
X13231*
Y12595*
X13403*
G75*
G02X13639Y13887I961J492*
G01*
G75*
G02X13284Y14687I725J800*
G01*
G75*
G02X15443I1080*
G01*
G75*
G02X15088Y13887I-1080*
G01*
G75*
G02X14847Y12122I-725J-800*
G01*
X16080*
G75*
G02X15839Y13887I484J965*
G01*
G75*
G02X15484Y14687I725J800*
G01*
G75*
G02X17643I1080*
G01*
G75*
G02X17288Y13887I-1080*
G01*
G75*
G02X17047Y12122I-725J-800*
G01*
X22379*
Y12337*
G75*
G02X23014Y12972I635*
G01*
X44478*
Y35852*
X36193*
Y33707*
X35102*
X35007Y33612*
G75*
G02X36684Y30185I406J-1925*
G01*
X39237*
X39526Y30474*
G75*
G02X39914Y30635I388J-388*
G01*
X40315*
G75*
G02X41339Y33154I1023J1052*
G01*
G75*
G02X42362Y30635J-1468*
G01*
X42964*
G75*
G02X43351Y30474J-548*
G01*
X43601Y30224*
G75*
G02X43762Y29837I-388J-388*
G01*
Y29653*
X44286*
Y27621*
X43862*
Y27204*
X43981*
Y25269*
X43299*
X43623Y24946*
G75*
G02X43772Y24587I-359J-359*
G01*
Y24304*
X43981*
Y22369*
X43862*
Y22053*
X44386*
Y20021*
X43912*
Y15987*
G75*
G02X43751Y15599I-548*
G01*
X42530Y14378*
G75*
G02X42531Y14337I-818J-42*
G01*
G75*
G02X40896I-818*
G01*
G75*
G02X41755Y15153I818*
G01*
X42815Y16214*
Y20021*
X42227*
Y22053*
X42766*
Y22369*
X40746*
Y24304*
X42755*
Y24376*
X42603Y24529*
X42364*
G75*
G02X42004Y24678J508*
G01*
X41413Y25269*
X40746*
Y27204*
X42081*
Y26038*
X42574Y25545*
X42646*
Y27204*
X42766*
Y27612*
G75*
G02X42759Y27621I441J325*
G01*
X42127*
Y29539*
X42000*
Y27621*
X39841*
Y29240*
G75*
G02X39464Y29089I-378J397*
G01*
X38857*
G75*
G02X38689Y27687I-493J-652*
G01*
G75*
G02X38741Y26212I-325J-750*
G01*
G75*
G02X38725Y24753I-378J-725*
G01*
G75*
G02X39581Y23937I39J-817*
G01*
G75*
G02X38402Y23204I-818*
G01*
G75*
G02X38203Y22421I-788J-217*
G01*
G75*
G02X39005Y20999I360J-734*
G01*
G75*
G02X39731Y20187I-92J-812*
G01*
G75*
G02X38381Y19567I-818*
G01*
G75*
G02X36746Y19587I-817J20*
G01*
G75*
G02X37056Y20227I818*
G01*
Y20276*
X36836Y20496*
Y20171*
X34677*
Y26103*
X36836*
Y25595*
X37064*
G75*
G02X37423Y25446J-508*
G01*
X37567Y25301*
G75*
G02X37986Y26212I796J185*
G01*
G75*
G02X38038Y27687I378J725*
G01*
G75*
G02X37870Y29089I325J750*
G01*
X34241*
X34019Y28867*
Y26103*
X34550*
Y20171*
X32391*
Y26103*
X32923*
Y29094*
G75*
G02X33083Y29481I548*
G01*
X33626Y30024*
G75*
G02X34014Y30185I388J-388*
G01*
X34143*
G75*
G02X33489Y32093I1271J1502*
G01*
X32823Y31428*
G75*
G02X32464Y31279I-359J359*
G01*
X32191*
G75*
G02X32028Y31102I-677J458*
G01*
G75*
G02X32781Y30287I-65J-815*
G01*
G75*
G02X31146I-818*
G01*
G75*
G02X31449Y30922I818*
G01*
G75*
G02X30696Y31737I65J815*
G01*
G75*
G02X32111Y32295I818*
G01*
X32253*
X34034Y34076*
Y35852*
X33653*
Y33707*
X31494*
Y35852*
X27960*
X28451Y35361*
G75*
G02X29492Y34339I263J-774*
G01*
G75*
G02X30631Y33587I321J-752*
G01*
G75*
G02X29143Y33119I-818*
G01*
X28214*
G75*
G02X27883Y33256J468*
G01*
X27820Y33319*
X27048*
G75*
G02X27221Y32937I-334J-383*
G01*
Y31627*
G75*
G02X27531Y30987I-508J-641*
G01*
G75*
G02X25896I-818*
G01*
G75*
G02X26206Y31627I818*
G01*
Y32784*
X26120Y32869*
X19086*
Y31121*
X16927*
Y32869*
X16800*
Y31121*
X14641*
Y31613*
G75*
G02X13219Y32329I-627J524*
G01*
X12716*
G75*
G02X12881Y31837I-653J-492*
G01*
G75*
G02X11246I-818*
G01*
G75*
G02X11436Y32361I818*
G01*
G75*
G02X11254Y32478I178J476*
G01*
X10513Y33219*
X8569*
G75*
G02X8536Y31517I-956J-833*
G01*
X20164Y13863D02*
G75*
G02X18096Y14237I-1000J374D01*
G01*
G75*
G02X20164Y14610I1067*
G01*
G75*
G02X22164I1000J-374*
G01*
G75*
G02X24164I1000J-374*
G01*
G75*
G02X26164I1000J-374*
G01*
G75*
G02X28096Y14756I1000J-374*
G01*
Y15304*
X30231*
Y13169*
X28096*
Y13717*
G75*
G02X26164Y13863I-933J520*
G01*
G75*
G02X24164I-1000J374*
G01*
G75*
G02X22164I-1000J374*
G01*
G75*
G02X20164I-1000J374*
G01*
X29730Y32209D02*
Y30050D01*
X27698*
Y32209*
X29730*
X30296Y20937D02*
G75*
G02X31931I818D01*
G01*
G75*
G02X30296I-818*
G01*
Y23687D02*
G75*
G02X31931I818D01*
G01*
G75*
G02X30296I-818*
G01*
Y26137D02*
G75*
G02X31931I818D01*
G01*
G75*
G02X30296I-818*
G01*
X30646Y28487D02*
G75*
G02X32281I818D01*
G01*
G75*
G02X30646I-818*
G01*
X35414Y15219D02*
G75*
G02Y19154J1968D01*
G01*
G75*
G02Y15219J-1968*
G01*
X39941Y22053D02*
X42100D01*
Y20021*
X39941*
Y22053*
X41339Y15719D02*
G75*
G02Y18654J1468D01*
G01*
G75*
G02Y15719J-1468*
G01*
X17545Y14237D02*
G36*
G75*
G02X17288Y13887I-981J450D01*
G01*
G75*
G02X17047Y12122I-725J-800*
G01*
X22379*
Y12337*
G75*
G02X23014Y12972I635*
G01*
X44478*
Y35852*
X36193*
Y33707*
X35102*
X35007Y33612*
G75*
G02X36684Y30185I406J-1925*
G01*
X39237*
X39526Y30474*
G75*
G02X39914Y30635I388J-388*
G01*
X40315*
G75*
G02X41339Y33154I1023J1052*
G01*
G75*
G02X42362Y30635J-1468*
G01*
X42964*
G75*
G02X43351Y30474J-548*
G01*
X43601Y30224*
G75*
G02X43762Y29837I-388J-388*
G01*
Y29653*
X44286*
Y27621*
X43862*
Y27204*
X43981*
Y25269*
X43299*
X43623Y24946*
G75*
G02X43772Y24587I-359J-359*
G01*
Y24304*
X43981*
Y22369*
X43862*
Y22053*
X44386*
Y20021*
X43912*
Y15987*
G75*
G02X43751Y15599I-548*
G01*
X42530Y14378*
G75*
G02X42531Y14337I-818J-42*
G01*
G75*
G02X40896I-818*
G01*
G75*
G02X41755Y15153I818*
G01*
X42815Y16214*
Y17187*
X42806*
G75*
G02X41339Y15719I-1468*
G01*
G75*
G02X39871Y17187J1468*
G01*
X37381*
G75*
G02X35414Y15219I-1968*
G01*
G75*
G02X33446Y17187J1968*
G01*
X29810*
G75*
G02X29981Y16687I-647J-500*
G01*
G75*
G02X29906Y16345I-818J0*
G01*
X31264*
G75*
G02X31623Y16196J-508*
G01*
X32749Y15069*
G75*
G02X33932Y14337I364J-733*
G01*
G75*
G02X32357Y14025I-818*
G01*
X32145Y14237*
X30231*
Y13169*
X28096*
Y13717*
G75*
G02X26164Y13863I-933J520*
G01*
G75*
G02X24164I-1000J374*
G01*
G75*
G02X22164I-1000J374*
G01*
G75*
G02X20164I-1000J374*
G01*
G75*
G02X18096Y14237I-1000J374*
G01*
X17545*
G37*
X18096D02*
G36*
G75*
G02X20164Y14610I1067D01*
G01*
G75*
G02X22164I1000J-374*
G01*
G75*
G02X24164I1000J-374*
G01*
G75*
G02X26164I1000J-374*
G01*
G75*
G02X28096Y14756I1000J-374*
G01*
Y15304*
X30231*
Y14237*
X32145*
X31053Y15329*
X18014*
G75*
G02X17654Y15478J508*
G01*
X16253Y16879*
X15164*
G75*
G02X15014Y16901J508*
G01*
G75*
G02X13620Y16175I-801J-164*
G01*
X12911Y15466*
G75*
G02X13102Y14154I-747J-779*
G01*
X13231*
Y12595*
X13403*
G75*
G02X13639Y13887I961J492*
G01*
G75*
G02X13284Y14687I725J800*
G01*
G75*
G02X15443I1080*
G01*
G75*
G02X15088Y13887I-1080*
G01*
G75*
G02X14847Y12122I-725J-800*
G01*
X16080*
G75*
G02X15839Y13887I484J965*
G01*
G75*
G02X15484Y14687I725J800*
G01*
G75*
G02X17643I1080*
G01*
G75*
G02X17545Y14237I-1080J0*
G01*
X18096*
G37*
X27518Y31130D02*
G36*
G75*
G02X27531Y30987I-805J-143D01*
G01*
G75*
G02X25896I-818*
G01*
G75*
G02X26206Y31627I818*
G01*
Y32784*
X26120Y32869*
X19086*
Y31121*
X16927*
Y32869*
X16800*
Y31121*
X14641*
Y31613*
G75*
G02X13219Y32329I-627J524*
G01*
X12716*
G75*
G02X12881Y31837I-653J-492*
G01*
G75*
G02X11246I-818*
G01*
G75*
G02X11436Y32361I818*
G01*
G75*
G02X11254Y32478I178J476*
G01*
X10513Y33219*
X8569*
G75*
G02X8536Y31517I-956J-833*
G01*
G75*
G02X8659Y31432I-172J-380*
G01*
X9159Y30931*
X10814*
G75*
G02X11128Y30801J-445*
G01*
X11198Y30731*
X22179*
X22349Y30901*
G75*
G02X22664Y31031I314J-314*
G01*
X24664*
G75*
G02X24978Y30901J-445*
G01*
X26061Y29818*
G75*
G02X27331Y29137I452J-681*
G01*
G75*
G02X26206Y28379I-818*
G01*
G75*
G02X25906Y27349I-742J-343*
G01*
G75*
G02X26614Y26369I-92J-812*
G01*
G75*
G02X27425Y26420I450J-683*
G01*
G75*
G02X28206Y27454I788J217*
G01*
Y27764*
X27698*
Y29923*
X29730*
Y28487*
X30646*
G75*
G02X32281I818*
G01*
X32923*
Y29094*
G75*
G02X33083Y29481I548*
G01*
X33626Y30024*
G75*
G02X34014Y30185I388J-388*
G01*
X34143*
G75*
G02X33489Y32093I1271J1502*
G01*
X32823Y31428*
G75*
G02X32464Y31279I-359J359*
G01*
X32191*
G75*
G02X32028Y31102I-677J458*
G01*
G75*
G02X32781Y30287I-65J-815*
G01*
G75*
G02X31146I-818*
G01*
G75*
G02X31449Y30922I818*
G01*
G75*
G02X30966Y31130I65J815*
G01*
X29730*
Y30050*
X27698*
Y31130*
X27518*
G37*
X27698D02*
G36*
Y32209D01*
X29730*
Y31130*
X30966*
G75*
G02X30696Y31737I548J607*
G01*
G75*
G02X32111Y32295I818*
G01*
X32253*
X34034Y34076*
Y35852*
X33653*
Y33707*
X31494*
Y35852*
X27960*
X28451Y35361*
G75*
G02X29492Y34339I263J-774*
G01*
G75*
G02X30631Y33587I321J-752*
G01*
G75*
G02X29143Y33119I-818*
G01*
X28214*
G75*
G02X27883Y33256J468*
G01*
X27820Y33319*
X27048*
G75*
G02X27221Y32937I-334J-383*
G01*
Y31627*
G75*
G02X27518Y31130I-508J-641*
G01*
X27698*
G37*
X29006Y20937D02*
G36*
G75*
G02X27586Y20613I-793J200D01*
G01*
Y18871*
X26161*
G75*
G02X26531Y18187I-448J-684*
G01*
G75*
G02X24922Y17982I-818*
G01*
G75*
G02X23346Y18287I-759J305*
G01*
G75*
G02X23591Y18871I818J0*
G01*
X23141*
Y19379*
X23014*
G75*
G02X22654Y19528J508*
G01*
X22236Y19946*
Y19771*
X21665*
Y19730*
G75*
G02X21516Y19371I-508*
G01*
X21276Y19131*
G75*
G02X21197Y18677I-812J-94*
G01*
G75*
G02X22581Y18087I566J-590*
G01*
G75*
G02X20946I-818*
G01*
G75*
G02X21030Y18447I818*
G01*
G75*
G02X20059Y18327I-566J590*
G01*
G75*
G02X20081Y18137I-795J-190*
G01*
G75*
G02X18446I-818*
G01*
G75*
G02X19668Y18847I818*
G01*
G75*
G02X20104Y19771I795J190*
G01*
X20077*
Y23655*
G75*
G02X19950Y23604I-363J732*
G01*
Y19771*
X18022*
Y19527*
G75*
G02X18331Y18887I-508J-641*
G01*
G75*
G02X16696I-818*
G01*
G75*
G02X16699Y18954I817J0*
G01*
X16420Y18675*
G75*
G02X14845Y18987I-756J312*
G01*
G75*
G02X15256Y19696I818*
G01*
G75*
G02X15389Y21301I208J791*
G01*
G75*
G02X15125Y22743I225J786*
G01*
G75*
G02X15067Y22772I339J744*
G01*
X14372Y22076*
Y19487*
G75*
G02X14223Y19128I-508*
G01*
X13434Y18339*
G75*
G02X13514Y18345I80J-502*
G01*
X14714*
G75*
G02X15073Y18196J-508*
G01*
X15374Y17895*
X16464*
G75*
G02X16823Y17746J-508*
G01*
X18224Y16345*
X28421*
G75*
G02X28346Y16687I743J342*
G01*
G75*
G02X29810Y17187I818*
G01*
X33446*
G75*
G02X35414Y19154I1968*
G01*
G75*
G02X37381Y17187J-1968*
G01*
X39871*
G75*
G02X41339Y18654I1468*
G01*
G75*
G02X42806Y17187J-1468*
G01*
X42815*
Y20021*
X42227*
Y20937*
X42100*
Y20021*
X39941*
Y20937*
X39239*
G75*
G02X39731Y20187I-325J-750*
G01*
G75*
G02X38381Y19567I-818*
G01*
G75*
G02X36746Y19587I-817J20*
G01*
G75*
G02X37056Y20227I818*
G01*
Y20276*
X36836Y20496*
Y20171*
X34677*
Y26103*
X36836*
Y25595*
X37064*
G75*
G02X37423Y25446J-508*
G01*
X37567Y25301*
G75*
G02X37986Y26212I796J185*
G01*
G75*
G02X38038Y27687I378J725*
G01*
G75*
G02X37870Y29089I325J750*
G01*
X34241*
X34019Y28867*
Y26103*
X34550*
Y20171*
X32391*
Y20937*
X31931*
G75*
G02X30296I-818*
G01*
X29006*
G37*
X30296D02*
G36*
G75*
G02X31931I818D01*
G01*
X32391*
Y23687*
X31931*
G75*
G02X30296I-818*
G01*
X27467*
G75*
G02X27481Y23537I-804J-150*
G01*
G75*
G02X25846I-818*
G01*
G75*
G02X26156Y24177I818*
G01*
Y24660*
X25572Y24076*
Y23177*
G75*
G02X25881Y22537I-508J-641*
G01*
G75*
G02X24246I-818*
G01*
G75*
G02X24555Y23177I818*
G01*
Y24287*
G75*
G02X24704Y24646I508*
G01*
X25305Y25247*
Y25896*
G75*
G02X24997Y26489I508J641*
G01*
G75*
G02X23518Y26747I-684J448*
G01*
G75*
G02X22046Y27237I-655J489*
G01*
G75*
G02X22059Y27380I817J0*
G01*
X21970Y27469*
X21560*
G75*
G02X20409Y26427I-747J-333*
G01*
G75*
G02X19233Y25513I-795J-190*
G01*
G75*
G02X19264Y25069I-769J-277*
G01*
G75*
G02X20354Y24895I450J-683*
G01*
X21423*
G75*
G02X22881Y24387I641J-508*
G01*
G75*
G02X22236Y23588I-818*
G01*
Y21280*
G75*
G02X22473Y21146I-123J-493*
G01*
X23141Y20478*
Y20903*
X23182*
G75*
G02X22596Y21687I232J784*
G01*
G75*
G02X24231I818*
G01*
G75*
G02X24230Y21645I-818J0*
G01*
X27573*
G75*
G02X29031Y21137I641J-508*
G01*
G75*
G02X29006Y20937I-818J0*
G01*
X30296*
G37*
X39941D02*
G36*
Y22053D01*
X42100*
Y20937*
X42227*
Y22053*
X42766*
Y22369*
X40746*
Y24304*
X42755*
Y24376*
X42603Y24529*
X42364*
G75*
G02X42004Y24678J508*
G01*
X41413Y25269*
X40746*
Y27204*
X42081*
Y26038*
X42574Y25545*
X42646*
Y27204*
X42766*
Y27612*
G75*
G02X42759Y27621I441J325*
G01*
X42127*
Y29539*
X42000*
Y27621*
X39841*
Y29240*
G75*
G02X39464Y29089I-378J397*
G01*
X38857*
G75*
G02X38689Y27687I-493J-652*
G01*
G75*
G02X38741Y26212I-325J-750*
G01*
G75*
G02X38725Y24753I-378J-725*
G01*
G75*
G02X39581Y23937I39J-817*
G01*
G75*
G02X38402Y23204I-818*
G01*
G75*
G02X38203Y22421I-788J-217*
G01*
G75*
G02X39005Y20999I360J-734*
G01*
G75*
G02X39239Y20937I-92J-812*
G01*
X39941*
G37*
X30296Y23687D02*
G36*
G75*
G02X31931I818D01*
G01*
X32391*
Y26103*
X32923*
Y26137*
X31931*
G75*
G02X30296I-818*
G01*
X28860*
G75*
G02X27852Y25904I-647J500*
G01*
G75*
G02X27516Y25006I-788J-217*
G01*
G75*
G02X27423Y24878I-453J231*
G01*
X27172Y24626*
Y24177*
G75*
G02X27467Y23687I-508J-641*
G01*
X30296*
G37*
Y26137D02*
G36*
G75*
G02X31931I818D01*
G01*
X32923*
Y28487*
X32281*
G75*
G02X30646I-818*
G01*
X29730*
Y27764*
X29221*
Y27137*
G75*
G02X29073Y26778I-508*
G01*
X29026Y26731*
G75*
G02X28860Y26137I-812J-94*
G01*
X30296*
G37*
X10049Y17529D02*
G75*
G02X10121Y16196I-435J-692D01*
G01*
Y13097*
X10624Y12595*
X11096*
Y14154*
X11225*
G75*
G02X11744Y15682I939J532*
G01*
G75*
G02X11854Y15846I469J-195*
G01*
X12637Y16629*
X12004*
G75*
G02X10646Y17529I-641J508*
G01*
X10049*
G36*
G75*
G02X10121Y16196I-435J-692*
G01*
Y13097*
X10624Y12595*
X11096*
Y14154*
X11225*
G75*
G02X11744Y15682I939J532*
G01*
G75*
G02X11854Y15846I469J-195*
G01*
X12637Y16629*
X12004*
G75*
G02X10646Y17529I-641J508*
G01*
X10049*
G37*
X12010Y24154D02*
X13270D01*
X14683Y25567*
G75*
G02X15014Y25704I331J-331*
G01*
X17793*
G75*
G02X17811Y25729I671J-466*
G01*
X13864*
G75*
G02X13504Y25878J508*
G01*
X13363Y26019*
X13286*
G75*
G02X12470Y24825I-723J-383*
G01*
X12079Y24434*
G75*
G02X12010Y24154I-816J53*
G01*
G36*
X13270*
X14683Y25567*
G75*
G02X15014Y25704I331J-331*
G01*
X17793*
G75*
G02X17811Y25729I671J-466*
G01*
X13864*
G75*
G02X13504Y25878J508*
G01*
X13363Y26019*
X13286*
G75*
G02X12470Y24825I-723J-383*
G01*
X12079Y24434*
G75*
G02X12010Y24154I-816J53*
G01*
G37*
X25639Y35269D02*
G75*
G02X25666Y34254I-925J-532D01*
G01*
X27967*
G75*
G02X27896Y34587I747J333*
G01*
G75*
G02Y34593I813J3*
G01*
X27220Y35269*
X25639*
G36*
G75*
G02X25666Y34254I-925J-532*
G01*
X27967*
G75*
G02X27896Y34587I747J333*
G01*
G75*
G02Y34593I813J3*
G01*
X27220Y35269*
X25639*
G37*
D02*
D11*
X1765Y23988D02*
X1405Y23629D01*
X1765Y24886D02*
X1405Y25245D01*
X2213Y26087D02*
Y26237D01*
Y28037D02*
Y27787D01*
X4839Y31667D02*
X5347D01*
X4914Y27137D02*
X5214Y26837D01*
X8514*
X11414Y29737*
X22714*
X23014Y30037*
X24364*
X25464Y28937*
Y28037*
X6791Y32387D02*
X6283D01*
X8437D02*
X8945D01*
X9014Y30487D02*
X10814D01*
X11014Y30287*
X22364*
X22664Y30587*
X24664*
X26114Y29137*
X11691Y31837D02*
X11183D01*
X12064Y31464D02*
Y30956D01*
X12341Y33937D02*
X11833D01*
X12437Y31837D02*
X12944D01*
X12714Y34310D02*
Y34818D01*
X15200Y20223D02*
X14841Y19864D01*
X15200Y20751D02*
X14841Y21110D01*
X15241Y22087D02*
X14733D01*
X16114Y12638D02*
X15755Y12279D01*
X16273Y35177D02*
X15914Y35537D01*
X17013Y12638D02*
X17372Y12279D01*
X17154Y35177D02*
X17513Y35537D01*
X17372Y32137D02*
X16864D01*
X17414Y24337D02*
Y24287D01*
X18007Y31565D02*
Y31057D01*
X18642Y32137D02*
X19150D01*
X18723Y13796D02*
X18364Y13437D01*
X18723Y14677D02*
X18364Y15037D01*
X18891Y18137D02*
X18383D01*
X19264Y17764D02*
Y17256D01*
Y18510D02*
Y19018D01*
X19604Y13796D02*
X19963Y13437D01*
X19604Y14677D02*
X19963Y15037D01*
X19637Y18137D02*
X20145D01*
X21391Y18087D02*
X20883D01*
X21764Y17714D02*
Y17206D01*
Y18460D02*
Y18968D01*
X22137Y18087D02*
X22645D01*
X23714Y29237D02*
Y29187D01*
X11664*
X8714Y26237*
X4214*
X24314Y26937D02*
Y27387D01*
X23214Y28487*
X11864*
X9164Y25787*
X5814*
X5364Y25337*
X25714Y17814D02*
Y17306D01*
X26087Y18187D02*
X26595D01*
X26507Y19315D02*
Y18807D01*
X27142Y19887D02*
X27650D01*
X28142Y31130D02*
X27634D01*
X28714Y30495D02*
Y29987D01*
Y31765D02*
Y32273D01*
X28791Y16687D02*
X28283D01*
X29164Y17060D02*
Y17568D01*
X29285Y31130D02*
X29793D01*
X29537Y16687D02*
X30045D01*
X30741Y20937D02*
X30233D01*
X30741Y23687D02*
X30233D01*
X30741Y26137D02*
X30233D01*
X31090Y28487D02*
X30583D01*
X31114Y20564D02*
Y20056D01*
Y21310D02*
Y21818D01*
Y23314D02*
Y22806D01*
Y24060D02*
Y24568D01*
Y25764D02*
Y25256D01*
Y26510D02*
Y27018D01*
X31464Y28114D02*
Y27606D01*
Y28860D02*
Y29368D01*
X31487Y20937D02*
X31995D01*
X31487Y23687D02*
X31995D01*
X31487Y26137D02*
X31995D01*
X31590Y30287D02*
X31083D01*
X31837Y28487D02*
X32344D01*
X31939Y34787D02*
X31431D01*
X31964Y29914D02*
Y29406D01*
X32337Y30287D02*
X32844D01*
X32574Y34152D02*
Y33644D01*
X33209Y34787D02*
X33717D01*
X36264Y23137D02*
X37614Y21787D01*
X38464*
X38564Y21687*
X37991Y28437D02*
X37483D01*
X38100Y25751D02*
X37741Y26110D01*
X38100Y26673D02*
X37741Y26314D01*
X38100Y27201D02*
X37741Y27560D01*
X38364Y25487D02*
Y26937D01*
Y28437*
X38627Y25223D02*
X38987Y24864D01*
X38627Y25751D02*
X38987Y26110D01*
X38627Y26673D02*
X38987Y26314D01*
X38627Y27201D02*
X38987Y27560D01*
X38737Y28437D02*
X39245D01*
X38764Y23564D02*
Y23056D01*
X38914Y19814D02*
Y19306D01*
X39137Y23937D02*
X39645D01*
X39287Y20187D02*
X39795D01*
X40286Y28637D02*
X39778D01*
X40386Y21037D02*
X39878D01*
X40921Y28065D02*
Y27557D01*
X41021Y20465D02*
Y19957D01*
Y21608D02*
Y22116D01*
X41556Y28637D02*
X42064D01*
X41656Y21037D02*
X42164D01*
X42364Y22814D02*
Y22306D01*
Y23860D02*
Y24368D01*
D02*
D12*
X2213Y15437D03*
Y17237D03*
Y19037D03*
Y20837D03*
Y22637D03*
Y24437D03*
Y26237D03*
Y28037D03*
Y29837D03*
Y31637D03*
X4184Y33467D03*
X4204Y31667D03*
X4214Y15437D03*
Y17237D03*
Y19037D03*
Y20837D03*
Y22637D03*
Y24437D03*
Y26237D03*
Y28037D03*
Y29837D03*
X12164Y14687D03*
X14364Y13087D03*
Y14687D03*
X16564Y13087D03*
Y14687D03*
D02*
D13*
X2213Y33437D03*
D02*
D14*
X35414Y17187D03*
Y31687D03*
D02*
D15*
X41339Y17187D03*
Y31687D03*
D02*
D16*
X15720Y32137D03*
X18007D03*
X18870Y20787D03*
Y22737D03*
X21157Y20787D03*
Y22737D03*
X24221Y19887D03*
X26507D03*
X33471Y21187D03*
Y23137D03*
Y25087D03*
X35757Y21187D03*
Y23137D03*
Y25087D03*
X40921Y28637D03*
X41021Y21037D03*
X43207Y28637D03*
X43307Y21037D03*
D02*
D17*
X32574Y34787D03*
X35114D03*
D02*
D18*
X28714Y28844D03*
Y31130D03*
D02*
D19*
X41414Y23337D03*
Y26237D03*
X42364Y23337D03*
X43314D03*
Y26237D03*
D02*
D71*
X12164Y13087D03*
X14714Y34737D03*
X29164Y14237D03*
D02*
D20*
X16714Y34737D03*
X18714D03*
X19164Y14237D03*
X20714Y34737D03*
X21164Y14237D03*
X22714Y34737D03*
X23164Y14237D03*
X24714Y34737D03*
X25164Y14237D03*
X27164D03*
D02*
D22*
X5314Y23537D02*
X6513Y24737D01*
X9564*
X11964Y27137*
X20814*
X5414Y18137D02*
X7513Y20237D01*
X9814*
X10164Y20587*
X11664*
X5914Y33637D02*
X4914Y34637D01*
X3463*
X2264Y33437*
X2213*
X5964Y20687D02*
Y21287D01*
X7814Y23137*
X13814*
X14964Y24287*
X17414*
X7263Y24187D02*
X9814D01*
X12114Y26487*
X13614*
X18464Y25237D02*
X15014D01*
X13464Y23687*
X7513*
X4664Y20837*
X4214*
X20814Y34737D02*
X21814Y35737D01*
X27414*
X28564Y34587*
X28714*
X22864Y27237D02*
X22164Y27937D01*
X12014*
X9364Y25287*
X6114*
X5264Y24437*
X26114Y29137D02*
X26514D01*
X26714Y32937D02*
X26314Y33337D01*
X13764*
X29814Y33587D02*
X28214D01*
X28014Y33787*
X19564*
X18714Y34637*
X38364Y24737D02*
Y25487D01*
X38764Y23937D02*
Y24337D01*
D02*
D23*
X1764Y33637D02*
X1964Y33437D01*
X2213*
Y15437D02*
X2264D01*
X3163Y16337*
X2213Y17237D02*
X2563D01*
X3463Y18137*
X2213Y20837D02*
Y20987D01*
X2963Y21737*
X2213Y22637D02*
X2364D01*
X3263Y23537*
X2213Y28037D02*
Y28087D01*
Y29837D02*
X2313D01*
X2213Y31637D02*
X2264Y31587D01*
X4214Y15437D02*
X4664D01*
X7263Y18037*
X12414*
X13864Y19487*
Y22287*
X14914Y23337*
X15514*
X15564Y23387*
Y23487*
X15464*
X4214Y19037D02*
X4314D01*
X5964Y20687*
X4214Y26237D02*
Y26187D01*
X5114Y28937D02*
X6414Y27637D01*
X5264Y24437D02*
X4214D01*
X6963Y15487D02*
Y13387D01*
X6114Y12537*
X7064Y21087D02*
X8414Y22437D01*
X11114*
X11414Y22137*
X12764*
X7263Y18887D02*
X11864D01*
Y18937*
X8664Y21337D02*
X9464D01*
X9614Y21487*
Y21537*
X10464*
X9614Y16837D02*
Y12887D01*
X10414Y12087*
X13764*
X14364Y12687*
Y13087*
X11264Y24487D02*
X11414D01*
X12564Y25637*
X12064Y31837D02*
X11914D01*
X13614Y26487D02*
X13864Y26237D01*
X19614*
X13764Y33337D02*
X13264Y32837D01*
X11614*
X10814Y33637*
X14214Y16737D02*
X13464D01*
X12214Y15487*
Y14737*
X12164Y14687*
X15664Y18987D02*
X16014D01*
X16564Y19537*
Y21937*
X17364Y22737*
X18870*
X15720Y32137D02*
X14014D01*
X17514Y18887D02*
Y20387D01*
X17914Y20787*
X18870*
X18714Y34637D02*
Y34737D01*
X19714Y24387D02*
X22064D01*
X20714Y34737D02*
X20814D01*
X21157Y20787D02*
Y19730D01*
X20464Y19037*
X21157Y20787D02*
X22114D01*
X23014Y19887*
X24221*
X21157Y22737D02*
Y20787D01*
X24164Y18287D02*
Y19830D01*
X24221Y19887*
X25814Y26537D02*
Y25037D01*
X25064Y24287*
Y22537*
X26714Y30987D02*
Y32937D01*
X27064Y25687D02*
Y25237D01*
X26664Y24837*
Y23537*
X28214Y21137D02*
X23864D01*
X23414Y21587*
Y21687*
X28714Y28844D02*
Y27137D01*
X28214Y26637*
X33114Y14337D02*
X32764D01*
X31264Y15837*
X18014*
X16464Y17387*
X15164*
X14714Y17837*
X13514*
X12814Y17137*
X11364*
X33471Y21187D02*
Y25087D01*
Y29094*
X34014Y29637*
X39464*
X39914Y30087*
X42964*
X43214Y29837*
Y29044*
X43207Y29037*
Y28637*
X35114Y34787D02*
Y34437D01*
X32464Y31787*
X31564*
X31514Y31737*
X35757Y21187D02*
X36864D01*
X37564Y20487*
Y19587*
X35757Y23137D02*
X36264D01*
X35757Y25087D02*
X37064D01*
X37614Y24537*
Y22987*
X38764Y24337D02*
X38364Y24737D01*
X41414Y26237D02*
Y25987D01*
X42364Y25037*
X42814*
X43264Y24587*
Y23387*
X43314Y23337*
X43207Y28637D02*
X43214D01*
Y27937*
X43314Y27837*
Y26237*
X43307Y21037D02*
X43314D01*
X43364Y20987*
Y15987*
X41714Y14337*
X43314Y23337D02*
Y21044D01*
X43307Y21037*
D02*
D24*
X2213Y27787D02*
X2864Y27137D01*
X2264Y31587D02*
X3114Y30737D01*
X2313Y29837D02*
X3213Y28937D01*
X2963Y25337D02*
X2213Y26087D01*
D02*
D25*
X2864Y27137D02*
X4914D01*
X2963Y21737D02*
X4814D01*
X7263Y24187*
X3114Y30737D02*
X6414D01*
X6814Y31137*
X8364*
X9014Y30487*
X3163Y16337D02*
X4714D01*
X7263Y18887*
X3213Y28937D02*
X5114D01*
X3263Y23537D02*
X5314D01*
X3463Y18137D02*
X5414D01*
X5364Y25337D02*
X2963D01*
X10814Y33637D02*
X5914D01*
D02*
D97*
X7614Y29847D03*
Y32387D03*
Y34927D03*
D02*
D98*
X6114Y12537D03*
X6414Y27637D03*
X6963Y15487D03*
X7064Y21087D03*
X8664Y21337D03*
X9614Y16837D03*
X10464Y21537D03*
X11264Y24487D03*
X11364Y17137D03*
X11664Y20587D03*
X11864Y18937D03*
X12064Y31837D03*
X12564Y25637D03*
X12714Y33937D03*
X12764Y22137D03*
X14014Y32137D03*
X14214Y16737D03*
X15464Y20487D03*
Y23487D03*
X15614Y22087D03*
X15664Y18987D03*
X17414Y24287D03*
X17514Y18887D03*
X18464Y25237D03*
X19264Y18137D03*
X19614Y26237D03*
X19714Y24387D03*
X20464Y19037D03*
X20814Y27137D03*
X21764Y18087D03*
X22064Y24387D03*
X22864Y27237D03*
X23414Y21687D03*
X23714Y29237D03*
X24164Y18287D03*
X24314Y26937D03*
X25064Y22537D03*
X25464Y28037D03*
X25714Y18187D03*
X25814Y26537D03*
X26514Y29137D03*
X26664Y23537D03*
X26714Y30987D03*
X27064Y25687D03*
X28214Y21137D03*
Y26637D03*
X28714Y34587D03*
X29164Y16687D03*
X29814Y33587D03*
X31114Y20937D03*
Y23687D03*
Y26137D03*
X31464Y28487D03*
X31514Y31737D03*
X31964Y30287D03*
X33114Y14337D03*
X37564Y19587D03*
X37614Y22987D03*
X38364Y25487D03*
Y26937D03*
Y28437D03*
X38564Y21687D03*
X38764Y23937D03*
X38914Y20187D03*
X41714Y14337D03*
X0Y0D02*
M02*
