%FSLAX23Y23*%
%MOMM*%
G04 EasyPC Gerber Version 16.0.6 Build 3249 *
%ADD87R,0.32000X0.80000*%
%ADD88R,0.55000X1.00000*%
%ADD18R,1.39700X1.52400*%
%ADD71R,1.50000X1.50000*%
%ADD13R,1.52400X1.52400*%
%ADD17R,1.52400X1.52400*%
%ADD10C,0.12700*%
%ADD25C,0.20000*%
%ADD11C,0.25400*%
%ADD22C,0.30000*%
%ADD23C,0.38100*%
%ADD98C,1.00000*%
%ADD20C,1.50000*%
%ADD12C,1.52400*%
%ADD97C,1.90000*%
%ADD15C,2.30000*%
%ADD14C,3.30000*%
%ADD86R,0.80000X0.32000*%
%ADD89R,2.60000X0.35000*%
%ADD16R,1.52400X1.39700*%
X0Y0D02*
D02*
D10*
X64Y12837D02*
X3413D01*
Y11487*
X23014*
Y12337*
X45114*
Y36487*
X22964*
Y37287*
X3413*
Y35937*
X64*
Y12837*
X1410Y32357D02*
X1134D01*
Y34516*
X3293*
Y34077*
G75*
G02X5138Y33972I891J-610*
G01*
G75*
G02X5443Y33826I-54J-505*
G01*
X5923Y33346*
G75*
G02X6072Y32987I-359J-359*
G01*
Y28379*
G75*
G02X6922Y26996I342J-743*
G01*
Y23697*
X8484Y22134*
G75*
G02X9096Y22031I179J-798*
G01*
Y22037*
G75*
G02X9233Y22367I468*
G01*
X9683Y22817*
G75*
G02X10014Y22954I331J-331*
G01*
X10491*
X11208Y23671*
G75*
G02X10626Y23975I56J816*
G01*
X9578*
G75*
G02X9190Y24135J548*
G01*
X8776Y24549*
G75*
G02X8616Y24937I388J388*
G01*
Y29071*
G75*
G02X7614Y28579I-1002J776*
G01*
G75*
G02Y31114J1268*
G01*
G75*
G02X8616Y30623J-1268*
G01*
Y31611*
G75*
G02X7614Y31119I-1002J776*
G01*
G75*
G02Y33654J1268*
G01*
G75*
G02X8616Y33163J-1268*
G01*
Y34151*
G75*
G02X7614Y33659I-1002J776*
G01*
G75*
G02Y36194J1268*
G01*
G75*
G02X8663Y35638J-1268*
G01*
X8941*
G75*
G02X9300Y35667I222J-501*
G01*
G75*
G02X9398Y35678I106J-538*
G01*
Y36209*
X11430*
Y34050*
X9712*
Y33923*
X11430*
Y32353*
G75*
G02X12881Y31837I634J-516*
G01*
G75*
G02X11430Y31321I-818*
G01*
Y29700*
X9712*
Y29573*
X11430*
Y27414*
X9712*
Y25164*
X9805Y25071*
X10691*
G75*
G02X11197Y25302I572J-584*
G01*
G75*
G02X11196Y25337I466J35*
G01*
Y26187*
G75*
G02X11333Y26517I468*
G01*
X12096Y27280*
Y29687*
G75*
G02X12233Y30017I468*
G01*
X12683Y30467*
G75*
G02X13014Y30604I331J-331*
G01*
X13296*
Y31114*
X14731*
Y25081*
X15247*
X16219Y26053*
Y28587*
G75*
G02X16341Y28892I445J0*
G01*
X18969Y31669*
X15286*
Y33104*
X15819*
G75*
G02X15688Y33142I70J483*
G01*
X13964*
G75*
G02X13649Y33273J445*
G01*
X13429Y33492*
X13400*
G75*
G02X11896Y33937I-686J445*
G01*
G75*
G02X13400Y34381I818*
G01*
X13614*
G75*
G02X13646Y34380I0J-445*
G01*
Y35804*
X15781*
Y35256*
G75*
G02X17714Y35110I933J-520*
G01*
G75*
G02X19714I1000J-374*
G01*
G75*
G02X21714I1000J-374*
G01*
G75*
G02X23714I1000J-374*
G01*
G75*
G02X25624Y35295I1000J-374*
G01*
X27414*
G75*
G02X27773Y35146J-508*
G01*
X27977Y34942*
G75*
G02X29492Y34339I737J-355*
G01*
G75*
G02X30372Y32989I321J-752*
G01*
Y32287*
G75*
G02X30223Y31928I-508*
G01*
X29409Y31114*
X30230*
X30709Y31593*
G75*
G02X30696Y31737I805J143*
G01*
G75*
G02X32331I818*
G01*
G75*
G02X32028Y31102I-818*
G01*
G75*
G02X32781Y30287I-65J-815*
G01*
G75*
G02X31277Y29842I-818*
G01*
X31096*
G75*
G02X30764Y29692I-333J295*
G01*
X30231*
Y28581*
X30651*
G75*
G02X32281Y28487I812J-95*
G01*
G75*
G02Y28483I-819J-2*
G01*
X32369Y28571*
Y28637*
G75*
G02X32499Y28951I445*
G01*
X32799Y29251*
G75*
G02X33096Y29381I314J-314*
G01*
Y29429*
X36331*
Y28881*
X37677*
G75*
G02X39181Y28437I686J-445*
G01*
G75*
G02X38689Y27687I-818*
G01*
G75*
G02X38741Y26212I-325J-750*
G01*
G75*
G02X38725Y24753I-378J-725*
G01*
G75*
G02X39581Y23937I39J-817*
G01*
G75*
G02X38402Y23204I-818*
G01*
G75*
G02X38203Y22421I-788J-217*
G01*
G75*
G02X39005Y20999I360J-734*
G01*
G75*
G02X39731Y20187I-92J-812*
G01*
G75*
G02X38381Y19567I-818*
G01*
G75*
G02X36746Y19587I-817J20*
G01*
G75*
G02X36854Y19992I818J0*
G01*
X36331*
Y19444*
X33096*
Y21841*
X32958Y21703*
Y19837*
G75*
G02X32828Y19523I-445*
G01*
X32128Y18823*
G75*
G02X31814Y18692I-314J314*
G01*
X30231*
Y18159*
X28796*
Y18169*
X28762*
G75*
G02X28204Y18278I-199J468*
G01*
X26404Y20078*
G75*
G02X26256Y20437I359J359*
G01*
Y22828*
G75*
G02X25846Y23537I408J708*
G01*
G75*
G02X27481I818*
G01*
G75*
G02X27271Y22990I-818*
G01*
Y20647*
X28796Y19123*
Y20563*
G75*
G02X27396Y21137I-583J574*
G01*
G75*
G02X28796Y21710I818*
G01*
Y26063*
G75*
G02X27852Y25904I-583J574*
G01*
G75*
G02X27881Y25687I-788J-217*
G01*
G75*
G02X26246I-818*
G01*
G75*
G02X26263Y25854I818J0*
G01*
G75*
G02X24997Y26489I-450J683*
G01*
G75*
G02X23518Y26747I-684J448*
G01*
G75*
G02X22046Y27237I-655J489*
G01*
G75*
G02X22419Y27923I818*
G01*
Y30137*
G75*
G02X22549Y30451I445*
G01*
X22819Y30721*
Y31669*
X22708*
Y31387*
G75*
G02X22578Y31073I-445*
G01*
X21208Y29703*
Y27853*
G75*
G02X21631Y27137I-395J-716*
G01*
G75*
G02X20409Y26427I-818*
G01*
G75*
G02X19233Y25513I-795J-190*
G01*
G75*
G02X19264Y25069I-769J-277*
G01*
G75*
G02X20531Y24387I450J-683*
G01*
G75*
G02X19620Y23575I-818*
G01*
X18923Y22878*
G75*
G02X18564Y22729I-359J359*
G01*
X17114*
G75*
G02X16754Y22878J508*
G01*
X16271Y23361*
G75*
G02X15952Y22831I-808J126*
G01*
G75*
G02X15688Y21273I-338J-744*
G01*
G75*
G02X15870Y19778I-225J-786*
G01*
G75*
G02X16481Y18987I-207J-791*
G01*
G75*
G02X14846I-818*
G01*
G75*
G02X14864Y19158I817J0*
G01*
X14829Y19192*
X14731*
Y18159*
X13296*
Y19929*
X13231Y19864*
Y16498*
X13578Y16151*
G75*
G02X13708Y15837I-314J-314*
G01*
Y15544*
G75*
G02X14472Y15761I656J-858*
G01*
G75*
G02X14454Y15778I343J377*
G01*
X14307Y15925*
G75*
G02X13396Y16737I-94J812*
G01*
G75*
G02X15031I818*
G01*
G75*
G02X15026Y16645I-818J0*
G01*
X15286*
Y17604*
X16819*
Y17837*
G75*
G02X16949Y18151I445*
G01*
X17028Y18229*
G75*
G02X16696Y18887I486J657*
G01*
G75*
G02X18331I818*
G01*
G75*
G02X17958Y18201I-818*
G01*
Y18087*
G75*
G02X17828Y17773I-445*
G01*
X17708Y17653*
Y17604*
X18643*
G75*
G02X19668Y18847I620J532*
G01*
G75*
G02X19646Y19037I795J190*
G01*
G75*
G02X21281I818*
G01*
G75*
G02X21197Y18677I-818*
G01*
G75*
G02X22423Y17604I566J-590*
G01*
X22685*
G75*
G02X22619Y17837I379J233*
G01*
Y18737*
G75*
G02X22749Y19051I445*
G01*
X22819Y19121*
Y19713*
X21704Y20828*
G75*
G02X21555Y21187I359J359*
G01*
Y21473*
G75*
G02Y21900I508J213*
G01*
Y23746*
G75*
G02X21246Y24387I508J641*
G01*
G75*
G02X22881I818*
G01*
G75*
G02X22572Y23746I-818*
G01*
Y22195*
X22773*
G75*
G02X24231Y21687I641J-508*
G01*
G75*
G02X22966Y21003I-818*
G01*
X23623Y20346*
G75*
G02X23708Y19741I-359J-359*
G01*
Y18966*
G75*
G02X24955Y18492I456J-679*
G01*
G75*
G02X25685Y19004I759J-305*
G01*
X24874Y19816*
G75*
G02X24555Y20287I190J471*
G01*
Y21896*
G75*
G02X24246Y22537I508J641*
G01*
G75*
G02X25881I818*
G01*
G75*
G02X25572Y21896I-818*
G01*
Y20440*
X28094Y17917*
G75*
G02X28231Y17604I-331J-331*
G01*
X28241*
Y16393*
X28364Y16516*
G75*
G02X28346Y16687I799J171*
G01*
G75*
G02X29981I818*
G01*
G75*
G02X28993Y15887I-818*
G01*
X28678Y15573*
G75*
G02X28364Y15442I-314J314*
G01*
X28219*
X28357Y15304*
X30231*
Y13169*
X28096*
Y13717*
G75*
G02X26164Y13863I-933J520*
G01*
G75*
G02X24164I-1000J374*
G01*
G75*
G02X22164I-1000J374*
G01*
G75*
G02X20164I-1000J374*
G01*
G75*
G02X18096Y14237I-1000J374*
G01*
G75*
G02X20164Y14610I1067*
G01*
G75*
G02X22164I1000J-374*
G01*
G75*
G02X22656Y15176I1000J-374*
G01*
Y15387*
G75*
G02X22974Y15858I508*
G01*
X23133Y16017*
G75*
G02X23464Y16154I331J-331*
G01*
X24620*
X24635Y16169*
X17231*
G75*
G02X17094Y15856I-467J18*
G01*
X16937Y15700*
G75*
G02X17288Y13887I-374J-1013*
G01*
G75*
G02X17047Y12122I-725J-800*
G01*
X22379*
Y12337*
G75*
G02X23014Y12972I635*
G01*
X44478*
Y35852*
X41086*
Y33871*
X38927*
Y35852*
X38800*
Y33871*
X36641*
Y34279*
X36193*
Y33707*
X34034*
Y35852*
X33653*
Y33707*
X31494*
Y35852*
X22964*
G75*
G02X22328Y36487J635*
G01*
Y36652*
X4049*
Y35937*
G75*
G02X3413Y35302I-635*
G01*
X699*
Y13472*
X3413*
G75*
G02X4049Y12837J-635*
G01*
Y12122*
X5409*
G75*
G02X5866Y13316I704J415*
G01*
X5849Y13333*
G75*
G02X5816Y13369I359J359*
G01*
X5616*
Y15004*
X6304*
G75*
G02X6146Y15487I660J483*
G01*
G75*
G02X7781I818*
G01*
G75*
G02X7776Y15393I-818J0*
G01*
X7838Y15331*
G75*
G02X7986Y15004I-359J-359*
G01*
X8071*
Y13595*
X8156*
Y15004*
X9328*
X8356Y16005*
G75*
G02X8201Y16387I393J382*
G01*
Y18669*
X8156*
Y20304*
X9272*
X9178Y20397*
G75*
G02X9044Y20613I385J389*
G01*
G75*
G02X7881Y21101I-380J724*
G01*
G75*
G02X7881Y21087I-815J-13*
G01*
G75*
G02X7300Y20304I-818*
G01*
X8071*
Y18669*
X6886*
Y20289*
G75*
G02X6716Y20347I178J798*
G01*
Y20304*
X6801*
Y18669*
X6762*
Y18437*
G75*
G02X6601Y18049I-548*
G01*
X5401Y16849*
G75*
G02X5154Y16707I-387J388*
G01*
G75*
G02X4810Y16337I-941J530*
G01*
G75*
G02X4214Y14357I-596J-900*
G01*
G75*
G02X3213Y15030J1080*
G01*
G75*
G02X2213Y14357I-1000J407*
G01*
G75*
G02X1617Y16337J1080*
G01*
G75*
G02Y18137I596J900*
G01*
G75*
G02Y19937I596J900*
G01*
G75*
G02Y21737I596J900*
G01*
G75*
G02Y23537I596J900*
G01*
G75*
G02Y25337I596J900*
G01*
G75*
G02Y27137I596J900*
G01*
G75*
G02Y28937I596J900*
G01*
G75*
G02Y30737I596J900*
G01*
G75*
G02X1410Y32357I596J900*
G01*
X13196Y32137D02*
G75*
G02X14831I818D01*
G01*
G75*
G02X13196I-818*
G01*
X33754Y13829D02*
G75*
G02X32296Y14337I-641J508D01*
G01*
G75*
G02X33754Y14845I818*
G01*
X41073*
G75*
G02X42531Y14337I641J-508*
G01*
G75*
G02X41073Y13829I-818*
G01*
X33754*
X35414Y15219D02*
G75*
G02Y19154J1968D01*
G01*
G75*
G02Y15219J-1968*
G01*
Y29719D02*
G75*
G02Y33654J1968D01*
G01*
G75*
G02Y29719J-1968*
G01*
X41339Y15719D02*
G75*
G02Y18654J1468D01*
G01*
G75*
G02Y15719J-1468*
G01*
Y30219D02*
G75*
G02Y33154J1468D01*
G01*
G75*
G02Y30219J-1468*
G01*
X12824Y32137D02*
G36*
G75*
G02X12881Y31837I-761J-300D01*
G01*
G75*
G02X11430Y31321I-818*
G01*
Y29700*
X9712*
Y29573*
X11430*
Y27414*
X9712*
Y25164*
X9805Y25071*
X10691*
G75*
G02X11197Y25302I572J-584*
G01*
G75*
G02X11196Y25337I466J35*
G01*
Y26187*
G75*
G02X11333Y26517I468*
G01*
X12096Y27280*
Y29687*
G75*
G02X12233Y30017I468*
G01*
X12683Y30467*
G75*
G02X13014Y30604I331J-331*
G01*
X13296*
Y31114*
X14731*
Y25081*
X15247*
X16219Y26053*
Y28587*
G75*
G02X16341Y28892I445J0*
G01*
X18969Y31669*
X15286*
Y32137*
X14831*
G75*
G02X13196I-818*
G01*
X12824*
G37*
X13196D02*
G36*
G75*
G02X14831I818D01*
G01*
X15286*
Y33104*
X15819*
G75*
G02X15688Y33142I70J483*
G01*
X13964*
G75*
G02X13649Y33273J445*
G01*
X13429Y33492*
X13400*
G75*
G02X11896Y33937I-686J445*
G01*
G75*
G02X13400Y34381I818*
G01*
X13614*
G75*
G02X13646Y34380I0J-445*
G01*
Y35804*
X15781*
Y35256*
G75*
G02X17714Y35110I933J-520*
G01*
G75*
G02X19714I1000J-374*
G01*
G75*
G02X21714I1000J-374*
G01*
G75*
G02X23714I1000J-374*
G01*
G75*
G02X25624Y35295I1000J-374*
G01*
X27414*
G75*
G02X27773Y35146J-508*
G01*
X27977Y34942*
G75*
G02X29492Y34339I737J-355*
G01*
G75*
G02X30372Y32989I321J-752*
G01*
Y32287*
G75*
G02X30223Y31928I-508*
G01*
X29409Y31114*
X30230*
X30709Y31593*
G75*
G02X30696Y31737I805J143*
G01*
G75*
G02X32226Y32137I818*
G01*
X33498*
G75*
G02X35414Y33654I1915J-450*
G01*
G75*
G02X37329Y32137J-1968*
G01*
X39942*
G75*
G02X41339Y33154I1397J-450*
G01*
G75*
G02X42735Y32137J-1468*
G01*
X44478*
Y35852*
X41086*
Y33871*
X38927*
Y35852*
X38800*
Y33871*
X36641*
Y34279*
X36193*
Y33707*
X34034*
Y35852*
X33653*
Y33707*
X31494*
Y35852*
X22964*
G75*
G02X22328Y36487J635*
G01*
Y36652*
X4049*
Y35937*
G75*
G02X3413Y35302I-635*
G01*
X699*
Y13472*
X3413*
G75*
G02X4049Y12837J-635*
G01*
Y12122*
X5409*
G75*
G02X5866Y13316I704J415*
G01*
X5849Y13333*
G75*
G02X5816Y13369I359J359*
G01*
X5616*
Y15004*
X6304*
G75*
G02X6146Y15487I660J483*
G01*
G75*
G02X7781I818*
G01*
G75*
G02X7776Y15393I-818J0*
G01*
X7838Y15331*
G75*
G02X7986Y15004I-359J-359*
G01*
X8071*
Y13595*
X8156*
Y15004*
X9328*
X8356Y16005*
G75*
G02X8201Y16387I393J382*
G01*
Y18669*
X8156*
Y20304*
X9272*
X9178Y20397*
G75*
G02X9044Y20613I385J389*
G01*
G75*
G02X7881Y21101I-380J724*
G01*
G75*
G02X7881Y21087I-815J-13*
G01*
G75*
G02X7300Y20304I-818*
G01*
X8071*
Y18669*
X6886*
Y20289*
G75*
G02X6716Y20347I178J798*
G01*
Y20304*
X6801*
Y18669*
X6762*
Y18437*
G75*
G02X6601Y18049I-548*
G01*
X5401Y16849*
G75*
G02X5154Y16707I-387J388*
G01*
G75*
G02X4810Y16337I-941J530*
G01*
G75*
G02X4214Y14357I-596J-900*
G01*
G75*
G02X3213Y15030J1080*
G01*
G75*
G02X2213Y14357I-1000J407*
G01*
G75*
G02X1617Y16337J1080*
G01*
G75*
G02Y18137I596J900*
G01*
G75*
G02Y19937I596J900*
G01*
G75*
G02Y21737I596J900*
G01*
G75*
G02Y23537I596J900*
G01*
G75*
G02Y25337I596J900*
G01*
G75*
G02Y27137I596J900*
G01*
G75*
G02Y28937I596J900*
G01*
G75*
G02Y30737I596J900*
G01*
G75*
G02X1410Y32357I596J900*
G01*
X1134*
Y34516*
X3293*
Y34077*
G75*
G02X5138Y33972I891J-610*
G01*
G75*
G02X5443Y33826I-54J-505*
G01*
X5923Y33346*
G75*
G02X6072Y32987I-359J-359*
G01*
Y28379*
G75*
G02X6922Y26996I342J-743*
G01*
Y23697*
X8484Y22134*
G75*
G02X9096Y22031I179J-798*
G01*
Y22037*
G75*
G02X9233Y22367I468*
G01*
X9683Y22817*
G75*
G02X10014Y22954I331J-331*
G01*
X10491*
X11208Y23671*
G75*
G02X10626Y23975I56J816*
G01*
X9578*
G75*
G02X9190Y24135J548*
G01*
X8776Y24549*
G75*
G02X8616Y24937I388J388*
G01*
Y29071*
G75*
G02X7614Y28579I-1002J776*
G01*
G75*
G02Y31114J1268*
G01*
G75*
G02X8616Y30623J-1268*
G01*
Y31611*
G75*
G02X7614Y31119I-1002J776*
G01*
G75*
G02Y33654J1268*
G01*
G75*
G02X8616Y33163J-1268*
G01*
Y34151*
G75*
G02X7614Y33659I-1002J776*
G01*
G75*
G02Y36194J1268*
G01*
G75*
G02X8663Y35638J-1268*
G01*
X8941*
G75*
G02X9300Y35667I222J-501*
G01*
G75*
G02X9398Y35678I106J-538*
G01*
Y36209*
X11430*
Y34050*
X9712*
Y33923*
X11430*
Y32353*
G75*
G02X12824Y32137I634J-516*
G01*
X13196*
G37*
X32226D02*
G36*
G75*
G02X32331Y31737I-713J-400D01*
G01*
G75*
G02X32028Y31102I-818*
G01*
G75*
G02X32781Y30287I-65J-815*
G01*
G75*
G02X31277Y29842I-818*
G01*
X31096*
G75*
G02X30764Y29692I-333J295*
G01*
X30231*
Y28581*
X30651*
G75*
G02X32281Y28487I812J-95*
G01*
G75*
G02Y28483I-819J-2*
G01*
X32369Y28571*
Y28637*
G75*
G02X32499Y28951I445*
G01*
X32799Y29251*
G75*
G02X33096Y29381I314J-314*
G01*
Y29429*
X36331*
Y28881*
X37677*
G75*
G02X39181Y28437I686J-445*
G01*
G75*
G02X38689Y27687I-818*
G01*
G75*
G02X38741Y26212I-325J-750*
G01*
G75*
G02X38725Y24753I-378J-725*
G01*
G75*
G02X39581Y23937I39J-817*
G01*
G75*
G02X38402Y23204I-818*
G01*
G75*
G02X38203Y22421I-788J-217*
G01*
G75*
G02X39005Y20999I360J-734*
G01*
G75*
G02X39731Y20187I-92J-812*
G01*
G75*
G02X38381Y19567I-818*
G01*
G75*
G02X36746Y19587I-817J20*
G01*
G75*
G02X36854Y19992I818J0*
G01*
X36331*
Y19444*
X33096*
Y21841*
X32958Y21703*
Y19837*
G75*
G02X32828Y19523I-445*
G01*
X32128Y18823*
G75*
G02X31814Y18692I-314J314*
G01*
X30231*
Y18159*
X28796*
Y18169*
X28762*
G75*
G02X28204Y18278I-199J468*
G01*
X26404Y20078*
G75*
G02X26256Y20437I359J359*
G01*
Y22828*
G75*
G02X25846Y23537I408J708*
G01*
G75*
G02X27481I818*
G01*
G75*
G02X27271Y22990I-818*
G01*
Y20647*
X28796Y19123*
Y20563*
G75*
G02X27396Y21137I-583J574*
G01*
G75*
G02X28796Y21710I818*
G01*
Y26063*
G75*
G02X27852Y25904I-583J574*
G01*
G75*
G02X27881Y25687I-788J-217*
G01*
G75*
G02X26246I-818*
G01*
G75*
G02X26263Y25854I818J0*
G01*
G75*
G02X24997Y26489I-450J683*
G01*
G75*
G02X23518Y26747I-684J448*
G01*
G75*
G02X22046Y27237I-655J489*
G01*
G75*
G02X22419Y27923I818*
G01*
Y30137*
G75*
G02X22549Y30451I445*
G01*
X22819Y30721*
Y31669*
X22708*
Y31387*
G75*
G02X22578Y31073I-445*
G01*
X21208Y29703*
Y27853*
G75*
G02X21631Y27137I-395J-716*
G01*
G75*
G02X20409Y26427I-818*
G01*
G75*
G02X19233Y25513I-795J-190*
G01*
G75*
G02X19264Y25069I-769J-277*
G01*
G75*
G02X20531Y24387I450J-683*
G01*
G75*
G02X19620Y23575I-818*
G01*
X18923Y22878*
G75*
G02X18564Y22729I-359J359*
G01*
X17114*
G75*
G02X16754Y22878J508*
G01*
X16271Y23361*
G75*
G02X15952Y22831I-808J126*
G01*
G75*
G02X15688Y21273I-338J-744*
G01*
G75*
G02X15870Y19778I-225J-786*
G01*
G75*
G02X16481Y18987I-207J-791*
G01*
G75*
G02X14846I-818*
G01*
G75*
G02X14864Y19158I817J0*
G01*
X14829Y19192*
X14731*
Y18159*
X13296*
Y19929*
X13231Y19864*
Y16498*
X13578Y16151*
G75*
G02X13708Y15837I-314J-314*
G01*
Y15544*
G75*
G02X14472Y15761I656J-858*
G01*
G75*
G02X14454Y15778I343J377*
G01*
X14307Y15925*
G75*
G02X13396Y16737I-94J812*
G01*
G75*
G02X15031I818*
G01*
G75*
G02X15026Y16645I-818J0*
G01*
X15286*
Y17604*
X16819*
Y17837*
G75*
G02X16949Y18151I445*
G01*
X17028Y18229*
G75*
G02X16696Y18887I486J657*
G01*
G75*
G02X18331I818*
G01*
G75*
G02X17958Y18201I-818*
G01*
Y18087*
G75*
G02X17828Y17773I-445*
G01*
X17708Y17653*
Y17604*
X18643*
G75*
G02X19668Y18847I620J532*
G01*
G75*
G02X19646Y19037I795J190*
G01*
G75*
G02X21281I818*
G01*
G75*
G02X21197Y18677I-818*
G01*
G75*
G02X22423Y17604I566J-590*
G01*
X22685*
G75*
G02X22619Y17837I379J233*
G01*
Y18737*
G75*
G02X22749Y19051I445*
G01*
X22819Y19121*
Y19713*
X21704Y20828*
G75*
G02X21555Y21187I359J359*
G01*
Y21473*
G75*
G02Y21900I508J213*
G01*
Y23746*
G75*
G02X21246Y24387I508J641*
G01*
G75*
G02X22881I818*
G01*
G75*
G02X22572Y23746I-818*
G01*
Y22195*
X22773*
G75*
G02X24231Y21687I641J-508*
G01*
G75*
G02X22966Y21003I-818*
G01*
X23623Y20346*
G75*
G02X23708Y19741I-359J-359*
G01*
Y18966*
G75*
G02X24955Y18492I456J-679*
G01*
G75*
G02X25685Y19004I759J-305*
G01*
X24874Y19816*
G75*
G02X24555Y20287I190J471*
G01*
Y21896*
G75*
G02X24246Y22537I508J641*
G01*
G75*
G02X25881I818*
G01*
G75*
G02X25572Y21896I-818*
G01*
Y20440*
X28094Y17917*
G75*
G02X28231Y17604I-331J-331*
G01*
X28241*
Y16393*
X28364Y16516*
G75*
G02X28346Y16687I799J171*
G01*
G75*
G02X29810Y17187I818*
G01*
X33446*
G75*
G02X35414Y19154I1968*
G01*
G75*
G02X37381Y17187J-1968*
G01*
X39871*
G75*
G02X41339Y18654I1468*
G01*
G75*
G02X42806Y17187J-1468*
G01*
X44478*
Y32137*
X42735*
G75*
G02X41339Y30219I-1397J-450*
G01*
G75*
G02X39942Y32137J1468*
G01*
X37329*
G75*
G02X35414Y29719I-1915J-450*
G01*
G75*
G02X33498Y32137J1968*
G01*
X32226*
G37*
X30231Y14337D02*
G36*
Y13169D01*
X28096*
Y13717*
G75*
G02X26164Y13863I-933J520*
G01*
G75*
G02X24164I-1000J374*
G01*
G75*
G02X22164I-1000J374*
G01*
G75*
G02X20164I-1000J374*
G01*
G75*
G02X18096Y14237I-1000J374*
G01*
G75*
G02X20164Y14610I1067*
G01*
G75*
G02X22164I1000J-374*
G01*
G75*
G02X22656Y15176I1000J-374*
G01*
Y15387*
G75*
G02X22974Y15858I508*
G01*
X23133Y16017*
G75*
G02X23464Y16154I331J-331*
G01*
X24620*
X24635Y16169*
X17231*
G75*
G02X17094Y15856I-467J18*
G01*
X16937Y15700*
G75*
G02X17288Y13887I-374J-1013*
G01*
G75*
G02X17047Y12122I-725J-800*
G01*
X22379*
Y12337*
G75*
G02X23014Y12972I635*
G01*
X44478*
Y14337*
X42531*
G75*
G02X41073Y13829I-818*
G01*
X33754*
G75*
G02X32296Y14337I-641J508*
G01*
X30231*
G37*
X32296D02*
G36*
G75*
G02X33754Y14845I818D01*
G01*
X41073*
G75*
G02X42531Y14337I641J-508*
G01*
X44478*
Y17187*
X42806*
G75*
G02X41339Y15719I-1468*
G01*
G75*
G02X39871Y17187J1468*
G01*
X37381*
G75*
G02X35414Y15219I-1968*
G01*
G75*
G02X33446Y17187J1968*
G01*
X29810*
G75*
G02X29981Y16687I-647J-500*
G01*
G75*
G02X28993Y15887I-818*
G01*
X28678Y15573*
G75*
G02X28364Y15442I-314J314*
G01*
X28219*
X28357Y15304*
X30231*
Y14337*
X32296*
G37*
X9839Y16051D02*
X10210Y15670D01*
X11717*
G75*
G02X12819Y15544I446J-983*
G01*
Y15653*
X12499Y15973*
G75*
G02X12396Y16439I314J314*
G01*
Y18317*
G75*
G02X11272Y18373I-532J620*
G01*
Y17997*
X11316Y17953*
G75*
G02X12181Y17137I48J-816*
G01*
G75*
G02X10546I-818*
G01*
G75*
G02X10558Y17274I817J0*
G01*
X10404Y17428*
G75*
G02X10394Y17438I359J359*
G01*
X10274Y17319*
G75*
G02X9839Y16051I-660J-482*
G01*
G36*
X10210Y15670*
X11717*
G75*
G02X12819Y15544I446J-983*
G01*
Y15653*
X12499Y15973*
G75*
G02X12396Y16439I314J314*
G01*
Y18317*
G75*
G02X11272Y18373I-532J620*
G01*
Y17997*
X11316Y17953*
G75*
G02X12181Y17137I48J-816*
G01*
G75*
G02X10546I-818*
G01*
G75*
G02X10558Y17274I817J0*
G01*
X10404Y17428*
G75*
G02X10394Y17438I359J359*
G01*
X10274Y17319*
G75*
G02X9839Y16051I-660J-482*
G01*
G37*
D02*
D11*
X1765Y18588D02*
X1405Y18229D01*
X1765Y19486D02*
X1405Y19845D01*
X4214Y15387D02*
X4464D01*
X6791Y29847D02*
X6283D01*
X7478Y19114D02*
Y18606D01*
X7513Y19452D02*
X7478Y19487D01*
X7614Y29024D02*
Y28516D01*
X8749Y14560D02*
Y15068D01*
X10414Y27859D02*
Y27351D01*
Y29129D02*
Y29637D01*
X10985Y28494D02*
X11493D01*
X12714Y33937D02*
X13614D01*
X13964Y33587*
X15889*
X12814Y16287D02*
X13264Y15837D01*
Y13337*
X13014Y13087*
X12164*
X13641Y32137D02*
X13133D01*
X13943Y30707D02*
X13473Y31178D01*
X14014Y19637D02*
X15014D01*
X15664Y18987*
X14014Y20637D02*
X13414D01*
X14014Y21137D02*
X14864D01*
X15014Y21287*
X17364*
X14014Y22637D02*
X14714D01*
X15264Y22087*
X15614*
X14014Y24637D02*
X15714D01*
X14014D02*
X15464D01*
X14014Y28137D02*
X15414D01*
X14014Y31764D02*
Y31256D01*
Y32510D02*
Y33018D01*
X14084Y30707D02*
X14555Y31178D01*
X14091Y34737D02*
X13583D01*
X14287Y28637D02*
X14794D01*
X14387Y32137D02*
X14894D01*
X14714Y35360D02*
Y35868D01*
X15464Y20487D02*
X15114Y20137D01*
X14014*
X15693Y32317D02*
X15223Y31846D01*
X15693Y32457D02*
X15223Y32928D01*
X16264Y32387D02*
Y33587D01*
X15889*
X16564D02*
X15889D01*
X16564D02*
X16764D01*
Y32387*
X16664Y25837D02*
Y28587D01*
X19314Y31387*
X19764Y31837*
Y32387*
X17264Y16887D02*
Y17837D01*
X17514Y18087*
Y18887*
X17264Y32387D02*
Y31437D01*
X17414Y28637D02*
X20264Y31487D01*
Y32387*
X18264Y20387D02*
Y19537D01*
X18464Y19337*
Y18487*
X18264Y18287*
Y17987*
X17764Y17487*
Y16887*
X18464Y25237D02*
Y29037D01*
X20764Y31337*
Y32387*
X19064Y33587D02*
X19164D01*
X19064D02*
X16564D01*
X19264Y16887D02*
Y18137D01*
Y32387D02*
Y33387D01*
X19064Y33587*
X20090Y19037D02*
X19583D01*
X20464Y19410D02*
Y19918D01*
X20723Y13796D02*
X20364Y13437D01*
X20723Y14677D02*
X20364Y15037D01*
X20814Y27137D02*
X20764D01*
Y29887*
X22264Y31387*
Y32387*
X20837Y19037D02*
X21345D01*
X21264Y32387D02*
Y33587D01*
X19064*
X21264D02*
X23814D01*
X24264Y33137*
Y32387*
X21604Y13796D02*
X21963Y13437D01*
X21604Y14677D02*
X21963Y15037D01*
X21764Y16887D02*
Y18087D01*
Y32387D02*
Y31687D01*
X19564Y29487*
Y26237*
X19614*
X22764Y32387D02*
Y31037D01*
X21764Y30037*
X22864Y27237D02*
Y30137D01*
X23264Y30537*
Y32387*
Y19987D02*
Y18937D01*
X23064Y18737*
Y17837*
X23264Y17637*
Y16887*
X23764D02*
Y17887D01*
X24164Y18287*
X23764Y32387D02*
Y29287D01*
X23714Y29237*
X24164Y18660D02*
Y19168D01*
X24764Y16887D02*
Y17437D01*
X25514Y18187*
X25714*
X24764Y32387D02*
Y30487D01*
X24614Y30337*
Y27287*
X24314Y26987*
Y26937*
X25464Y28037D02*
X25264Y28237D01*
Y32387*
X26514Y29137D02*
X25764Y29887D01*
Y32387*
X26714Y30987D02*
Y31637D01*
X26764*
Y32387*
X27264Y16887D02*
Y16237D01*
X27614Y15887*
X28364*
X29164Y16687*
X28214Y26264D02*
Y25756D01*
X29514Y19637D02*
X31164D01*
X32064Y20537*
Y22137*
X32764Y22837*
Y23987*
X33214Y24437*
X34714*
X29514Y20137D02*
X28614D01*
X28264Y19787*
X29514Y20637D02*
X30814D01*
X31114Y20937*
X29514Y21137D02*
X28214D01*
X29514Y24137D02*
X30664D01*
X31114Y23687*
X29514Y26137D02*
X31114D01*
X29514Y26637D02*
X28214D01*
X29514Y27137D02*
X32264D01*
X33064Y27937*
X34714*
X29514Y28137D02*
X31114D01*
X31464Y28487*
X29514Y28637D02*
X30064D01*
X30514Y29087*
X31964Y30287D02*
X30864D01*
X30764Y30187*
Y30137*
X29514*
X34714Y20437D02*
X37264D01*
X37564Y20137*
X34714Y21437D02*
X38314D01*
X38564Y21687*
X34714Y21937D02*
X36564D01*
X37614Y22987*
X34714Y23437D02*
X33364D01*
X33114Y23187*
Y22487*
X32514Y21887*
Y19837*
X31814Y19137*
X29514*
X34714Y24937D02*
X33014D01*
X32414Y24337*
Y23037*
X31514Y22137*
X29514*
X34714Y25937D02*
X33264D01*
X32064Y24737*
Y23437*
X31264Y22637*
X29514*
X34714Y26437D02*
X32964D01*
X32364Y25837*
Y25637*
X31364Y24637*
X29514*
X34714Y27437D02*
X33214D01*
X31914Y26137*
Y25737*
X31314Y25137*
X29514*
X34714Y28937D02*
X33114D01*
X32814Y28637*
Y28387*
X32064Y27637*
X29514*
X38364Y25487D02*
X36564D01*
Y25437*
X34714*
X38364Y26937D02*
X34714D01*
X38364Y28437D02*
X34714D01*
X38764Y23937D02*
X34714D01*
X38914Y20187D02*
X38164Y20937D01*
X34714*
X39372Y34887D02*
X38864D01*
X40007Y34315D02*
Y33807D01*
X40642Y34887D02*
X41150D01*
D02*
D12*
X2213Y15437D03*
Y17237D03*
Y19037D03*
Y20837D03*
Y22637D03*
Y24437D03*
Y26237D03*
Y28037D03*
Y29837D03*
Y31637D03*
X4184Y33467D03*
X4204Y31667D03*
X4214Y15437D03*
Y17237D03*
Y19037D03*
Y20837D03*
Y22637D03*
Y24437D03*
Y26237D03*
Y28037D03*
Y29837D03*
X12164Y14687D03*
X14364Y13087D03*
Y14687D03*
X16564Y13087D03*
Y14687D03*
D02*
D13*
X2213Y33437D03*
D02*
D14*
X35414Y17187D03*
Y31687D03*
D02*
D15*
X41339Y17187D03*
Y31687D03*
D02*
D16*
X37721Y34887D03*
X40007D03*
D02*
D17*
X32574Y34787D03*
X35114D03*
D02*
D18*
X10414Y28494D03*
Y30780D03*
Y32844D03*
Y35130D03*
D02*
D71*
X12164Y13087D03*
X14714Y34737D03*
X29164Y14237D03*
D02*
D20*
X16714Y34737D03*
X18714D03*
X19164Y14237D03*
X20714Y34737D03*
X21164Y14237D03*
X22714Y34737D03*
X23164Y14237D03*
X24714Y34737D03*
X25164Y14237D03*
X27164D03*
D02*
D22*
X2413Y24437D02*
X4214Y22637D01*
X6114Y12537D02*
Y12587D01*
X6164*
X6614Y12137*
X15064*
X15414Y12487*
X9564Y20787D02*
Y22037D01*
X10014Y22487*
X10614*
X11514Y21237D02*
Y20687D01*
X11714Y20587*
X12214Y24787D02*
X11664Y25337D01*
Y26187*
X12564Y27087*
Y29687*
X13014Y30137*
X14014*
X12764Y22137D02*
X14014D01*
X13114Y23637D02*
X14014D01*
Y24137D02*
X12964D01*
X14014Y24637D02*
X13564D01*
X13514*
X12564Y25587*
X14014Y29137D02*
X15314D01*
X14914Y23487D02*
X14564Y23137D01*
X14014*
X15464Y24637D02*
X16664Y25837D01*
X15514Y15387D02*
X16064Y15937D01*
X16514*
X16764Y16187*
Y16887*
X15764D02*
Y16437D01*
X15464Y16137*
X17414Y24287D02*
Y28637D01*
X23314Y34737D02*
X24264Y33787D01*
X26714*
X27264Y33237*
Y32387*
X25264Y16887D02*
Y16137D01*
X24814Y15687*
X23464*
X23164Y15387*
X25764Y16887D02*
Y15737D01*
X25214Y15187*
X25164*
Y14387*
X26264Y16887D02*
Y15137D01*
X27764Y16887D02*
Y17587D01*
X25064Y20287*
X27764Y32387D02*
Y34437D01*
X28564Y18637D02*
X29514D01*
X29164Y14237D02*
X28614Y14787D01*
X28214*
X27664Y15337*
X27164*
X26764Y15737*
Y16937*
X31514Y31737D02*
X30414Y30637D01*
X29514*
D02*
D23*
X2213Y24437D02*
X2364D01*
X2213D02*
X2413D01*
X3213Y29037D02*
X4214Y28037D01*
X4184Y33467D02*
X5084D01*
X5564Y32987*
Y22587*
X7064Y21087*
X4204Y31667D02*
X3844D01*
X3213Y31037*
X4214Y17237D02*
X5014D01*
X6214Y18437*
Y19482*
X6209Y19487*
X4214Y27887D02*
Y28037D01*
X6209Y14187D02*
Y13692D01*
X6814Y13087*
X12164*
X6209Y19487D02*
Y20642D01*
X4214Y22637*
X6414Y27637D02*
Y23487D01*
X8564Y21337*
X8664*
X7478Y14187D02*
Y14972D01*
X6963Y15487*
X7478Y19487D02*
X7463D01*
Y16487*
X8764Y15187*
Y14192*
X8759Y14187*
X8749*
X10019*
X8749Y19487D02*
X8714D01*
Y16387*
X9979Y15122*
X11729*
X12164Y14687*
X8964Y14172D02*
X8764D01*
X8749Y14187*
X9164Y35137D02*
Y24937D01*
X9578Y24523*
X11264*
Y24487*
X10019Y19487D02*
X10014D01*
Y17837*
X9614Y17437*
Y16837*
X10019Y19487D02*
X10014Y19492D01*
Y20337*
X10029Y20352*
X9999*
X9564Y20787*
X10414Y32844D02*
Y30687D01*
X10464Y30637*
Y31787*
X10414Y31837*
X12064*
X10414Y35130D02*
X10064D01*
Y35137*
X9407*
X10414Y35130D02*
X7816D01*
X7614Y34927*
X10464Y21537D02*
Y20887D01*
X10764Y20587*
Y17787*
X11364Y17187*
Y17137*
X10657Y32837D02*
X10421D01*
X10414Y32844*
X11714Y20587D02*
X11664D01*
X11864Y18937D02*
Y19587D01*
X12564Y25587D02*
Y25637D01*
X14364Y14687D02*
X15064Y15387D01*
X15514*
X15414Y12487D02*
Y14187D01*
X14914Y14687*
X14364*
X15464Y16137D02*
X14814D01*
X14214Y16737*
X15464Y23487D02*
X14914D01*
X15714Y24637D02*
X17114Y23237D01*
X18564*
X19714Y24387*
X17264Y31437D02*
X16714Y30887D01*
X17364Y21287D02*
X18264Y20387D01*
X22064Y21687D02*
Y21187D01*
X23264Y19987*
X22064Y24387D02*
Y21687D01*
X22714Y34737D02*
X23314D01*
X23164Y15387D02*
Y14237D01*
X23414Y21687D02*
X22064D01*
X25064Y20287D02*
Y22537D01*
X25164Y14387D02*
Y14237D01*
X26264Y15137D02*
X27164Y14237D01*
X26664Y23537D02*
X26764D01*
Y20437*
X28564Y18637*
X27564Y28687D02*
X25814Y26937D01*
Y26537*
X27764Y34437D02*
X27414Y34787D01*
X24714*
Y34737*
X28714Y34587D02*
X28764Y34537D01*
Y32087*
X27564Y30887*
Y28687*
X29814Y33587D02*
X29864D01*
Y32287*
X28214Y30637*
Y27937*
X27164Y26887*
Y25787*
X27064Y25687*
X35114Y34787D02*
X37621D01*
X37721Y34887*
X37564Y20137D02*
Y19587D01*
X41714Y14337D02*
X33114D01*
D02*
D25*
X2364Y24437D02*
X3213Y25287D01*
Y26887*
X4214Y27887*
X3213Y31037D02*
Y29037D01*
X10614Y22487D02*
X12214Y24087D01*
Y24787*
X11864Y19587D02*
X12564Y20287D01*
Y20937*
X11814Y21687*
Y22337*
X13114Y23637*
X12964Y24137D02*
X11314Y22487D01*
Y21437*
X11514Y21237*
X13414Y20637D02*
X12814Y20037D01*
Y16287*
D02*
D86*
X14014Y18637D03*
Y19137D03*
Y19637D03*
Y20137D03*
Y20637D03*
Y21137D03*
Y21637D03*
Y22137D03*
Y22637D03*
Y23137D03*
Y23637D03*
Y24137D03*
Y24637D03*
Y25137D03*
Y25637D03*
Y26137D03*
Y26637D03*
Y27137D03*
Y27637D03*
Y28137D03*
Y28637D03*
Y29137D03*
Y29637D03*
Y30137D03*
Y30637D03*
X29514Y18637D03*
Y19137D03*
Y19637D03*
Y20137D03*
Y20637D03*
Y21137D03*
Y21637D03*
Y22137D03*
Y22637D03*
Y23137D03*
Y23637D03*
Y24137D03*
Y24637D03*
Y25137D03*
Y25637D03*
Y26137D03*
Y26637D03*
Y27137D03*
Y27637D03*
Y28137D03*
Y28637D03*
Y29137D03*
Y29637D03*
Y30137D03*
Y30637D03*
D02*
D87*
X15764Y16887D03*
Y32387D03*
X16264Y16887D03*
Y32387D03*
X16764Y16887D03*
Y32387D03*
X17264Y16887D03*
Y32387D03*
X17764Y16887D03*
Y32387D03*
X18264Y16887D03*
Y32387D03*
X18764Y16887D03*
Y32387D03*
X19264Y16887D03*
Y32387D03*
X19764Y16887D03*
Y32387D03*
X20264Y16887D03*
Y32387D03*
X20764Y16887D03*
Y32387D03*
X21264Y16887D03*
Y32387D03*
X21764Y16887D03*
Y32387D03*
X22264Y16887D03*
Y32387D03*
X22764Y16887D03*
Y32387D03*
X23264Y16887D03*
Y32387D03*
X23764Y16887D03*
Y32387D03*
X24264Y16887D03*
Y32387D03*
X24764Y16887D03*
Y32387D03*
X25264Y16887D03*
Y32387D03*
X25764Y16887D03*
Y32387D03*
X26264Y16887D03*
Y32387D03*
X26764Y16887D03*
Y32387D03*
X27264Y16887D03*
Y32387D03*
X27764Y16887D03*
Y32387D03*
D02*
D88*
X6209Y14187D03*
Y19487D03*
X7478Y14187D03*
Y19487D03*
X8749Y14187D03*
Y19487D03*
X10019Y14187D03*
Y19487D03*
D02*
D89*
X34714Y19937D03*
Y20437D03*
Y20937D03*
Y21437D03*
Y21937D03*
Y22437D03*
Y22937D03*
Y23437D03*
Y23937D03*
Y24437D03*
Y24937D03*
Y25437D03*
Y25937D03*
Y26437D03*
Y26937D03*
Y27437D03*
Y27937D03*
Y28437D03*
Y28937D03*
D02*
D97*
X7614Y29847D03*
Y32387D03*
Y34927D03*
D02*
D98*
X6114Y12537D03*
X6414Y27637D03*
X6963Y15487D03*
X7064Y21087D03*
X8664Y21337D03*
X9614Y16837D03*
X10464Y21537D03*
X11264Y24487D03*
X11364Y17137D03*
X11664Y20587D03*
X11864Y18937D03*
X12064Y31837D03*
X12564Y25637D03*
X12714Y33937D03*
X12764Y22137D03*
X14014Y32137D03*
X14214Y16737D03*
X15464Y20487D03*
Y23487D03*
X15614Y22087D03*
X15664Y18987D03*
X17414Y24287D03*
X17514Y18887D03*
X18464Y25237D03*
X19264Y18137D03*
X19614Y26237D03*
X19714Y24387D03*
X20464Y19037D03*
X20814Y27137D03*
X21764Y18087D03*
X22064Y24387D03*
X22864Y27237D03*
X23414Y21687D03*
X23714Y29237D03*
X24164Y18287D03*
X24314Y26937D03*
X25064Y22537D03*
X25464Y28037D03*
X25714Y18187D03*
X25814Y26537D03*
X26514Y29137D03*
X26664Y23537D03*
X26714Y30987D03*
X27064Y25687D03*
X28214Y21137D03*
Y26637D03*
X28714Y34587D03*
X29164Y16687D03*
X29814Y33587D03*
X31114Y20937D03*
Y23687D03*
Y26137D03*
X31464Y28487D03*
X31514Y31737D03*
X31964Y30287D03*
X33114Y14337D03*
X37564Y19587D03*
X37614Y22987D03*
X38364Y25487D03*
Y26937D03*
Y28437D03*
X38564Y21687D03*
X38764Y23937D03*
X38914Y20187D03*
X41714Y14337D03*
X0Y0D02*
M02*
