%FSLAX23Y23*%
%MOMM*%
G04 EasyPC Gerber Version 16.0.6 Build 3249 *
%ADD83C,0.06100*%
%ADD85C,0.10160*%
%ADD10C,0.12700*%
%ADD84C,0.20320*%
%ADD11C,0.25400*%
X0Y0D02*
D02*
D10*
X5836Y28069D02*
Y36705D01*
X9392*
Y28704*
X8757Y28069*
X5836*
X7314Y13177D02*
Y12463D01*
X7393Y12304*
X7552Y12225*
X7869*
X8028Y12304*
X8107Y12463*
Y13177*
X9219Y12225D02*
X8584D01*
X9139Y12781*
X9219Y12939*
X9139Y13098*
X8980Y13177*
X8742*
X8584Y13098*
X7423Y25887D02*
X8137D01*
X8296Y25966*
X8375Y26125*
Y26442*
X8296Y26601*
X8137Y26681*
X7423*
X8375Y27554D02*
X7423D01*
X8058Y27157*
Y27792*
X9525Y36019D02*
Y31955D01*
X11303*
Y36019*
X9525*
X10544Y13437D02*
X5684D01*
Y20237*
X10544*
Y17087*
X10294*
Y16587*
X10544*
Y13437*
X11660Y29793D02*
X11581Y29872D01*
X11502Y30031*
Y30269*
X11581Y30428*
X11660Y30507*
X11819Y30587*
X12137*
X12295Y30507*
X12375Y30428*
X12454Y30269*
Y30031*
X12375Y29872*
X12295Y29793*
X11502Y29317D02*
X12454Y28682D01*
Y29317*
X11303Y27605D02*
Y31669D01*
X9525*
Y27605*
X11303*
X11710Y35993D02*
X11631Y36072D01*
X11552Y36231*
Y36469*
X11631Y36628*
X11710Y36707*
X11869Y36787*
X12187*
X12345Y36707*
X12425Y36628*
X12504Y36469*
Y36231*
X12425Y36072*
X12345Y35993*
X12028Y35279D02*
Y35120D01*
X12107Y34961*
X12266Y34882*
X12425Y34961*
X12504Y35120*
Y35279*
X12425Y35437*
X12266Y35517*
X12107Y35437*
X12028Y35279*
X11949Y35437*
X11790Y35517*
X11631Y35437*
X11552Y35279*
Y35120*
X11631Y34961*
X11790Y34882*
X11949Y34961*
X12028Y35120*
X26214Y34627D02*
Y33913D01*
X26293Y33754*
X26452Y33675*
X26769*
X26928Y33754*
X27007Y33913*
Y34627*
X27642Y33675D02*
X27960D01*
X27801D02*
Y34627D01*
X27642Y34469*
X27764Y33287D02*
G75*
G03Y33063J-112D01*
G01*
G75*
G03Y33287J112*
G01*
G36*
G75*
G03Y33063J-112*
G01*
G75*
G03Y33287J112*
G01*
G37*
X30414Y33087D02*
Y15987D01*
X13114*
Y33287*
X30214*
X30414Y33087*
X32689Y15337D02*
Y33537D01*
X45789*
Y15337*
X32689*
X40896Y35776D02*
X36832D01*
Y33998*
X40896*
Y35776*
X41514Y34425D02*
Y35377D01*
X42069*
X42228Y35298*
X42307Y35139*
X42228Y34981*
X42069Y34901*
X41514*
X42069D02*
X42307Y34425D01*
X43180D02*
Y35377D01*
X42783Y34742*
X43419*
D02*
D11*
X36384Y36057D02*
X31303D01*
Y33517*
X36384*
Y36057*
D02*
D83*
X36440Y14425D02*
X36392Y14377D01*
X36297Y14330*
X36154*
X36059Y14377*
X36011Y14425*
X35964Y14520*
Y14711*
X36011Y14806*
X36059Y14854*
X36154Y14901*
X36297*
X36392Y14854*
X36440Y14806*
X36726Y14520D02*
Y14711D01*
X36773Y14806*
X36821Y14854*
X36916Y14901*
X37011*
X37107Y14854*
X37154Y14806*
X37202Y14711*
Y14520*
X37154Y14425*
X37107Y14377*
X37011Y14330*
X36916*
X36821Y14377*
X36773Y14425*
X36726Y14520*
X37488Y14330D02*
Y14901D01*
X37964Y14330*
Y14901*
X38250Y14330D02*
Y14901D01*
X38726Y14330*
Y14901*
X39392Y14330D02*
X39012D01*
X39345Y14663*
X39392Y14758*
X39345Y14854*
X39250Y14901*
X39107*
X39012Y14854*
D02*
D84*
X13464Y35987D02*
X25894D01*
Y33487*
X13464*
Y35987*
X17744Y11912D02*
Y15812D01*
X11064*
Y11912*
X17744*
X30414Y12987D02*
X17984D01*
Y15487*
X30414*
Y12987*
D02*
D85*
X31707Y12934D02*
X31628Y12854D01*
X31469Y12775*
X31231*
X31072Y12854*
X30993Y12934*
X30914Y13092*
Y13410*
X30993Y13569*
X31072Y13648*
X31231Y13727*
X31469*
X31628Y13648*
X31707Y13569*
X32184Y13092D02*
Y13410D01*
X32263Y13569*
X32342Y13648*
X32501Y13727*
X32660*
X32819Y13648*
X32898Y13569*
X32977Y13410*
Y13092*
X32898Y12934*
X32819Y12854*
X32660Y12775*
X32501*
X32342Y12854*
X32263Y12934*
X32184Y13092*
X33453Y12775D02*
Y13727D01*
X34247Y12775*
Y13727*
X34724Y12775D02*
Y13727D01*
X35517Y12775*
Y13727*
X35993Y13013D02*
X36073Y13172D01*
X36232Y13251*
X36390*
X36549Y13172*
X36629Y13013*
X36549Y12854*
X36390Y12775*
X36232*
X36073Y12854*
X35993Y13013*
Y13251*
X36073Y13489*
X36232Y13648*
X36390Y13727*
X0Y0D02*
M02*
