%FSLAX23Y23*%
%MOMM*%
G04 EasyPC Gerber Version 16.0.6 Build 3249 *
%ADD10C,0.12700*%
X0Y0D02*
D02*
D10*
X16652Y20087D02*
X17604D01*
Y20642*
X17525Y20801*
X17366Y20881*
X17207Y20801*
X17128Y20642*
Y20087*
Y20642D02*
X16652Y20881D01*
Y21992D02*
Y21357D01*
X17207Y21912*
X17366Y21992*
X17525Y21912*
X17604Y21754*
Y21516*
X17525Y21357*
X17020Y30234D02*
X17099Y30154D01*
X17258Y30075*
X17496*
X17655Y30154*
X17734Y30234*
X17814Y30392*
Y30710*
X17734Y30869*
X17655Y30948*
X17496Y31027*
X17258*
X17099Y30948*
X17020Y30869*
X16385Y30075D02*
X16067D01*
X16226D02*
Y31027D01*
X16385Y30869*
X17982Y21676D02*
X22046D01*
Y19898*
X17982*
Y21676*
Y23626D02*
X22046D01*
Y21848*
X17982*
Y23626*
X18895Y31248D02*
X14832D01*
Y33026*
X18895*
Y31248*
X23102Y22737D02*
X24054D01*
Y23292*
X23975Y23451*
X23816Y23531*
X23657Y23451*
X23578Y23292*
Y22737*
Y23292D02*
X23102Y23531D01*
X23181Y24086D02*
X23102Y24245D01*
Y24404*
X23181Y24562*
X23340Y24642*
X23499Y24562*
X23578Y24404*
Y24245*
Y24404D02*
X23657Y24562D01*
X23816Y24642*
X23975Y24562*
X24054Y24404*
Y24245*
X23975Y24086*
X27395Y18998D02*
X23332D01*
Y20776*
X27395*
Y18998*
X29603Y32019D02*
Y27955D01*
X27825*
Y32019*
X29603*
X30060Y29931D02*
X29981Y29851D01*
X29902Y29692*
Y29454*
X29981Y29296*
X30060Y29216*
X30219Y29137*
X30537*
X30695Y29216*
X30775Y29296*
X30854Y29454*
Y29692*
X30775Y29851*
X30695Y29931*
X29981Y30486D02*
X29902Y30645D01*
Y30804*
X29981Y30962*
X30140Y31042*
X30299Y30962*
X30378Y30804*
Y30645*
Y30804D02*
X30457Y30962D01*
X30616Y31042*
X30775Y30962*
X30854Y30804*
Y30645*
X30775Y30486*
X29170Y18984D02*
X29249Y18904D01*
X29408Y18825*
X29646*
X29805Y18904*
X29884Y18984*
X29964Y19142*
Y19460*
X29884Y19619*
X29805Y19698*
X29646Y19777*
X29408*
X29249Y19698*
X29170Y19619*
X28297Y18825D02*
Y19777D01*
X28694Y19142*
X28059*
X32582Y22076D02*
X36646D01*
Y20298*
X32582*
Y22076*
Y24026D02*
X36646D01*
Y22248*
X32582*
Y24026*
Y25976D02*
X36646D01*
Y24198*
X32582*
Y25976*
X33814Y18925D02*
Y19877D01*
X33258*
X33099Y19798*
X33020Y19639*
X33099Y19481*
X33258Y19401*
X33814*
X33258D02*
X33020Y18925D01*
X32544D02*
X31909Y19877D01*
X32544*
X35764Y26375D02*
Y27327D01*
X35208*
X35049Y27248*
X34970Y27089*
X35049Y26931*
X35208Y26851*
X35764*
X35208D02*
X34970Y26375D01*
X34493Y26613D02*
X34414Y26772D01*
X34255Y26851*
X34097*
X33938Y26772*
X33859Y26613*
X33938Y26454*
X34097Y26375*
X34255*
X34414Y26454*
X34493Y26613*
Y26851*
X34414Y27089*
X34255Y27248*
X34097Y27327*
X35814Y27775D02*
Y28727D01*
X35258*
X35099Y28648*
X35020Y28489*
X35099Y28331*
X35258Y28251*
X35814*
X35258D02*
X35020Y27775D01*
X34544Y27854D02*
X34385Y27775D01*
X34147*
X33988Y27854*
X33909Y28013*
Y28092*
X33988Y28251*
X34147Y28331*
X34544*
Y28727*
X33909*
X40304Y25487D02*
X39590D01*
X39431Y25566*
X39352Y25725*
Y26042*
X39431Y26201*
X39590Y26281*
X40304*
X39431Y26836D02*
X39352Y26995D01*
Y27154*
X39431Y27312*
X39590Y27392*
X39749Y27312*
X39828Y27154*
Y26995*
Y27154D02*
X39907Y27312D01*
X40066Y27392*
X40225Y27312*
X40304Y27154*
Y26995*
X40225Y26836*
X40032Y29526D02*
X44096D01*
Y27748*
X40032*
Y29526*
X40132Y21926D02*
X44196D01*
Y20148*
X40132*
Y21926*
X42620Y18984D02*
X42699Y18904D01*
X42858Y18825*
X43096*
X43255Y18904*
X43334Y18984*
X43414Y19142*
Y19460*
X43334Y19619*
X43255Y19698*
X43096Y19777*
X42858*
X42699Y19698*
X42620Y19619*
X42144Y19063D02*
X42064Y19222D01*
X41905Y19301*
X41747*
X41588Y19222*
X41508Y19063*
X41588Y18904*
X41747Y18825*
X41905*
X42064Y18904*
X42144Y19063*
Y19301*
X42064Y19539*
X41905Y19698*
X41747Y19777*
X44164Y27387D02*
X40564D01*
Y22187*
X44164*
Y24662*
X44039*
Y24912*
X44164*
Y27387*
X43670Y29934D02*
X43749Y29854D01*
X43908Y29775*
X44146*
X44305Y29854*
X44384Y29934*
X44464Y30092*
Y30410*
X44384Y30569*
X44305Y30648*
X44146Y30727*
X43908*
X43749Y30648*
X43670Y30569*
X43194Y29854D02*
X43035Y29775D01*
X42797*
X42638Y29854*
X42559Y30013*
Y30092*
X42638Y30251*
X42797Y30331*
X43194*
Y30727*
X42559*
X0Y0D02*
M02*
