%FSLAX23Y23*%
%MOMM*%
G04 EasyPC Gerber Version 16.0.6 Build 3249 *
%ADD91R,0.57400X1.05400*%
%ADD92R,0.80400X1.25400*%
%ADD74R,1.65100X1.77800*%
%ADD77R,1.75400X1.75400*%
%ADD27R,1.77800X1.77800*%
%ADD73R,1.77800X1.77800*%
%ADD78C,1.75400*%
%ADD26C,1.77800*%
%ADD99C,2.15400*%
%ADD29C,2.55400*%
%ADD90R,1.05400X0.57400*%
%ADD93R,2.85400X0.60400*%
%ADD28C,3.55400*%
%ADD72R,1.77800X1.65100*%
X0Y0D02*
D02*
D26*
X2213Y15437D03*
Y17237D03*
Y19037D03*
Y20837D03*
Y22637D03*
Y24437D03*
Y26237D03*
Y28037D03*
Y29837D03*
Y31637D03*
X4184Y33467D03*
X4204Y31667D03*
X4214Y15437D03*
Y17237D03*
Y19037D03*
Y20837D03*
Y22637D03*
Y24437D03*
Y26237D03*
Y28037D03*
Y29837D03*
X12164Y14687D03*
X14364Y13087D03*
Y14687D03*
X16564Y13087D03*
Y14687D03*
D02*
D27*
X2213Y33437D03*
D02*
D28*
X35414Y17187D03*
Y31687D03*
D02*
D29*
X41339Y17187D03*
Y31687D03*
D02*
D72*
X37721Y34887D03*
X40007D03*
D02*
D73*
X32574Y34787D03*
X35114D03*
D02*
D74*
X10414Y28494D03*
Y30780D03*
Y32844D03*
Y35130D03*
D02*
D77*
X12164Y13087D03*
X14714Y34737D03*
X29164Y14237D03*
D02*
D78*
X16714Y34737D03*
X18714D03*
X19164Y14237D03*
X20714Y34737D03*
X21164Y14237D03*
X22714Y34737D03*
X23164Y14237D03*
X24714Y34737D03*
X25164Y14237D03*
X27164D03*
D02*
D90*
X14014Y18637D03*
Y19137D03*
Y19637D03*
Y20137D03*
Y20637D03*
Y21137D03*
Y21637D03*
Y22137D03*
Y22637D03*
Y23137D03*
Y23637D03*
Y24137D03*
Y24637D03*
Y25137D03*
Y25637D03*
Y26137D03*
Y26637D03*
Y27137D03*
Y27637D03*
Y28137D03*
Y28637D03*
Y29137D03*
Y29637D03*
Y30137D03*
Y30637D03*
X29514Y18637D03*
Y19137D03*
Y19637D03*
Y20137D03*
Y20637D03*
Y21137D03*
Y21637D03*
Y22137D03*
Y22637D03*
Y23137D03*
Y23637D03*
Y24137D03*
Y24637D03*
Y25137D03*
Y25637D03*
Y26137D03*
Y26637D03*
Y27137D03*
Y27637D03*
Y28137D03*
Y28637D03*
Y29137D03*
Y29637D03*
Y30137D03*
Y30637D03*
D02*
D91*
X15764Y16887D03*
Y32387D03*
X16264Y16887D03*
Y32387D03*
X16764Y16887D03*
Y32387D03*
X17264Y16887D03*
Y32387D03*
X17764Y16887D03*
Y32387D03*
X18264Y16887D03*
Y32387D03*
X18764Y16887D03*
Y32387D03*
X19264Y16887D03*
Y32387D03*
X19764Y16887D03*
Y32387D03*
X20264Y16887D03*
Y32387D03*
X20764Y16887D03*
Y32387D03*
X21264Y16887D03*
Y32387D03*
X21764Y16887D03*
Y32387D03*
X22264Y16887D03*
Y32387D03*
X22764Y16887D03*
Y32387D03*
X23264Y16887D03*
Y32387D03*
X23764Y16887D03*
Y32387D03*
X24264Y16887D03*
Y32387D03*
X24764Y16887D03*
Y32387D03*
X25264Y16887D03*
Y32387D03*
X25764Y16887D03*
Y32387D03*
X26264Y16887D03*
Y32387D03*
X26764Y16887D03*
Y32387D03*
X27264Y16887D03*
Y32387D03*
X27764Y16887D03*
Y32387D03*
D02*
D92*
X6209Y14187D03*
Y19487D03*
X7478Y14187D03*
Y19487D03*
X8749Y14187D03*
Y19487D03*
X10019Y14187D03*
Y19487D03*
D02*
D93*
X34714Y19937D03*
Y20437D03*
Y20937D03*
Y21437D03*
Y21937D03*
Y22437D03*
Y22937D03*
Y23437D03*
Y23937D03*
Y24437D03*
Y24937D03*
Y25437D03*
Y25937D03*
Y26437D03*
Y26937D03*
Y27437D03*
Y27937D03*
Y28437D03*
Y28937D03*
D02*
D99*
X7614Y29847D03*
Y32387D03*
Y34927D03*
X0Y0D02*
M02*
